<svg width="40" height="40" viewBox="0 0 40 40" fill="none" xmlns="http://www.w3.org/2000/svg">
<rect width="40" height="40" rx="6" fill="white"/>
<g clip-path="url(#clip0_981_1177)">
<path d="M17.7603 12.7007C17.8441 12.1962 18.2816 11.8257 18.7936 11.8257H21.2073C21.7193 11.8257 22.1568 12.1962 22.2406 12.7007L22.4389 13.8932C22.4975 14.2413 22.7302 14.5318 23.0393 14.703C23.1082 14.7403 23.1761 14.7803 23.2441 14.8213C23.5466 15.0037 23.9143 15.0605 24.2448 14.9367L25.3777 14.5122C25.6098 14.4249 25.8654 14.4228 26.099 14.5063C26.3325 14.5899 26.5288 14.7536 26.653 14.9683L27.8594 17.06C27.9833 17.2748 28.0269 17.5265 27.9826 17.7704C27.9383 18.0144 27.8089 18.2346 27.6174 18.3921L26.6837 19.1619C26.4109 19.3863 26.276 19.7326 26.2834 20.0854C26.2847 20.1645 26.2847 20.2436 26.2834 20.3228C26.276 20.6746 26.4109 21.0209 26.6837 21.2453L27.6183 22.0151C28.013 22.3409 28.1154 22.9041 27.8603 23.3463L26.652 25.4379C26.5281 25.6526 26.332 25.8164 26.0986 25.9001C25.8653 25.9838 25.6098 25.982 25.3777 25.895L24.2448 25.4705C23.9143 25.3467 23.5466 25.4035 23.2432 25.5859C23.1757 25.627 23.1074 25.6667 23.0384 25.7051C22.7302 25.8755 22.4975 26.1659 22.4389 26.514L22.2406 27.7065C22.1568 28.212 21.7193 28.5815 21.2073 28.5815H18.7926C18.2806 28.5815 17.8441 28.211 17.7593 27.7065L17.5611 26.514C17.5034 26.1659 17.2706 25.8755 16.9616 25.7042C16.8926 25.6661 16.8243 25.6267 16.7568 25.5859C16.4543 25.4035 16.0866 25.3467 15.7552 25.4705L14.6223 25.895C14.3902 25.9821 14.1348 25.984 13.9015 25.9005C13.6682 25.817 13.472 25.6534 13.3479 25.4389L12.1406 23.3472C12.0167 23.1324 11.973 22.8807 12.0174 22.6368C12.0617 22.3928 12.1911 22.1726 12.3826 22.0151L13.3172 21.2453C13.589 21.0218 13.724 20.6746 13.7175 20.3228C13.716 20.2436 13.716 20.1645 13.7175 20.0854C13.724 19.7316 13.589 19.3863 13.3172 19.1619L12.3826 18.3921C12.1913 18.2347 12.0621 18.0146 12.0177 17.7709C11.9734 17.5271 12.0169 17.2756 12.1406 17.061L13.3479 14.9693C13.4719 14.7544 13.6681 14.5904 13.9017 14.5067C14.1353 14.423 14.3909 14.425 14.6232 14.5122L15.7552 14.9367C16.0866 15.0605 16.4543 15.0037 16.7568 14.8213C16.8238 14.7803 16.8927 14.7412 16.9616 14.7021C17.2706 14.5318 17.5034 14.2413 17.5611 13.8932L17.7603 12.7007Z" stroke="#667085" stroke-width="1.67" stroke-linecap="round" stroke-linejoin="round"/>
<path d="M22.7928 20.2037C22.7928 20.9443 22.4986 21.6546 21.9749 22.1783C21.4511 22.7021 20.7408 22.9963 20.0002 22.9963C19.2595 22.9963 18.5492 22.7021 18.0255 22.1783C17.5017 21.6546 17.2075 20.9443 17.2075 20.2037C17.2075 19.463 17.5017 18.7527 18.0255 18.229C18.5492 17.7052 19.2595 17.411 20.0002 17.411C20.7408 17.411 21.4511 17.7052 21.9749 18.229C22.4986 18.7527 22.7928 19.463 22.7928 20.2037Z" stroke="#667085" stroke-width="1.67" stroke-linecap="round" stroke-linejoin="round"/>
</g>
<defs>
<clipPath id="clip0_981_1177">
<rect width="20" height="20" fill="white" transform="translate(10 10)"/>
</clipPath>
</defs>
</svg>
