<svg width="25" height="30" viewBox="0 0 25 30" fill="none" xmlns="http://www.w3.org/2000/svg">
<path fill-rule="evenodd" clip-rule="evenodd" d="M6.79447 3.17477C9.58704 1.44236 10.9826 0.575439 12.5159 0.575439C14.0491 0.575439 15.4447 1.44092 18.2373 3.17477L19.1814 3.76041C21.974 5.49426 23.3696 6.36118 24.1362 7.78778C24.9028 9.21582 24.9028 10.9468 24.9028 14.4145V15.5858C24.9028 19.052 24.9028 20.7859 24.1362 22.2125C23.3696 23.6391 21.974 24.506 19.1814 26.2384L18.2373 26.8255C15.4447 28.5579 14.0491 29.4248 12.5159 29.4248C10.9826 29.4248 9.58704 28.5593 6.79447 26.8255L5.85031 26.2384C3.05773 24.5074 1.66214 23.6391 0.895522 22.2125C0.128906 20.7844 0.128906 19.0535 0.128906 15.5858V14.4145C0.128906 10.9468 0.128906 9.21438 0.895522 7.78778C1.66214 6.36118 3.05773 5.49426 5.85031 3.76041L6.79447 3.17477ZM13.8922 20.77C13.8922 21.1526 13.7472 21.5195 13.4891 21.79C13.231 22.0605 12.8809 22.2125 12.5159 22.2125C12.1508 22.2125 11.8008 22.0605 11.5427 21.79C11.2845 21.5195 11.1395 21.1526 11.1395 20.77C11.1395 20.3874 11.2845 20.0205 11.5427 19.75C11.8008 19.4795 12.1508 19.3275 12.5159 19.3275C12.8809 19.3275 13.231 19.4795 13.4891 19.75C13.7472 20.0205 13.8922 20.3874 13.8922 20.77ZM12.5159 6.70593C12.7896 6.70593 13.0522 6.81991 13.2458 7.0228C13.4394 7.22568 13.5481 7.50085 13.5481 7.78778V16.4426C13.5481 16.7295 13.4394 17.0047 13.2458 17.2076C13.0522 17.4105 12.7896 17.5244 12.5159 17.5244C12.2421 17.5244 11.9795 17.4105 11.786 17.2076C11.5924 17.0047 11.4836 16.7295 11.4836 16.4426V7.78778C11.4836 7.50085 11.5924 7.22568 11.786 7.0228C11.9795 6.81991 12.2421 6.70593 12.5159 6.70593Z" fill="#EC2D2D"/>
</svg>
