<svg width="226" height="276" viewBox="0 0 226 276" fill="none" xmlns="http://www.w3.org/2000/svg">
<g filter="url(#filter0_d_1081_5591)">
<rect x="3.51227" y="3.44641" width="218.856" height="269.605" rx="6.60796" fill="white"/>
<circle cx="57.4774" cy="204.328" r="3.30398" fill="#98A2B3"/>
<path d="M67.715 203.22C67.6925 202.993 67.5958 202.816 67.425 202.691C67.2542 202.565 67.0223 202.502 66.7295 202.502C66.5305 202.502 66.3625 202.53 66.2254 202.587C66.0884 202.641 65.9833 202.717 65.9101 202.815C65.8387 202.912 65.8031 203.023 65.8031 203.147C65.7993 203.25 65.8209 203.34 65.8678 203.417C65.9166 203.494 65.9833 203.561 66.0677 203.617C66.1522 203.672 66.2498 203.719 66.3606 203.761C66.4714 203.8 66.5896 203.834 66.7154 203.862L67.2335 203.986C67.4851 204.042 67.716 204.117 67.9262 204.211C68.1365 204.305 68.3186 204.421 68.4725 204.558C68.6265 204.695 68.7457 204.856 68.8301 205.042C68.9165 205.228 68.9606 205.441 68.9625 205.681C68.9606 206.034 68.8705 206.34 68.6922 206.599C68.5157 206.856 68.2604 207.056 67.9262 207.199C67.594 207.34 67.1932 207.41 66.7239 207.41C66.2583 207.41 65.8528 207.339 65.5074 207.196C65.1638 207.053 64.8954 206.842 64.702 206.563C64.5106 206.281 64.4101 205.933 64.4007 205.518H65.5806C65.5937 205.711 65.6491 205.873 65.7467 206.002C65.8462 206.13 65.9786 206.227 66.1438 206.292C66.3109 206.356 66.4995 206.388 66.7098 206.388C66.9163 206.388 67.0955 206.358 67.2476 206.298C67.4015 206.238 67.5207 206.154 67.6052 206.047C67.6897 205.94 67.7319 205.817 67.7319 205.678C67.7319 205.549 67.6935 205.44 67.6165 205.352C67.5414 205.263 67.4306 205.188 67.2842 205.126C67.1397 205.064 66.9623 205.008 66.752 204.957L66.1241 204.8C65.6379 204.682 65.254 204.497 64.9724 204.245C64.6908 203.994 64.5509 203.655 64.5528 203.229C64.5509 202.879 64.6438 202.574 64.8316 202.313C65.0212 202.052 65.2812 201.849 65.6116 201.702C65.942 201.556 66.3174 201.483 66.7379 201.483C67.1659 201.483 67.5395 201.556 67.8587 201.702C68.1797 201.849 68.4293 202.052 68.6077 202.313C68.786 202.574 68.878 202.877 68.8836 203.22H67.715ZM71.7143 207.413C71.2713 207.413 70.8902 207.319 70.5711 207.131C70.2538 206.942 70.0098 206.679 69.8389 206.343C69.67 206.007 69.5855 205.62 69.5855 205.183C69.5855 204.74 69.6709 204.351 69.8417 204.017C70.0145 203.681 70.2594 203.419 70.5767 203.231C70.894 203.042 71.2713 202.947 71.7087 202.947C72.086 202.947 72.4164 203.015 72.6999 203.153C72.9833 203.29 73.2077 203.482 73.3729 203.73C73.5381 203.978 73.6291 204.269 73.646 204.603H72.514C72.4821 204.387 72.3976 204.213 72.2606 204.082C72.1254 203.948 71.948 203.882 71.7284 203.882C71.5425 203.882 71.3802 203.933 71.2412 204.034C71.1042 204.133 70.9972 204.279 70.9202 204.47C70.8433 204.662 70.8048 204.894 70.8048 205.166C70.8048 205.442 70.8423 205.676 70.9174 205.87C70.9944 206.063 71.1023 206.211 71.2412 206.312C71.3802 206.413 71.5425 206.464 71.7284 206.464C71.8654 206.464 71.9884 206.436 72.0973 206.38C72.208 206.323 72.2991 206.242 72.3704 206.135C72.4436 206.026 72.4915 205.895 72.514 205.743H73.646C73.6272 206.074 73.5371 206.365 73.3757 206.616C73.2161 206.866 72.9955 207.061 72.714 207.202C72.4324 207.343 72.0992 207.413 71.7143 207.413ZM75.6136 204.828V207.328H74.4141V201.562H75.5798V203.766H75.6305C75.7281 203.511 75.8858 203.311 76.1036 203.167C76.3214 203.02 76.5945 202.947 76.923 202.947C77.2234 202.947 77.4853 203.013 77.7087 203.144C77.9339 203.274 78.1085 203.46 78.2324 203.704C78.3582 203.947 78.4201 204.237 78.4183 204.575V207.328H77.2187V204.789C77.2206 204.522 77.153 204.315 77.0159 204.166C76.8808 204.018 76.6912 203.944 76.4471 203.944C76.2838 203.944 76.1393 203.979 76.0135 204.048C75.8896 204.117 75.792 204.219 75.7206 204.352C75.6512 204.483 75.6155 204.642 75.6136 204.828ZM81.3334 207.413C80.8885 207.413 80.5055 207.323 80.1845 207.143C79.8654 206.961 79.6195 206.703 79.4468 206.371C79.2741 206.037 79.1877 205.642 79.1877 205.186C79.1877 204.741 79.2741 204.35 79.4468 204.014C79.6195 203.678 79.8626 203.416 80.1761 203.229C80.4915 203.041 80.8613 202.947 81.2855 202.947C81.5709 202.947 81.8365 202.993 82.0824 203.085C82.3302 203.175 82.5461 203.311 82.7301 203.493C82.9159 203.675 83.0605 203.904 83.1637 204.18C83.267 204.454 83.3186 204.775 83.3186 205.143V205.473H79.6664V204.729H82.1894C82.1894 204.557 82.1519 204.404 82.0768 204.27C82.0017 204.137 81.8975 204.033 81.7642 203.958C81.6328 203.881 81.4798 203.842 81.3053 203.842C81.1232 203.842 80.9617 203.885 80.8209 203.969C80.682 204.052 80.5731 204.163 80.4943 204.304C80.4154 204.443 80.3751 204.598 80.3732 204.769V205.476C80.3732 205.69 80.4126 205.875 80.4915 206.03C80.5722 206.186 80.6858 206.306 80.8322 206.391C80.9786 206.475 81.1523 206.517 81.3531 206.517C81.4864 206.517 81.6084 206.499 81.7192 206.461C81.8299 206.424 81.9247 206.367 82.0036 206.292C82.0824 206.217 82.1425 206.125 82.1838 206.016L83.2933 206.089C83.237 206.356 83.1215 206.589 82.9469 206.788C82.7742 206.985 82.5508 207.139 82.2767 207.25C82.0045 207.359 81.6901 207.413 81.3334 207.413ZM85.6952 207.399C85.3667 207.399 85.0692 207.314 84.8026 207.145C84.5379 206.975 84.3276 206.724 84.1718 206.394C84.0179 206.061 83.9409 205.654 83.9409 205.172C83.9409 204.676 84.0207 204.264 84.1803 203.935C84.3398 203.605 84.552 203.358 84.8167 203.195C85.0832 203.03 85.3752 202.947 85.6924 202.947C85.9346 202.947 86.1364 202.988 86.2978 203.071C86.4612 203.152 86.5926 203.253 86.6921 203.375C86.7934 203.495 86.8704 203.613 86.923 203.73H86.9596V201.562H88.1563V207.328H86.9736V206.636H86.923C86.8666 206.756 86.7869 206.875 86.6836 206.993C86.5822 207.11 86.4499 207.206 86.2866 207.283C86.1251 207.36 85.928 207.399 85.6952 207.399ZM86.0754 206.444C86.2687 206.444 86.4321 206.392 86.5653 206.287C86.7005 206.18 86.8038 206.03 86.8751 205.839C86.9483 205.647 86.9849 205.423 86.9849 205.166C86.9849 204.909 86.9492 204.685 86.8779 204.496C86.8066 204.306 86.7033 204.16 86.5682 204.056C86.433 203.953 86.2687 203.902 86.0754 203.902C85.8783 203.902 85.7121 203.955 85.577 204.062C85.4418 204.169 85.3395 204.317 85.27 204.507C85.2006 204.697 85.1658 204.916 85.1658 205.166C85.1658 205.417 85.2006 205.64 85.27 205.833C85.3414 206.025 85.4437 206.175 85.577 206.284C85.7121 206.391 85.8783 206.444 86.0754 206.444ZM91.9162 205.487V203.003H93.1158V207.328H91.9641V206.543H91.9191C91.8214 206.796 91.6591 207 91.4319 207.154C91.2066 207.308 90.9316 207.385 90.6069 207.385C90.3178 207.385 90.0634 207.319 89.8437 207.188C89.6241 207.056 89.4523 206.869 89.3284 206.627C89.2064 206.385 89.1445 206.095 89.1426 205.757V203.003H90.3422V205.543C90.344 205.799 90.4126 206 90.5477 206.149C90.6829 206.297 90.864 206.371 91.0912 206.371C91.2357 206.371 91.3709 206.338 91.4967 206.273C91.6225 206.205 91.7238 206.105 91.8008 205.974C91.8796 205.843 91.9181 205.68 91.9162 205.487ZM95.2749 201.562V207.328H94.0753V201.562H95.2749ZM98.2069 207.413C97.762 207.413 97.3791 207.323 97.0581 207.143C96.7389 206.961 96.493 206.703 96.3203 206.371C96.1476 206.037 96.0612 205.642 96.0612 205.186C96.0612 204.741 96.1476 204.35 96.3203 204.014C96.493 203.678 96.7361 203.416 97.0496 203.229C97.365 203.041 97.7348 202.947 98.1591 202.947C98.4444 202.947 98.7101 202.993 98.956 203.085C99.2038 203.175 99.4197 203.311 99.6036 203.493C99.7895 203.675 99.934 203.904 100.037 204.18C100.141 204.454 100.192 204.775 100.192 205.143V205.473H96.5399V204.729H99.063C99.063 204.557 99.0254 204.404 98.9503 204.27C98.8753 204.137 98.7711 204.033 98.6378 203.958C98.5064 203.881 98.3534 203.842 98.1788 203.842C97.9967 203.842 97.8353 203.885 97.6945 203.969C97.5555 204.052 97.4467 204.163 97.3678 204.304C97.289 204.443 97.2486 204.598 97.2467 204.769V205.476C97.2467 205.69 97.2862 205.875 97.365 206.03C97.4457 206.186 97.5593 206.306 97.7057 206.391C97.8521 206.475 98.0258 206.517 98.2267 206.517C98.3599 206.517 98.482 206.499 98.5927 206.461C98.7035 206.424 98.7983 206.367 98.8771 206.292C98.956 206.217 99.016 206.125 99.0573 206.016L100.167 206.089C100.11 206.356 99.995 206.589 99.8205 206.788C99.6477 206.985 99.4244 207.139 99.1503 207.25C98.8781 207.359 98.5636 207.413 98.2069 207.413ZM104.781 207.413C104.336 207.413 103.953 207.323 103.632 207.143C103.313 206.961 103.067 206.703 102.895 206.371C102.722 206.037 102.636 205.642 102.636 205.186C102.636 204.741 102.722 204.35 102.895 204.014C103.067 203.678 103.311 203.416 103.624 203.229C103.939 203.041 104.309 202.947 104.733 202.947C105.019 202.947 105.284 202.993 105.53 203.085C105.778 203.175 105.994 203.311 106.178 203.493C106.364 203.675 106.508 203.904 106.612 204.18C106.715 204.454 106.767 204.775 106.767 205.143V205.473H103.114V204.729H105.637C105.637 204.557 105.6 204.404 105.525 204.27C105.45 204.137 105.345 204.033 105.212 203.958C105.081 203.881 104.928 203.842 104.753 203.842C104.571 203.842 104.41 203.885 104.269 203.969C104.13 204.052 104.021 204.163 103.942 204.304C103.863 204.443 103.823 204.598 103.821 204.769V205.476C103.821 205.69 103.861 205.875 103.939 206.03C104.02 206.186 104.134 206.306 104.28 206.391C104.427 206.475 104.6 206.517 104.801 206.517C104.934 206.517 105.056 206.499 105.167 206.461C105.278 206.424 105.373 206.367 105.452 206.292C105.53 206.217 105.59 206.125 105.632 206.016L106.741 206.089C106.685 206.356 106.569 206.589 106.395 206.788C106.222 206.985 105.999 207.139 105.725 207.25C105.452 207.359 105.138 207.413 104.781 207.413ZM110.408 208.95V206.636H110.371C110.315 206.756 110.235 206.875 110.132 206.993C110.03 207.11 109.898 207.206 109.735 207.283C109.573 207.36 109.376 207.399 109.143 207.399C108.815 207.399 108.517 207.314 108.251 207.145C107.986 206.975 107.776 206.724 107.62 206.394C107.466 206.061 107.389 205.654 107.389 205.172C107.389 204.676 107.469 204.264 107.628 203.935C107.788 203.605 108 203.358 108.265 203.195C108.531 203.03 108.823 202.947 109.14 202.947C109.383 202.947 109.584 202.988 109.746 203.071C109.909 203.152 110.041 203.253 110.14 203.375C110.241 203.495 110.318 203.613 110.371 203.73H110.422V203.003H111.604V208.95H110.408ZM109.523 206.444C109.717 206.444 109.88 206.392 110.013 206.287C110.148 206.18 110.252 206.03 110.323 205.839C110.396 205.647 110.433 205.423 110.433 205.166C110.433 204.909 110.397 204.685 110.326 204.496C110.255 204.306 110.151 204.16 110.016 204.056C109.881 203.953 109.717 203.902 109.523 203.902C109.326 203.902 109.16 203.955 109.025 204.062C108.89 204.169 108.787 204.317 108.718 204.507C108.649 204.697 108.614 204.916 108.614 205.166C108.614 205.417 108.649 205.64 108.718 205.833C108.789 206.025 108.892 206.175 109.025 206.284C109.16 206.391 109.326 206.444 109.523 206.444ZM115.341 205.487V203.003H116.541V207.328H115.389V206.543H115.344C115.246 206.796 115.084 207 114.857 207.154C114.631 207.308 114.356 207.385 114.032 207.385C113.742 207.385 113.488 207.319 113.268 207.188C113.049 207.056 112.877 206.869 112.753 206.627C112.631 206.385 112.569 206.095 112.567 205.757V203.003H113.767V205.543C113.769 205.799 113.837 206 113.972 206.149C114.108 206.297 114.289 206.371 114.516 206.371C114.66 206.371 114.796 206.338 114.921 206.273C115.047 206.205 115.149 206.105 115.226 205.974C115.304 205.843 115.343 205.68 115.341 205.487ZM117.5 207.328V203.003H118.7V207.328H117.5ZM118.103 202.446C117.924 202.446 117.771 202.387 117.644 202.268C117.518 202.148 117.455 202.005 117.455 201.837C117.455 201.672 117.518 201.531 117.644 201.412C117.771 201.292 117.924 201.232 118.103 201.232C118.281 201.232 118.433 201.292 118.559 201.412C118.686 201.531 118.75 201.672 118.75 201.837C118.75 202.005 118.686 202.148 118.559 202.268C118.433 202.387 118.281 202.446 118.103 202.446ZM119.661 208.95V203.003H120.843V203.73H120.897C120.949 203.613 121.025 203.495 121.125 203.375C121.226 203.253 121.358 203.152 121.519 203.071C121.682 202.988 121.885 202.947 122.127 202.947C122.443 202.947 122.734 203.03 123 203.195C123.267 203.358 123.48 203.605 123.639 203.935C123.799 204.264 123.879 204.676 123.879 205.172C123.879 205.654 123.801 206.061 123.645 206.394C123.491 206.724 123.281 206.975 123.014 207.145C122.75 207.314 122.453 207.399 122.124 207.399C121.892 207.399 121.694 207.36 121.53 207.283C121.369 207.206 121.236 207.11 121.133 206.993C121.03 206.875 120.951 206.756 120.897 206.636H120.86V208.95H119.661ZM120.835 205.166C120.835 205.423 120.87 205.647 120.942 205.839C121.013 206.03 121.116 206.18 121.252 206.287C121.387 206.392 121.551 206.444 121.744 206.444C121.94 206.444 122.105 206.391 122.24 206.284C122.375 206.175 122.477 206.025 122.547 205.833C122.618 205.64 122.654 205.417 122.654 205.166C122.654 204.916 122.619 204.697 122.55 204.507C122.48 204.317 122.378 204.169 122.243 204.062C122.108 203.955 121.941 203.902 121.744 203.902C121.549 203.902 121.384 203.953 121.249 204.056C121.115 204.16 121.013 204.306 120.942 204.496C120.87 204.685 120.835 204.909 120.835 205.166ZM124.678 207.328V203.003H125.822V203.766H125.872C125.963 203.513 126.113 203.313 126.323 203.167C126.533 203.02 126.785 202.947 127.078 202.947C127.374 202.947 127.627 203.021 127.835 203.169C128.043 203.316 128.182 203.515 128.252 203.766H128.297C128.385 203.519 128.545 203.321 128.776 203.172C129.008 203.022 129.283 202.947 129.601 202.947C130.004 202.947 130.332 203.076 130.583 203.333C130.837 203.588 130.964 203.95 130.964 204.42V207.328H129.767V204.656C129.767 204.416 129.703 204.236 129.575 204.116C129.448 203.995 129.288 203.935 129.097 203.935C128.879 203.935 128.709 204.005 128.587 204.144C128.465 204.281 128.404 204.462 128.404 204.687V207.328H127.241V204.631C127.241 204.419 127.18 204.25 127.058 204.124C126.938 203.998 126.779 203.935 126.582 203.935C126.449 203.935 126.329 203.969 126.222 204.037C126.116 204.102 126.033 204.195 125.971 204.315C125.909 204.434 125.878 204.573 125.878 204.732V207.328H124.678ZM133.882 207.413C133.437 207.413 133.054 207.323 132.733 207.143C132.414 206.961 132.168 206.703 131.996 206.371C131.823 206.037 131.736 205.642 131.736 205.186C131.736 204.741 131.823 204.35 131.996 204.014C132.168 203.678 132.411 203.416 132.725 203.229C133.04 203.041 133.41 202.947 133.834 202.947C134.12 202.947 134.385 202.993 134.631 203.085C134.879 203.175 135.095 203.311 135.279 203.493C135.465 203.675 135.609 203.904 135.713 204.18C135.816 204.454 135.867 204.775 135.867 205.143V205.473H132.215V204.729H134.738C134.738 204.557 134.701 204.404 134.626 204.27C134.551 204.137 134.446 204.033 134.313 203.958C134.182 203.881 134.029 203.842 133.854 203.842C133.672 203.842 133.511 203.885 133.37 203.969C133.231 204.052 133.122 204.163 133.043 204.304C132.964 204.443 132.924 204.598 132.922 204.769V205.476C132.922 205.69 132.961 205.875 133.04 206.03C133.121 206.186 133.235 206.306 133.381 206.391C133.527 206.475 133.701 206.517 133.902 206.517C134.035 206.517 134.157 206.499 134.268 206.461C134.379 206.424 134.474 206.367 134.552 206.292C134.631 206.217 134.691 206.125 134.733 206.016L135.842 206.089C135.786 206.356 135.67 206.589 135.496 206.788C135.323 206.985 135.1 207.139 134.826 207.25C134.553 207.359 134.239 207.413 133.882 207.413ZM137.85 204.828V207.328H136.65V203.003H137.793V203.766H137.844C137.94 203.515 138.1 203.316 138.326 203.169C138.551 203.021 138.824 202.947 139.145 202.947C139.445 202.947 139.707 203.013 139.931 203.144C140.154 203.275 140.328 203.463 140.452 203.707C140.576 203.949 140.638 204.239 140.638 204.575V207.328H139.438V204.789C139.44 204.524 139.372 204.317 139.235 204.169C139.098 204.019 138.91 203.944 138.669 203.944C138.508 203.944 138.365 203.979 138.241 204.048C138.119 204.117 138.023 204.219 137.954 204.352C137.886 204.483 137.852 204.642 137.85 204.828ZM143.884 203.003V203.904H141.279V203.003H143.884ZM141.87 201.967H143.07V205.999C143.07 206.11 143.087 206.196 143.12 206.258C143.154 206.319 143.201 206.361 143.261 206.385C143.323 206.41 143.395 206.422 143.475 206.422C143.532 206.422 143.588 206.417 143.644 206.408C143.701 206.396 143.744 206.388 143.774 206.382L143.962 207.275C143.902 207.294 143.818 207.315 143.709 207.34C143.6 207.366 143.468 207.382 143.312 207.388C143.023 207.399 142.769 207.36 142.552 207.272C142.336 207.184 142.168 207.047 142.048 206.861C141.927 206.675 141.868 206.441 141.87 206.157V201.967ZM148.454 207.413C148.011 207.413 147.63 207.319 147.311 207.131C146.994 206.942 146.75 206.679 146.579 206.343C146.41 206.007 146.326 205.62 146.326 205.183C146.326 204.74 146.411 204.351 146.582 204.017C146.755 203.681 147 203.419 147.317 203.231C147.634 203.042 148.011 202.947 148.449 202.947C148.826 202.947 149.157 203.015 149.44 203.153C149.723 203.29 149.948 203.482 150.113 203.73C150.278 203.978 150.369 204.269 150.386 204.603H149.254C149.222 204.387 149.138 204.213 149.001 204.082C148.866 203.948 148.688 203.882 148.469 203.882C148.283 203.882 148.12 203.933 147.981 204.034C147.844 204.133 147.737 204.279 147.66 204.47C147.583 204.662 147.545 204.894 147.545 205.166C147.545 205.442 147.582 205.676 147.658 205.87C147.735 206.063 147.842 206.211 147.981 206.312C148.12 206.413 148.283 206.464 148.469 206.464C148.606 206.464 148.729 206.436 148.837 206.38C148.948 206.323 149.039 206.242 149.111 206.135C149.184 206.026 149.232 205.895 149.254 205.743H150.386C150.367 206.074 150.277 206.365 150.116 206.616C149.956 206.866 149.736 207.061 149.454 207.202C149.173 207.343 148.839 207.413 148.454 207.413ZM152.354 204.828V207.328H151.154V201.562H152.32V203.766H152.371C152.468 203.511 152.626 203.311 152.844 203.167C153.061 203.02 153.335 202.947 153.663 202.947C153.964 202.947 154.225 203.013 154.449 203.144C154.674 203.274 154.849 203.46 154.973 203.704C155.098 203.947 155.16 204.237 155.158 204.575V207.328H153.959V204.789C153.961 204.522 153.893 204.315 153.756 204.166C153.621 204.018 153.431 203.944 153.187 203.944C153.024 203.944 152.879 203.979 152.754 204.048C152.63 204.117 152.532 204.219 152.461 204.352C152.391 204.483 152.356 204.642 152.354 204.828ZM158.074 207.413C157.629 207.413 157.246 207.323 156.925 207.143C156.606 206.961 156.36 206.703 156.187 206.371C156.014 206.037 155.928 205.642 155.928 205.186C155.928 204.741 156.014 204.35 156.187 204.014C156.36 203.678 156.603 203.416 156.916 203.229C157.232 203.041 157.601 202.947 158.026 202.947C158.311 202.947 158.577 202.993 158.823 203.085C159.07 203.175 159.286 203.311 159.47 203.493C159.656 203.675 159.801 203.904 159.904 204.18C160.007 204.454 160.059 204.775 160.059 205.143V205.473H156.407V204.729H158.93C158.93 204.557 158.892 204.404 158.817 204.27C158.742 204.137 158.638 204.033 158.504 203.958C158.373 203.881 158.22 203.842 158.045 203.842C157.863 203.842 157.702 203.885 157.561 203.969C157.422 204.052 157.313 204.163 157.234 204.304C157.156 204.443 157.115 204.598 157.113 204.769V205.476C157.113 205.69 157.153 205.875 157.232 206.03C157.312 206.186 157.426 206.306 157.572 206.391C157.719 206.475 157.892 206.517 158.093 206.517C158.227 206.517 158.349 206.499 158.459 206.461C158.57 206.424 158.665 206.367 158.744 206.292C158.823 206.217 158.883 206.125 158.924 206.016L160.033 206.089C159.977 206.356 159.862 206.589 159.687 206.788C159.514 206.985 159.291 207.139 159.017 207.25C158.745 207.359 158.43 207.413 158.074 207.413ZM162.796 207.413C162.353 207.413 161.972 207.319 161.653 207.131C161.335 206.942 161.091 206.679 160.92 206.343C160.751 206.007 160.667 205.62 160.667 205.183C160.667 204.74 160.752 204.351 160.923 204.017C161.096 203.681 161.341 203.419 161.658 203.231C161.975 203.042 162.353 202.947 162.79 202.947C163.167 202.947 163.498 203.015 163.781 203.153C164.065 203.29 164.289 203.482 164.454 203.73C164.62 203.978 164.711 204.269 164.728 204.603H163.596C163.564 204.387 163.479 204.213 163.342 204.082C163.207 203.948 163.03 203.882 162.81 203.882C162.624 203.882 162.462 203.933 162.323 204.034C162.186 204.133 162.079 204.279 162.002 204.47C161.925 204.662 161.886 204.894 161.886 205.166C161.886 205.442 161.924 205.676 161.999 205.87C162.076 206.063 162.184 206.211 162.323 206.312C162.462 206.413 162.624 206.464 162.81 206.464C162.947 206.464 163.07 206.436 163.179 206.38C163.29 206.323 163.381 206.242 163.452 206.135C163.525 206.026 163.573 205.895 163.596 205.743H164.728C164.709 206.074 164.619 206.365 164.457 206.616C164.298 206.866 164.077 207.061 163.795 207.202C163.514 207.343 163.181 207.413 162.796 207.413ZM166.582 206.084L166.585 204.645H166.76L168.145 203.003H169.522L167.661 205.177H167.377L166.582 206.084ZM165.496 207.328V201.562H166.695V207.328H165.496ZM168.199 207.328L166.926 205.445L167.726 204.597L169.604 207.328H168.199ZM173.71 204.237L172.611 204.304C172.593 204.21 172.552 204.126 172.49 204.051C172.428 203.974 172.347 203.913 172.245 203.868C172.146 203.821 172.027 203.797 171.888 203.797C171.702 203.797 171.545 203.837 171.417 203.916C171.29 203.993 171.226 204.096 171.226 204.225C171.226 204.329 171.267 204.416 171.35 204.487C171.432 204.559 171.574 204.616 171.775 204.659L172.558 204.817C172.978 204.903 173.292 205.042 173.498 205.233C173.705 205.425 173.808 205.676 173.808 205.988C173.808 206.272 173.725 206.52 173.557 206.734C173.392 206.948 173.165 207.115 172.876 207.236C172.589 207.354 172.257 207.413 171.882 207.413C171.309 207.413 170.853 207.294 170.513 207.055C170.176 206.815 169.978 206.488 169.919 206.075L171.099 206.013C171.135 206.188 171.221 206.321 171.358 206.413C171.495 206.503 171.671 206.548 171.885 206.548C172.095 206.548 172.264 206.508 172.392 206.427C172.521 206.345 172.587 206.239 172.589 206.109C172.587 206 172.541 205.911 172.451 205.842C172.361 205.77 172.222 205.716 172.034 205.678L171.285 205.529C170.863 205.445 170.548 205.298 170.342 205.09C170.137 204.881 170.035 204.616 170.035 204.293C170.035 204.015 170.11 203.776 170.26 203.575C170.412 203.374 170.625 203.219 170.899 203.11C171.175 203.001 171.498 202.947 171.868 202.947C172.414 202.947 172.844 203.062 173.158 203.293C173.473 203.524 173.657 203.839 173.71 204.237Z" fill="#767676"/>
<circle cx="57.2417" cy="216.223" r="3.30398" fill="#6938EF"/>
<path d="M64.3508 219.223V213.456H68.2368V214.461H65.5701V215.835H68.0368V216.841H65.5701V218.218H68.248V219.223H64.3508ZM72.0417 220.845V218.53H72.0051C71.9488 218.65 71.869 218.769 71.7658 218.888C71.6644 219.004 71.5321 219.101 71.3687 219.178C71.2073 219.255 71.0102 219.293 70.7774 219.293C70.4489 219.293 70.1513 219.209 69.8848 219.04C69.6201 218.869 69.4098 218.618 69.254 218.288C69.1001 217.956 69.0231 217.548 69.0231 217.066C69.0231 216.57 69.1029 216.158 69.2625 215.83C69.422 215.499 69.6342 215.252 69.8989 215.089C70.1654 214.924 70.4573 214.841 70.7746 214.841C71.0168 214.841 71.2186 214.883 71.38 214.965C71.5433 215.046 71.6747 215.147 71.7742 215.269C71.8756 215.389 71.9526 215.508 72.0051 215.624H72.0558V214.898H73.2385V220.845H72.0417ZM71.1576 218.339C71.3509 218.339 71.5142 218.286 71.6475 218.181C71.7827 218.074 71.8859 217.925 71.9573 217.733C72.0305 217.542 72.0671 217.317 72.0671 217.06C72.0671 216.803 72.0314 216.58 71.9601 216.39C71.8888 216.2 71.7855 216.054 71.6503 215.951C71.5152 215.847 71.3509 215.796 71.1576 215.796C70.9604 215.796 70.7943 215.849 70.6591 215.956C70.524 216.063 70.4217 216.212 70.3522 216.401C70.2828 216.591 70.248 216.811 70.248 217.06C70.248 217.312 70.2828 217.534 70.3522 217.728C70.4235 217.919 70.5259 218.069 70.6591 218.178C70.7943 218.285 70.9604 218.339 71.1576 218.339ZM76.9752 217.381V214.898H78.1748V219.223H77.0231V218.437H76.978C76.8804 218.691 76.718 218.894 76.4909 219.048C76.2656 219.202 75.9906 219.279 75.6658 219.279C75.3767 219.279 75.1223 219.213 74.9027 219.082C74.6831 218.951 74.5113 218.764 74.3874 218.522C74.2654 218.279 74.2034 217.989 74.2015 217.652V214.898H75.4011V217.438C75.403 217.693 75.4715 217.895 75.6067 218.043C75.7418 218.191 75.923 218.265 76.1501 218.265C76.2947 218.265 76.4298 218.233 76.5556 218.167C76.6814 218.099 76.7828 218 76.8597 217.868C76.9386 217.737 76.9771 217.575 76.9752 217.381ZM79.1343 219.223V214.898H80.3339V219.223H79.1343ZM79.7369 214.34C79.5585 214.34 79.4055 214.281 79.2779 214.163C79.1521 214.043 79.0892 213.899 79.0892 213.732C79.0892 213.567 79.1521 213.425 79.2779 213.307C79.4055 213.186 79.5585 213.126 79.7369 213.126C79.9152 213.126 80.0673 213.186 80.1931 213.307C80.3207 213.425 80.3845 213.567 80.3845 213.732C80.3845 213.899 80.3207 214.043 80.1931 214.163C80.0673 214.281 79.9152 214.34 79.7369 214.34ZM81.2948 220.845V214.898H82.4774V215.624H82.531C82.5835 215.508 82.6595 215.389 82.759 215.269C82.8604 215.147 82.9918 215.046 83.1533 214.965C83.3166 214.883 83.5193 214.841 83.7615 214.841C84.0769 214.841 84.3679 214.924 84.6344 215.089C84.901 215.252 85.1141 215.499 85.2736 215.83C85.4332 216.158 85.513 216.57 85.513 217.066C85.513 217.548 85.4351 217.956 85.2793 218.288C85.1253 218.618 84.9151 218.869 84.6485 219.04C84.3838 219.209 84.0872 219.293 83.7587 219.293C83.5259 219.293 83.3278 219.255 83.1645 219.178C83.0031 219.101 82.8707 219.004 82.7675 218.888C82.6642 218.769 82.5854 218.65 82.531 218.53H82.4943V220.845H81.2948ZM82.469 217.06C82.469 217.317 82.5047 217.542 82.576 217.733C82.6473 217.925 82.7506 218.074 82.8858 218.181C83.0209 218.286 83.1852 218.339 83.3785 218.339C83.5738 218.339 83.739 218.285 83.8741 218.178C84.0093 218.069 84.1116 217.919 84.1811 217.728C84.2524 217.534 84.2881 217.312 84.2881 217.06C84.2881 216.811 84.2533 216.591 84.1839 216.401C84.1144 216.212 84.0121 216.063 83.8769 215.956C83.7418 215.849 83.5756 215.796 83.3785 215.796C83.1833 215.796 83.0181 215.847 82.8829 215.951C82.7497 216.054 82.6473 216.2 82.576 216.39C82.5047 216.58 82.469 216.803 82.469 217.06ZM86.3127 219.223V214.898H87.456V215.661H87.5066C87.5967 215.407 87.7469 215.207 87.9572 215.061C88.1674 214.914 88.419 214.841 88.7118 214.841C89.0084 214.841 89.2609 214.915 89.4693 215.064C89.6777 215.21 89.8166 215.409 89.8861 215.661H89.9311C90.0194 215.413 90.1789 215.215 90.4098 215.067C90.6426 214.916 90.9176 214.841 91.2349 214.841C91.6385 214.841 91.9661 214.97 92.2176 215.227C92.4711 215.482 92.5978 215.845 92.5978 216.314V219.223H91.401V216.551C91.401 216.31 91.3372 216.13 91.2095 216.01C91.0819 215.89 90.9223 215.83 90.7308 215.83C90.5131 215.83 90.3432 215.899 90.2212 216.038C90.0991 216.175 90.0381 216.356 90.0381 216.582V219.223H88.8752V216.525C88.8752 216.313 88.8141 216.144 88.6921 216.018C88.572 215.893 88.4134 215.83 88.2162 215.83C88.083 215.83 87.9628 215.863 87.8558 215.931C87.7507 215.997 87.6671 216.09 87.6052 216.21C87.5432 216.328 87.5123 216.467 87.5123 216.627V219.223H86.3127ZM95.5164 219.307C95.0715 219.307 94.6886 219.217 94.3676 219.037C94.0484 218.855 93.8025 218.598 93.6298 218.265C93.4571 217.931 93.3707 217.536 93.3707 217.08C93.3707 216.635 93.4571 216.245 93.6298 215.909C93.8025 215.572 94.0456 215.311 94.3591 215.123C94.6745 214.935 95.0443 214.841 95.4686 214.841C95.7539 214.841 96.0196 214.887 96.2655 214.979C96.5133 215.069 96.7292 215.205 96.9131 215.388C97.099 215.57 97.2435 215.799 97.3468 216.075C97.45 216.349 97.5017 216.67 97.5017 217.038V217.367H93.8494V216.624H96.3725C96.3725 216.451 96.3349 216.298 96.2598 216.165C96.1848 216.031 96.0806 215.927 95.9473 215.852C95.8159 215.775 95.6629 215.737 95.4883 215.737C95.3062 215.737 95.1447 215.779 95.004 215.863C94.865 215.946 94.7562 216.058 94.6773 216.199C94.5985 216.337 94.5581 216.492 94.5562 216.663V217.37C94.5562 217.584 94.5956 217.769 94.6745 217.925C94.7552 218.08 94.8688 218.201 95.0152 218.285C95.1616 218.37 95.3353 218.412 95.5362 218.412C95.6694 218.412 95.7915 218.393 95.9022 218.356C96.013 218.318 96.1078 218.262 96.1866 218.187C96.2655 218.111 96.3255 218.019 96.3668 217.911L97.4763 217.984C97.42 218.25 97.3045 218.483 97.13 218.682C96.9572 218.879 96.7339 219.033 96.4598 219.144C96.1876 219.253 95.8731 219.307 95.5164 219.307ZM99.484 216.722V219.223H98.2845V214.898H99.4277V215.661H99.4784C99.5741 215.409 99.7347 215.21 99.9599 215.064C100.185 214.915 100.458 214.841 100.779 214.841C101.08 214.841 101.342 214.907 101.565 215.038C101.788 215.17 101.962 215.358 102.086 215.602C102.21 215.844 102.272 216.133 102.272 216.469V219.223H101.072V216.683C101.074 216.418 101.006 216.212 100.869 216.063C100.732 215.913 100.544 215.838 100.303 215.838C100.142 215.838 99.9993 215.873 99.8754 215.942C99.7534 216.012 99.6577 216.113 99.5882 216.246C99.5206 216.378 99.4859 216.536 99.484 216.722ZM105.518 214.898V215.799H102.913V214.898H105.518ZM103.504 213.861H104.704V217.894C104.704 218.004 104.721 218.091 104.755 218.153C104.788 218.213 104.835 218.255 104.895 218.279C104.957 218.304 105.029 218.316 105.109 218.316C105.166 218.316 105.222 218.311 105.278 218.302C105.335 218.291 105.378 218.282 105.408 218.277L105.597 219.169C105.537 219.188 105.452 219.21 105.343 219.234C105.234 219.26 105.102 219.276 104.946 219.282C104.657 219.293 104.404 219.255 104.186 219.166C103.97 219.078 103.802 218.941 103.682 218.755C103.562 218.57 103.503 218.335 103.504 218.051V213.861ZM110.089 219.307C109.646 219.307 109.265 219.213 108.945 219.026C108.628 218.836 108.384 218.573 108.213 218.237C108.044 217.901 107.96 217.514 107.96 217.077C107.96 216.634 108.045 216.245 108.216 215.911C108.389 215.575 108.634 215.313 108.951 215.126C109.268 214.936 109.646 214.841 110.083 214.841C110.46 214.841 110.791 214.91 111.074 215.047C111.358 215.184 111.582 215.376 111.747 215.624C111.912 215.872 112.004 216.163 112.02 216.497H110.888C110.856 216.281 110.772 216.107 110.635 215.976C110.5 215.843 110.322 215.776 110.103 215.776C109.917 215.776 109.755 215.827 109.616 215.928C109.479 216.028 109.372 216.173 109.295 216.365C109.218 216.556 109.179 216.788 109.179 217.06C109.179 217.336 109.217 217.571 109.292 217.764C109.369 217.958 109.477 218.105 109.616 218.206C109.755 218.308 109.917 218.358 110.103 218.358C110.24 218.358 110.363 218.33 110.472 218.274C110.582 218.218 110.673 218.136 110.745 218.029C110.818 217.92 110.866 217.79 110.888 217.637H112.02C112.002 217.968 111.912 218.259 111.75 218.51C111.591 218.76 111.37 218.955 111.088 219.096C110.807 219.237 110.474 219.307 110.089 219.307ZM113.988 216.722V219.223H112.788V213.456H113.954V215.661H114.005C114.103 215.405 114.26 215.205 114.478 215.061C114.696 214.914 114.969 214.841 115.297 214.841C115.598 214.841 115.86 214.907 116.083 215.038C116.308 215.168 116.483 215.355 116.607 215.599C116.733 215.841 116.795 216.131 116.793 216.469V219.223H115.593V216.683C115.595 216.416 115.527 216.209 115.39 216.061C115.255 215.912 115.066 215.838 114.822 215.838C114.658 215.838 114.514 215.873 114.388 215.942C114.264 216.012 114.166 216.113 114.095 216.246C114.026 216.378 113.99 216.536 113.988 216.722ZM119.708 219.307C119.263 219.307 118.88 219.217 118.559 219.037C118.24 218.855 117.994 218.598 117.821 218.265C117.648 217.931 117.562 217.536 117.562 217.08C117.562 216.635 117.648 216.245 117.821 215.909C117.994 215.572 118.237 215.311 118.55 215.123C118.866 214.935 119.236 214.841 119.66 214.841C119.945 214.841 120.211 214.887 120.457 214.979C120.705 215.069 120.921 215.205 121.104 215.388C121.29 215.57 121.435 215.799 121.538 216.075C121.641 216.349 121.693 216.67 121.693 217.038V217.367H118.041V216.624H120.564C120.564 216.451 120.526 216.298 120.451 216.165C120.376 216.031 120.272 215.927 120.139 215.852C120.007 215.775 119.854 215.737 119.68 215.737C119.498 215.737 119.336 215.779 119.195 215.863C119.056 215.946 118.947 216.058 118.869 216.199C118.79 216.337 118.749 216.492 118.748 216.663V217.37C118.748 217.584 118.787 217.769 118.866 217.925C118.947 218.08 119.06 218.201 119.207 218.285C119.353 218.37 119.527 218.412 119.727 218.412C119.861 218.412 119.983 218.393 120.094 218.356C120.204 218.318 120.299 218.262 120.378 218.187C120.457 218.111 120.517 218.019 120.558 217.911L121.668 217.984C121.611 218.25 121.496 218.483 121.321 218.682C121.149 218.879 120.925 219.033 120.651 219.144C120.379 219.253 120.064 219.307 119.708 219.307ZM124.43 219.307C123.987 219.307 123.606 219.213 123.287 219.026C122.97 218.836 122.725 218.573 122.555 218.237C122.386 217.901 122.301 217.514 122.301 217.077C122.301 216.634 122.387 216.245 122.557 215.911C122.73 215.575 122.975 215.313 123.292 215.126C123.61 214.936 123.987 214.841 124.424 214.841C124.802 214.841 125.132 214.91 125.416 215.047C125.699 215.184 125.923 215.376 126.089 215.624C126.254 215.872 126.345 216.163 126.362 216.497H125.23C125.198 216.281 125.113 216.107 124.976 215.976C124.841 215.843 124.664 215.776 124.444 215.776C124.258 215.776 124.096 215.827 123.957 215.928C123.82 216.028 123.713 216.173 123.636 216.365C123.559 216.556 123.521 216.788 123.521 217.06C123.521 217.336 123.558 217.571 123.633 217.764C123.71 217.958 123.818 218.105 123.957 218.206C124.096 218.308 124.258 218.358 124.444 218.358C124.581 218.358 124.704 218.33 124.813 218.274C124.924 218.218 125.015 218.136 125.086 218.029C125.159 217.92 125.207 217.79 125.23 217.637H126.362C126.343 217.968 126.253 218.259 126.091 218.51C125.932 218.76 125.711 218.955 125.43 219.096C125.148 219.237 124.815 219.307 124.43 219.307ZM128.217 217.978L128.22 216.539H128.394L129.78 214.898H131.157L129.295 217.071H129.011L128.217 217.978ZM127.13 219.223V213.456H128.329V219.223H127.13ZM129.833 219.223L128.56 217.339L129.36 216.491L131.238 219.223H129.833ZM135.535 219.307C135.091 219.307 134.71 219.213 134.391 219.026C134.074 218.836 133.83 218.573 133.659 218.237C133.49 217.901 133.406 217.514 133.406 217.077C133.406 216.634 133.491 216.245 133.662 215.911C133.835 215.575 134.08 215.313 134.397 215.126C134.714 214.936 135.091 214.841 135.529 214.841C135.906 214.841 136.237 214.91 136.52 215.047C136.804 215.184 137.028 215.376 137.193 215.624C137.358 215.872 137.449 216.163 137.466 216.497H136.334C136.302 216.281 136.218 216.107 136.081 215.976C135.946 215.843 135.768 215.776 135.549 215.776C135.363 215.776 135.2 215.827 135.061 215.928C134.924 216.028 134.817 216.173 134.74 216.365C134.663 216.556 134.625 216.788 134.625 217.06C134.625 217.336 134.663 217.571 134.738 217.764C134.815 217.958 134.923 218.105 135.061 218.206C135.2 218.308 135.363 218.358 135.549 218.358C135.686 218.358 135.809 218.33 135.917 218.274C136.028 218.218 136.119 218.136 136.191 218.029C136.264 217.92 136.312 217.79 136.334 217.637H137.466C137.447 217.968 137.357 218.259 137.196 218.51C137.036 218.76 136.816 218.955 136.534 219.096C136.253 219.237 135.919 219.307 135.535 219.307ZM140.188 219.307C139.751 219.307 139.373 219.214 139.054 219.029C138.736 218.841 138.491 218.58 138.319 218.246C138.146 217.91 138.06 217.52 138.06 217.077C138.06 216.63 138.146 216.24 138.319 215.906C138.491 215.57 138.736 215.309 139.054 215.123C139.373 214.935 139.751 214.841 140.188 214.841C140.626 214.841 141.003 214.935 141.32 215.123C141.64 215.309 141.886 215.57 142.058 215.906C142.231 216.24 142.317 216.63 142.317 217.077C142.317 217.52 142.231 217.91 142.058 218.246C141.886 218.58 141.64 218.841 141.32 219.029C141.003 219.214 140.626 219.307 140.188 219.307ZM140.194 218.378C140.393 218.378 140.559 218.322 140.693 218.209C140.826 218.095 140.926 217.939 140.994 217.742C141.063 217.545 141.098 217.32 141.098 217.069C141.098 216.817 141.063 216.593 140.994 216.396C140.926 216.199 140.826 216.043 140.693 215.928C140.559 215.814 140.393 215.756 140.194 215.756C139.993 215.756 139.824 215.814 139.687 215.928C139.552 216.043 139.45 216.199 139.38 216.396C139.313 216.593 139.279 216.817 139.279 217.069C139.279 217.32 139.313 217.545 139.38 217.742C139.45 217.939 139.552 218.095 139.687 218.209C139.824 218.322 139.993 218.378 140.194 218.378ZM143.097 219.223V214.898H144.241V215.661H144.291C144.381 215.407 144.532 215.207 144.742 215.061C144.952 214.914 145.204 214.841 145.496 214.841C145.793 214.841 146.046 214.915 146.254 215.064C146.462 215.21 146.601 215.409 146.671 215.661H146.716C146.804 215.413 146.964 215.215 147.194 215.067C147.427 214.916 147.702 214.841 148.019 214.841C148.423 214.841 148.751 214.97 149.002 215.227C149.256 215.482 149.382 215.845 149.382 216.314V219.223H148.186V216.551C148.186 216.31 148.122 216.13 147.994 216.01C147.866 215.89 147.707 215.83 147.515 215.83C147.298 215.83 147.128 215.899 147.006 216.038C146.884 216.175 146.823 216.356 146.823 216.582V219.223H145.66V216.525C145.66 216.313 145.599 216.144 145.477 216.018C145.357 215.893 145.198 215.83 145.001 215.83C144.868 215.83 144.747 215.863 144.64 215.931C144.535 215.997 144.452 216.09 144.39 216.21C144.328 216.328 144.297 216.467 144.297 216.627V219.223H143.097ZM150.33 220.845V214.898H151.513V215.624H151.566C151.619 215.508 151.695 215.389 151.794 215.269C151.896 215.147 152.027 215.046 152.188 214.965C152.352 214.883 152.554 214.841 152.797 214.841C153.112 214.841 153.403 214.924 153.67 215.089C153.936 215.252 154.149 215.499 154.309 215.83C154.468 216.158 154.548 216.57 154.548 217.066C154.548 217.548 154.47 217.956 154.314 218.288C154.16 218.618 153.95 218.869 153.684 219.04C153.419 219.209 153.122 219.293 152.794 219.293C152.561 219.293 152.363 219.255 152.2 219.178C152.038 219.101 151.906 219.004 151.803 218.888C151.699 218.769 151.621 218.65 151.566 218.53H151.529V220.845H150.33ZM151.504 217.06C151.504 217.317 151.54 217.542 151.611 217.733C151.682 217.925 151.786 218.074 151.921 218.181C152.056 218.286 152.22 218.339 152.414 218.339C152.609 218.339 152.774 218.285 152.909 218.178C153.044 218.069 153.147 217.919 153.216 217.728C153.288 217.534 153.323 217.312 153.323 217.06C153.323 216.811 153.288 216.591 153.219 216.401C153.15 216.212 153.047 216.063 152.912 215.956C152.777 215.849 152.611 215.796 152.414 215.796C152.218 215.796 152.053 215.847 151.918 215.951C151.785 216.054 151.682 216.2 151.611 216.39C151.54 216.58 151.504 216.803 151.504 217.06ZM156.547 213.456V219.223H155.348V213.456H156.547ZM159.479 219.307C159.035 219.307 158.652 219.217 158.331 219.037C158.011 218.855 157.766 218.598 157.593 218.265C157.42 217.931 157.334 217.536 157.334 217.08C157.334 216.635 157.42 216.245 157.593 215.909C157.766 215.572 158.009 215.311 158.322 215.123C158.638 214.935 159.007 214.841 159.432 214.841C159.717 214.841 159.983 214.887 160.228 214.979C160.476 215.069 160.692 215.205 160.876 215.388C161.062 215.57 161.207 215.799 161.31 216.075C161.413 216.349 161.465 216.67 161.465 217.038V217.367H157.812V216.624H160.335C160.335 216.451 160.298 216.298 160.223 216.165C160.148 216.031 160.044 215.927 159.91 215.852C159.779 215.775 159.626 215.737 159.451 215.737C159.269 215.737 159.108 215.779 158.967 215.863C158.828 215.946 158.719 216.058 158.64 216.199C158.561 216.337 158.521 216.492 158.519 216.663V217.37C158.519 217.584 158.559 217.769 158.638 217.925C158.718 218.08 158.832 218.201 158.978 218.285C159.125 218.37 159.298 218.412 159.499 218.412C159.632 218.412 159.754 218.393 159.865 218.356C159.976 218.318 160.071 218.262 160.15 218.187C160.228 218.111 160.289 218.019 160.33 217.911L161.439 217.984C161.383 218.25 161.268 218.483 161.093 218.682C160.92 218.879 160.697 219.033 160.423 219.144C160.151 219.253 159.836 219.307 159.479 219.307ZM164.548 214.898V215.799H161.943V214.898H164.548ZM162.535 213.861H163.734V217.894C163.734 218.004 163.751 218.091 163.785 218.153C163.819 218.213 163.866 218.255 163.926 218.279C163.988 218.304 164.059 218.316 164.14 218.316C164.196 218.316 164.252 218.311 164.309 218.302C164.365 218.291 164.408 218.282 164.438 218.277L164.627 219.169C164.567 219.188 164.482 219.21 164.373 219.234C164.265 219.26 164.132 219.276 163.976 219.282C163.687 219.293 163.434 219.255 163.216 219.166C163 219.078 162.832 218.941 162.712 218.755C162.592 218.57 162.533 218.335 162.535 218.051V213.861ZM167.254 219.307C166.809 219.307 166.426 219.217 166.105 219.037C165.786 218.855 165.54 218.598 165.368 218.265C165.195 217.931 165.108 217.536 165.108 217.08C165.108 216.635 165.195 216.245 165.368 215.909C165.54 215.572 165.783 215.311 166.097 215.123C166.412 214.935 166.782 214.841 167.206 214.841C167.492 214.841 167.757 214.887 168.003 214.979C168.251 215.069 168.467 215.205 168.651 215.388C168.837 215.57 168.981 215.799 169.084 216.075C169.188 216.349 169.239 216.67 169.239 217.038V217.367H165.587V216.624H168.11C168.11 216.451 168.073 216.298 167.998 216.165C167.922 216.031 167.818 215.927 167.685 215.852C167.554 215.775 167.401 215.737 167.226 215.737C167.044 215.737 166.882 215.779 166.742 215.863C166.603 215.946 166.494 216.058 166.415 216.199C166.336 216.337 166.296 216.492 166.294 216.663V217.37C166.294 217.584 166.333 217.769 166.412 217.925C166.493 218.08 166.606 218.201 166.753 218.285C166.899 218.37 167.073 218.412 167.274 218.412C167.407 218.412 167.529 218.393 167.64 218.356C167.751 218.318 167.845 218.262 167.924 218.187C168.003 218.111 168.063 218.019 168.105 217.911L169.214 217.984C169.158 218.25 169.042 218.483 168.868 218.682C168.695 218.879 168.472 219.033 168.197 219.144C167.925 219.253 167.611 219.307 167.254 219.307ZM171.616 219.293C171.287 219.293 170.99 219.209 170.723 219.04C170.459 218.869 170.248 218.618 170.093 218.288C169.939 217.956 169.862 217.548 169.862 217.066C169.862 216.57 169.941 216.158 170.101 215.83C170.261 215.499 170.473 215.252 170.737 215.089C171.004 214.924 171.296 214.841 171.613 214.841C171.855 214.841 172.057 214.883 172.219 214.965C172.382 215.046 172.513 215.147 172.613 215.269C172.714 215.389 172.791 215.508 172.844 215.624H172.88V213.456H174.077V219.223H172.894V218.53H172.844C172.787 218.65 172.708 218.769 172.604 218.888C172.503 219.004 172.371 219.101 172.207 219.178C172.046 219.255 171.849 219.293 171.616 219.293ZM171.996 218.339C172.189 218.339 172.353 218.286 172.486 218.181C172.621 218.074 172.724 217.925 172.796 217.733C172.869 217.542 172.906 217.317 172.906 217.06C172.906 216.803 172.87 216.58 172.799 216.39C172.727 216.2 172.624 216.054 172.489 215.951C172.354 215.847 172.189 215.796 171.996 215.796C171.799 215.796 171.633 215.849 171.498 215.956C171.363 216.063 171.26 216.212 171.191 216.401C171.121 216.591 171.087 216.811 171.087 217.06C171.087 217.312 171.121 217.534 171.191 217.728C171.262 217.919 171.364 218.069 171.498 218.178C171.633 218.285 171.799 218.339 171.996 218.339Z" fill="#767676"/>
<rect x="46.1338" y="229.769" width="133.921" height="27.3392" rx="2.31279" fill="#D9D6FE"/>
<rect x="46.1338" y="229.769" width="133.921" height="27.3392" rx="2.31279" stroke="#9B8AFB" stroke-width="1.98239"/>
<path d="M100.064 246.939H97.6788V240.211H100.084C100.76 240.211 101.343 240.345 101.831 240.615C102.32 240.882 102.695 241.266 102.958 241.768C103.223 242.269 103.356 242.869 103.356 243.568C103.356 244.269 103.223 244.871 102.958 245.375C102.695 245.879 102.318 246.265 101.825 246.535C101.334 246.804 100.747 246.939 100.064 246.939ZM99.1013 245.72H100.005C100.425 245.72 100.779 245.645 101.066 245.497C101.355 245.345 101.572 245.112 101.716 244.797C101.863 244.479 101.936 244.07 101.936 243.568C101.936 243.071 101.863 242.665 101.716 242.349C101.572 242.034 101.356 241.802 101.069 241.653C100.782 241.504 100.429 241.429 100.008 241.429H99.1013V245.72ZM106.683 247.037C106.164 247.037 105.717 246.932 105.342 246.722C104.97 246.509 104.683 246.209 104.482 245.822C104.28 245.432 104.179 244.971 104.179 244.439C104.179 243.92 104.28 243.464 104.482 243.072C104.683 242.68 104.967 242.375 105.333 242.155C105.7 241.936 106.132 241.827 106.627 241.827C106.96 241.827 107.27 241.881 107.557 241.988C107.846 242.093 108.098 242.252 108.312 242.464C108.529 242.677 108.698 242.944 108.818 243.266C108.939 243.586 108.999 243.96 108.999 244.389V244.774H104.738V243.907H107.681C107.681 243.705 107.638 243.527 107.55 243.371C107.462 243.216 107.341 243.094 107.185 243.006C107.032 242.917 106.854 242.872 106.65 242.872C106.437 242.872 106.249 242.921 106.085 243.019C105.923 243.116 105.796 243.246 105.704 243.41C105.612 243.573 105.565 243.753 105.563 243.952V244.777C105.563 245.027 105.608 245.242 105.7 245.424C105.795 245.606 105.927 245.746 106.098 245.845C106.269 245.943 106.471 245.993 106.706 245.993C106.861 245.993 107.004 245.971 107.133 245.927C107.262 245.883 107.373 245.817 107.465 245.73C107.557 245.642 107.627 245.535 107.675 245.408L108.969 245.493C108.904 245.804 108.769 246.076 108.565 246.308C108.364 246.538 108.103 246.718 107.783 246.847C107.466 246.974 107.099 247.037 106.683 247.037ZM112.596 241.893V242.944H109.557V241.893H112.596ZM110.247 240.684H111.647V245.388C111.647 245.517 111.666 245.618 111.706 245.69C111.745 245.76 111.8 245.81 111.87 245.838C111.942 245.867 112.026 245.881 112.12 245.881C112.185 245.881 112.251 245.875 112.317 245.864C112.383 245.851 112.433 245.841 112.468 245.835L112.688 246.876C112.618 246.898 112.519 246.923 112.392 246.952C112.265 246.983 112.111 247.001 111.929 247.008C111.592 247.021 111.296 246.976 111.042 246.873C110.79 246.77 110.594 246.61 110.454 246.393C110.314 246.177 110.245 245.903 110.247 245.572V240.684ZM114.947 247.034C114.625 247.034 114.338 246.978 114.086 246.866C113.834 246.753 113.635 246.585 113.488 246.364C113.344 246.14 113.271 245.862 113.271 245.529C113.271 245.249 113.323 245.014 113.426 244.823C113.529 244.633 113.669 244.479 113.846 244.363C114.024 244.247 114.225 244.159 114.451 244.1C114.678 244.041 114.917 244 115.167 243.975C115.46 243.945 115.697 243.916 115.876 243.89C116.056 243.862 116.186 243.82 116.267 243.765C116.348 243.71 116.389 243.629 116.389 243.522V243.502C116.389 243.294 116.323 243.133 116.192 243.019C116.063 242.906 115.879 242.849 115.64 242.849C115.388 242.849 115.188 242.905 115.039 243.016C114.89 243.126 114.791 243.264 114.743 243.43L113.449 243.325C113.514 243.018 113.644 242.753 113.836 242.53C114.029 242.304 114.278 242.131 114.582 242.011C114.889 241.888 115.243 241.827 115.646 241.827C115.927 241.827 116.195 241.86 116.451 241.926C116.71 241.991 116.939 242.093 117.138 242.231C117.339 242.369 117.498 242.546 117.614 242.763C117.73 242.978 117.788 243.235 117.788 243.535V246.939H116.461V246.239H116.422C116.341 246.397 116.232 246.536 116.097 246.656C115.961 246.774 115.798 246.868 115.607 246.935C115.416 247.001 115.196 247.034 114.947 247.034ZM115.347 246.068C115.553 246.068 115.735 246.028 115.893 245.947C116.051 245.863 116.174 245.752 116.264 245.612C116.354 245.471 116.399 245.313 116.399 245.135V244.6C116.355 244.628 116.295 244.654 116.218 244.679C116.144 244.7 116.059 244.721 115.965 244.741C115.871 244.758 115.777 244.775 115.683 244.79C115.588 244.803 115.503 244.815 115.426 244.826C115.262 244.85 115.119 244.889 114.996 244.941C114.873 244.994 114.778 245.065 114.71 245.155C114.642 245.242 114.608 245.352 114.608 245.483C114.608 245.674 114.677 245.82 114.815 245.92C114.955 246.019 115.133 246.068 115.347 246.068ZM118.874 246.939V241.893H120.274V246.939H118.874ZM119.577 241.242C119.369 241.242 119.191 241.173 119.042 241.035C118.895 240.895 118.822 240.728 118.822 240.533C118.822 240.34 118.895 240.175 119.042 240.037C119.191 239.896 119.369 239.826 119.577 239.826C119.785 239.826 119.963 239.896 120.109 240.037C120.258 240.175 120.333 240.34 120.333 240.533C120.333 240.728 120.258 240.895 120.109 241.035C119.963 241.173 119.785 241.242 119.577 241.242ZM122.794 240.211V246.939H121.395V240.211H122.794ZM128.114 243.332L126.833 243.41C126.811 243.301 126.764 243.202 126.691 243.115C126.619 243.025 126.524 242.954 126.406 242.901C126.289 242.846 126.15 242.819 125.988 242.819C125.771 242.819 125.589 242.865 125.44 242.957C125.291 243.047 125.216 243.167 125.216 243.318C125.216 243.439 125.264 243.541 125.361 243.624C125.457 243.707 125.623 243.774 125.857 243.824L126.77 244.008C127.261 244.109 127.627 244.271 127.867 244.495C128.108 244.718 128.229 245.011 128.229 245.375C128.229 245.706 128.131 245.996 127.936 246.246C127.744 246.495 127.479 246.69 127.141 246.83C126.806 246.968 126.42 247.037 125.982 247.037C125.314 247.037 124.782 246.898 124.385 246.62C123.991 246.34 123.76 245.959 123.692 245.477L125.068 245.405C125.11 245.608 125.211 245.764 125.371 245.871C125.531 245.976 125.735 246.029 125.985 246.029C126.23 246.029 126.427 245.982 126.576 245.887C126.727 245.791 126.804 245.667 126.806 245.516C126.804 245.389 126.75 245.285 126.645 245.204C126.54 245.121 126.378 245.057 126.159 245.014L125.285 244.84C124.792 244.741 124.426 244.57 124.185 244.327C123.946 244.084 123.827 243.774 123.827 243.397C123.827 243.073 123.914 242.794 124.089 242.56C124.267 242.325 124.515 242.145 124.835 242.018C125.157 241.89 125.534 241.827 125.965 241.827C126.603 241.827 127.104 241.962 127.47 242.231C127.838 242.5 128.052 242.867 128.114 243.332Z" fill="#3E1C96"/>
<path d="M17.0193 170.708C16.6157 170.706 16.2684 170.607 15.9774 170.41C15.688 170.213 15.4651 169.927 15.3087 169.553C15.1538 169.179 15.0771 168.73 15.0787 168.204C15.0787 167.68 15.1561 167.233 15.311 166.864C15.4674 166.495 15.6904 166.214 15.9798 166.022C16.2708 165.828 16.6173 165.731 17.0193 165.731C17.4214 165.731 17.7671 165.828 18.0565 166.022C18.3475 166.216 18.5712 166.497 18.7276 166.866C18.8841 167.234 18.9615 167.68 18.9599 168.204C18.9599 168.731 18.8817 169.182 18.7253 169.556C18.5704 169.929 18.3483 170.215 18.0589 170.412C17.7694 170.609 17.4229 170.708 17.0193 170.708ZM17.0193 169.865C17.2946 169.865 17.5144 169.727 17.6787 169.45C17.843 169.173 17.9243 168.758 17.9227 168.204C17.9227 167.839 17.8852 167.536 17.8101 167.293C17.7366 167.051 17.6318 166.869 17.4957 166.747C17.3611 166.625 17.2024 166.564 17.0193 166.564C16.7455 166.564 16.5265 166.701 16.3623 166.974C16.198 167.248 16.1151 167.658 16.1135 168.204C16.1135 168.573 16.1503 168.881 16.2238 169.128C16.2989 169.374 16.4045 169.559 16.5406 169.682C16.6767 169.804 16.8363 169.865 17.0193 169.865ZM21.4397 170.668C21.108 170.668 20.8124 170.607 20.5527 170.485C20.2946 170.363 20.0896 170.195 19.9379 169.98C19.7861 169.766 19.7071 169.52 19.7009 169.243H20.6864C20.6974 169.43 20.7756 169.581 20.9211 169.696C21.0666 169.812 21.2394 169.87 21.4397 169.87C21.5993 169.87 21.74 169.835 21.8621 169.764C21.9857 169.692 22.0819 169.593 22.1507 169.466C22.2211 169.338 22.2563 169.191 22.2563 169.025C22.2563 168.856 22.2203 168.708 22.1483 168.579C22.078 168.451 21.9802 168.351 21.855 168.279C21.7299 168.207 21.5867 168.17 21.4256 168.169C21.2848 168.169 21.1479 168.198 21.015 168.256C20.8835 168.313 20.7811 168.392 20.7076 168.493L19.8041 168.331L20.0317 165.796H22.9697V166.627H20.8695L20.7451 167.831H20.7733C20.8577 167.712 20.9852 167.613 21.1557 167.535C21.3263 167.457 21.5171 167.418 21.7283 167.418C22.0177 167.418 22.2758 167.486 22.5027 167.622C22.7295 167.758 22.9086 167.945 23.04 168.183C23.1715 168.419 23.2364 168.691 23.2348 168.999C23.2364 169.323 23.1613 169.611 23.0095 169.863C22.8594 170.113 22.649 170.31 22.3783 170.454C22.1092 170.597 21.7964 170.668 21.4397 170.668Z" fill="#767676"/>
<path d="M17.2258 115.945V120.751H16.2097V116.91H16.1816L15.081 117.6V116.699L16.2708 115.945H17.2258ZM20.2523 120.857C19.8487 120.855 19.5014 120.756 19.2104 120.559C18.921 120.362 18.6981 120.076 18.5417 119.702C18.3868 119.328 18.3101 118.879 18.3117 118.353C18.3117 117.829 18.3891 117.382 18.544 117.013C18.7004 116.644 18.9234 116.363 19.2128 116.171C19.5038 115.977 19.8503 115.88 20.2523 115.88C20.6544 115.88 21.0001 115.977 21.2895 116.171C21.5805 116.365 21.8042 116.646 21.9606 117.015C22.1171 117.383 22.1945 117.829 22.1929 118.353C22.1929 118.88 22.1147 119.331 21.9583 119.705C21.8034 120.079 21.5813 120.364 21.2918 120.561C21.0024 120.758 20.6559 120.857 20.2523 120.857ZM20.2523 120.014C20.5276 120.014 20.7474 119.876 20.9117 119.599C21.076 119.322 21.1573 118.907 21.1557 118.353C21.1557 117.989 21.1182 117.685 21.0431 117.443C20.9696 117.2 20.8648 117.018 20.7287 116.896C20.5941 116.774 20.4353 116.713 20.2523 116.713C19.9785 116.713 19.7595 116.85 19.5953 117.123C19.431 117.397 19.3481 117.807 19.3465 118.353C19.3465 118.722 19.3833 119.03 19.4568 119.278C19.5319 119.523 19.6375 119.708 19.7736 119.831C19.9097 119.953 20.0693 120.014 20.2523 120.014Z" fill="#767676"/>
<path d="M17.2259 66.0947V70.9005H16.2098V67.0591H16.1817L15.0811 67.749V66.8479L16.2709 66.0947H17.2259ZM20.1233 70.9662C19.7917 70.9662 19.496 70.9051 19.2363 70.7831C18.9782 70.6611 18.7733 70.4929 18.6215 70.2786C18.4698 70.0643 18.3908 69.8187 18.3845 69.5418H19.3701C19.381 69.7279 19.4593 69.8789 19.6048 69.9947C19.7502 70.1104 19.9231 70.1683 20.1233 70.1683C20.2829 70.1683 20.4237 70.1331 20.5457 70.0627C20.6693 69.9908 20.7655 69.8914 20.8344 69.7647C20.9048 69.6364 20.94 69.4894 20.94 69.3236C20.94 69.1546 20.904 69.006 20.832 68.8777C20.7616 68.7494 20.6638 68.6493 20.5387 68.5773C20.4135 68.5054 20.2704 68.4686 20.1093 68.4671C19.9685 68.4671 19.8316 68.496 19.6986 68.5539C19.5672 68.6118 19.4647 68.6908 19.3912 68.7909L18.4878 68.629L18.7154 66.0947H21.6533V66.9253H19.5531L19.4288 68.1291H19.4569C19.5414 68.0102 19.6689 67.9117 19.8394 67.8335C20.0099 67.7553 20.2008 67.7161 20.412 67.7161C20.7014 67.7161 20.9595 67.7842 21.1863 67.9203C21.4132 68.0564 21.5923 68.2433 21.7237 68.4811C21.8551 68.7174 21.92 68.9896 21.9185 69.2977C21.92 69.6216 21.845 69.9094 21.6932 70.1613C21.543 70.4116 21.3326 70.6087 21.062 70.7526C20.7929 70.895 20.48 70.9662 20.1233 70.9662Z" fill="#767676"/>
<path d="M60.5804 175.641V180.447H59.5643V176.605H59.5362L58.4356 177.295V176.394L59.6253 175.641H60.5804ZM63.6069 180.552C63.2033 180.551 62.856 180.451 62.565 180.254C62.2756 180.057 62.0527 179.772 61.8962 179.398C61.7414 179.024 61.6647 178.574 61.6663 178.048C61.6663 177.524 61.7437 177.078 61.8986 176.709C62.055 176.339 62.278 176.059 62.5674 175.866C62.8583 175.672 63.2049 175.575 63.6069 175.575C64.0089 175.575 64.3547 175.672 64.6441 175.866C64.9351 176.06 65.1588 176.342 65.3152 176.711C65.4716 177.079 65.5491 177.524 65.5475 178.048C65.5475 178.576 65.4693 179.026 65.3129 179.4C65.158 179.774 64.9358 180.06 64.6464 180.257C64.357 180.454 64.0105 180.552 63.6069 180.552ZM63.6069 179.71C63.8822 179.71 64.102 179.571 64.2663 179.295C64.4305 179.018 64.5119 178.602 64.5103 178.048C64.5103 177.684 64.4728 177.381 64.3977 177.138C64.3242 176.896 64.2194 176.713 64.0833 176.591C63.9487 176.469 63.7899 176.408 63.6069 176.408C63.3331 176.408 63.1141 176.545 62.9499 176.819C62.7856 177.093 62.7027 177.503 62.7011 178.048C62.7011 178.418 62.7379 178.726 62.8114 178.973C62.8865 179.219 62.9921 179.403 63.1282 179.527C63.2643 179.649 63.4239 179.71 63.6069 179.71Z" fill="#767676"/>
<path d="M93.7552 175.641V180.447H92.7392V176.605H92.711L91.6105 177.295V176.394L92.8002 175.641H93.7552ZM96.9882 175.641V180.447H95.9722V176.605H95.944L94.8435 177.295V176.394L96.0332 175.641H96.9882Z" fill="#767676"/>
<path d="M125.344 175.641V180.447H124.328V176.605H124.3L123.199 177.295V176.394L124.389 175.641H125.344ZM126.486 180.447V179.715L128.197 178.131C128.343 177.99 128.465 177.863 128.563 177.75C128.663 177.638 128.739 177.528 128.791 177.42C128.842 177.31 128.868 177.192 128.868 177.065C128.868 176.924 128.836 176.803 128.772 176.702C128.708 176.598 128.62 176.519 128.509 176.465C128.398 176.408 128.272 176.38 128.131 176.38C127.984 176.38 127.856 176.41 127.746 176.469C127.637 176.529 127.552 176.614 127.493 176.725C127.434 176.836 127.404 176.968 127.404 177.122H126.439C126.439 176.807 126.511 176.534 126.653 176.303C126.795 176.071 126.995 175.892 127.251 175.765C127.508 175.639 127.804 175.575 128.138 175.575C128.483 175.575 128.782 175.636 129.037 175.758C129.294 175.879 129.493 176.046 129.635 176.26C129.778 176.475 129.849 176.72 129.849 176.997C129.849 177.179 129.813 177.358 129.741 177.535C129.671 177.711 129.545 177.908 129.363 178.124C129.182 178.338 128.926 178.595 128.596 178.896L127.894 179.583V179.616H129.912V180.447H126.486Z" fill="#767676"/>
<path d="M156.934 175.641V180.447H155.918V176.605H155.889L154.789 177.295V176.394L155.979 175.641H156.934ZM159.852 180.512C159.502 180.512 159.19 180.452 158.916 180.332C158.644 180.21 158.429 180.042 158.271 179.83C158.114 179.615 158.034 179.368 158.029 179.088H159.052C159.058 179.205 159.097 179.309 159.167 179.398C159.239 179.485 159.334 179.553 159.453 179.602C159.572 179.65 159.706 179.675 159.854 179.675C160.009 179.675 160.146 179.647 160.265 179.593C160.384 179.538 160.477 179.462 160.544 179.365C160.612 179.268 160.645 179.156 160.645 179.029C160.645 178.901 160.609 178.788 160.537 178.689C160.467 178.589 160.365 178.511 160.232 178.454C160.101 178.398 159.944 178.37 159.763 178.37H159.315V177.624H159.763C159.916 177.624 160.052 177.597 160.169 177.544C160.288 177.491 160.38 177.417 160.446 177.323C160.512 177.228 160.544 177.117 160.544 176.99C160.544 176.87 160.515 176.764 160.458 176.673C160.401 176.581 160.321 176.509 160.218 176.458C160.117 176.406 159.998 176.38 159.862 176.38C159.724 176.38 159.598 176.405 159.484 176.455C159.37 176.504 159.278 176.573 159.209 176.664C159.14 176.755 159.104 176.861 159.099 176.983H158.125C158.13 176.706 158.209 176.462 158.362 176.251C158.515 176.04 158.722 175.875 158.982 175.756C159.243 175.635 159.538 175.575 159.866 175.575C160.198 175.575 160.488 175.635 160.737 175.756C160.986 175.876 161.179 176.039 161.316 176.244C161.456 176.447 161.524 176.676 161.523 176.929C161.524 177.198 161.441 177.423 161.272 177.603C161.104 177.783 160.886 177.897 160.617 177.945V177.983C160.971 178.028 161.24 178.151 161.424 178.351C161.611 178.55 161.703 178.799 161.701 179.097C161.703 179.371 161.624 179.614 161.464 179.827C161.306 180.04 161.088 180.207 160.81 180.329C160.531 180.451 160.212 180.512 159.852 180.512Z" fill="#767676"/>
<path d="M189.315 175.641V180.447H188.299V176.605H188.271L187.171 177.295V176.394L188.36 175.641H189.315ZM190.385 179.602V178.802L192.391 175.641H193.081V176.748H192.673L191.408 178.75V178.788H194.259V179.602H190.385ZM192.692 180.447V179.358L192.71 179.004V175.641H193.663V180.447H192.692Z" fill="#767676"/>
<line opacity="0.5" x1="34.6358" y1="69.3595" x2="208.016" y2="69.3595" stroke="#B1B1B1" stroke-width="0.330398"/>
<line opacity="0.5" x1="34.6358" y1="119.571" x2="208.016" y2="119.571" stroke="#B1B1B1" stroke-width="0.330398"/>
<line opacity="0.5" x1="34.6358" y1="169.783" x2="208.016" y2="169.783" stroke="#B1B1B1" stroke-width="0.330398"/>
<rect x="60.5245" y="133.409" width="4.37607" height="35.289" rx="1.82336" fill="#98A2B3"/>
<rect x="64.4893" y="145.601" width="4.37607" height="23.0967" rx="1.82336" fill="#6938EF"/>
<rect x="92.5348" y="99.6007" width="4.37607" height="69.097" rx="1.82336" fill="#98A2B3"/>
<rect x="96.4995" y="123.474" width="4.37607" height="45.224" rx="1.82336" fill="#6938EF"/>
<rect x="124.545" y="123.474" width="4.37607" height="45.224" rx="1.82336" fill="#98A2B3"/>
<rect x="128.51" y="139.099" width="4.37607" height="29.5991" rx="1.82336" fill="#6938EF"/>
<rect x="156.555" y="110.045" width="4.37607" height="58.6526" rx="1.82336" fill="#98A2B3"/>
<rect x="160.521" y="130.31" width="4.37607" height="38.3881" rx="1.82336" fill="#6938EF"/>
<rect x="188.566" y="133.409" width="4.37607" height="35.289" rx="1.82336" fill="#98A2B3"/>
<rect x="192.53" y="145.601" width="4.37607" height="23.0967" rx="1.82336" fill="#6938EF"/>
<path d="M42.5203 28.3452C43.0013 28.3452 43.4176 28.413 43.7692 28.5487C44.1269 28.6844 44.4507 28.891 44.7406 29.1685L44.0375 29.9919C43.5996 29.6341 43.1309 29.4553 42.6313 29.4553C42.3661 29.4553 42.1564 29.5108 42.0022 29.6218C41.848 29.7267 41.7709 29.8808 41.7709 30.0844C41.7709 30.2262 41.8049 30.3434 41.8727 30.4359C41.9405 30.5223 42.0608 30.6055 42.2335 30.6857C42.4062 30.7659 42.6652 30.8615 43.0106 30.9725C43.6643 31.1822 44.1454 31.4412 44.4538 31.7496C44.7622 32.0518 44.9163 32.4835 44.9163 33.0447C44.9163 33.4456 44.8146 33.8002 44.611 34.1086C44.4075 34.4108 44.1146 34.6483 43.7322 34.821C43.3498 34.9875 42.8965 35.0707 42.3723 35.0707C41.848 35.0707 41.3824 34.9875 40.9753 34.821C40.5745 34.6544 40.2291 34.4324 39.9392 34.1549L40.7071 33.313C40.9538 33.5227 41.2066 33.68 41.4657 33.7848C41.7309 33.8897 42.0176 33.9421 42.326 33.9421C42.6406 33.9421 42.8873 33.8743 43.0661 33.7386C43.2511 33.5967 43.3436 33.4024 43.3436 33.1557C43.3436 32.9954 43.3097 32.8628 43.2419 32.7579C43.174 32.6469 43.0569 32.5483 42.8903 32.4619C42.7238 32.3756 42.4833 32.2831 42.1687 32.1844C41.4595 31.9685 40.9538 31.7033 40.6516 31.3888C40.3555 31.0742 40.2075 30.6764 40.2075 30.1954C40.2075 29.8253 40.3062 29.5015 40.5035 29.224C40.7009 28.9403 40.9753 28.7244 41.3269 28.5764C41.6784 28.4222 42.0762 28.3452 42.5203 28.3452ZM49.6276 33.4888C49.6276 33.6738 49.6523 33.8095 49.7016 33.8958C49.7571 33.9822 49.8435 34.0469 49.9607 34.0901L49.6554 35.043C49.3532 35.0183 49.1065 34.9536 48.9153 34.8487C48.7241 34.7377 48.5761 34.565 48.4712 34.3306C48.1505 34.824 47.6571 35.0707 46.9911 35.0707C46.5038 35.0707 46.1153 34.9289 45.8254 34.6452C45.5355 34.3615 45.3906 33.9914 45.3906 33.535C45.3906 32.9985 45.588 32.5883 45.9827 32.3046C46.3774 32.0209 46.9479 31.8791 47.6941 31.8791H48.1937V31.6663C48.1937 31.3764 48.132 31.1791 48.0087 31.0742C47.8853 30.9632 47.6695 30.9077 47.3611 30.9077C47.2007 30.9077 47.0065 30.9324 46.7783 30.9817C46.5501 31.0249 46.3157 31.0866 46.0752 31.1668L45.7421 30.2046C46.0505 30.0875 46.3651 29.998 46.6858 29.9363C47.0126 29.8747 47.3148 29.8438 47.5924 29.8438C48.2955 29.8438 48.8104 29.9888 49.1373 30.2786C49.4642 30.5685 49.6276 31.0033 49.6276 31.5831V33.4888ZM47.4166 34.0254C47.7496 34.0254 48.0087 33.8681 48.1937 33.5535V32.6839H47.8329C47.4999 32.6839 47.2501 32.7425 47.0836 32.8597C46.9232 32.9769 46.843 33.1588 46.843 33.4055C46.843 33.6029 46.8924 33.7571 46.9911 33.8681C47.0959 33.9729 47.2377 34.0254 47.4166 34.0254ZM53.0399 28.9742C52.8302 28.9742 52.6791 29.0236 52.5866 29.1222C52.4941 29.2209 52.4479 29.3874 52.4479 29.6218V30.0011H53.6042L53.447 31.0187H52.4479V34.9135H50.9862V31.0187H50.2461V30.0011H50.9862V29.5663C50.9862 29.0729 51.1465 28.672 51.4672 28.3637C51.7941 28.0491 52.2597 27.8918 52.8642 27.8918C53.3514 27.8918 53.7985 27.9967 54.2056 28.2064L53.8078 29.1593C53.5611 29.0359 53.3051 28.9742 53.0399 28.9742ZM58.2824 32.3602C58.2824 32.5637 58.2731 32.7394 58.2546 32.8875H55.211C55.2603 33.3007 55.3775 33.5906 55.5625 33.7571C55.7476 33.9236 56.0035 34.0069 56.3304 34.0069C56.5277 34.0069 56.7189 33.9729 56.9039 33.9051C57.089 33.8311 57.2894 33.7201 57.5053 33.5721L58.1066 34.3862C57.533 34.8425 56.8947 35.0707 56.1916 35.0707C55.396 35.0707 54.7854 34.8364 54.3599 34.3676C53.9343 33.8989 53.7216 33.2698 53.7216 32.4804C53.7216 31.9809 53.811 31.5337 53.9898 31.139C54.1687 30.7381 54.4308 30.4236 54.7762 30.1954C55.1216 29.961 55.5348 29.8438 56.0158 29.8438C56.7251 29.8438 57.2802 30.0659 57.681 30.5099C58.0819 30.954 58.2824 31.5707 58.2824 32.3602ZM56.8484 31.9438C56.8361 31.1914 56.5709 30.8152 56.0528 30.8152C55.8 30.8152 55.6026 30.9077 55.4608 31.0927C55.3251 31.2778 55.2418 31.5831 55.211 32.0086H56.8484V31.9438ZM62.1841 34.6822C62.0053 34.8055 61.7956 34.9011 61.555 34.969C61.3207 35.0368 61.0863 35.0707 60.8519 35.0707C59.7788 35.0646 59.2422 34.4725 59.2422 33.2945V31.0187H58.5484V30.0011H59.2422V28.9372L60.7039 28.7707V30.0011H61.8326L61.6753 31.0187H60.7039V33.276C60.7039 33.5042 60.7409 33.6676 60.8149 33.7663C60.889 33.865 61.0061 33.9143 61.1665 33.9143C61.333 33.9143 61.5088 33.8619 61.6938 33.7571L62.1841 34.6822ZM65.3375 34.9227C65.1401 35.558 64.8163 36.0452 64.3661 36.3844C63.922 36.7298 63.3238 36.9241 62.5714 36.9672L62.4141 35.9403C62.8828 35.8787 63.2282 35.7738 63.4502 35.6258C63.6784 35.4778 63.8604 35.2403 63.996 34.9135H63.4965L61.9978 30.0011H63.552L64.4308 33.9791L65.393 30.0011H66.9009L65.3375 34.9227ZM73.5699 28.5024L73.4126 29.5848H71.1553V31.1205H73.1258V32.1844H71.1553V33.8218H73.5699V34.9135H69.6382V28.5024H73.5699ZM78.7028 30.0011V36.9672L77.2411 36.81V34.4417C76.9142 34.861 76.4794 35.0707 75.9367 35.0707C75.3261 35.0707 74.8605 34.8364 74.5397 34.3676C74.2252 33.8989 74.0679 33.2575 74.0679 32.4434C74.0679 31.9377 74.1512 31.4905 74.3177 31.102C74.4842 30.7073 74.7186 30.3989 75.0208 30.1769C75.3292 29.9549 75.6838 29.8438 76.0847 29.8438C76.5842 29.8438 77.0067 30.0381 77.3521 30.4267L77.4261 30.0011H78.7028ZM76.39 33.9976C76.7292 33.9976 77.0129 33.8126 77.2411 33.4425V31.324C77.1239 31.1822 77.0067 31.0773 76.8895 31.0095C76.7724 30.9416 76.6367 30.9077 76.4825 30.9077C76.205 30.9077 75.986 31.0342 75.8257 31.287C75.6653 31.5337 75.5851 31.9223 75.5851 32.4527C75.5851 33.0262 75.653 33.4271 75.7886 33.6553C75.9305 33.8835 76.1309 33.9976 76.39 33.9976ZM83.9908 34.9135H82.7234L82.6586 34.2936C82.3009 34.8117 81.8044 35.0707 81.1692 35.0707C80.719 35.0707 80.3767 34.9351 80.1423 34.6637C79.9141 34.3923 79.8 34.013 79.8 33.5258V30.0011H81.2617V33.3408C81.2617 33.5813 81.2987 33.7509 81.3727 33.8496C81.4529 33.9421 81.5732 33.9884 81.7335 33.9884C82.0419 33.9884 82.3071 33.7972 82.5291 33.4148V30.0011H83.9908V34.9135ZM86.6021 30.0011V34.9135H85.1404V30.0011H86.6021ZM85.862 27.4108C86.1149 27.4108 86.3215 27.491 86.4818 27.6513C86.6483 27.8055 86.7316 28.0029 86.7316 28.2434C86.7316 28.4839 86.6483 28.6844 86.4818 28.8447C86.3215 28.9989 86.1149 29.076 85.862 29.076C85.6091 29.076 85.4025 28.9989 85.2422 28.8447C85.0818 28.6844 85.0016 28.4839 85.0016 28.2434C85.0016 28.0029 85.0818 27.8055 85.2422 27.6513C85.4025 27.491 85.6091 27.4108 85.862 27.4108ZM90.5267 29.8438C91.1434 29.8438 91.6029 30.072 91.9051 30.5284C92.2073 30.9848 92.3584 31.6231 92.3584 32.4434C92.3584 32.9491 92.2782 33.4024 92.1179 33.8033C91.9637 34.198 91.7386 34.5095 91.4425 34.7377C91.1465 34.9597 90.8011 35.0707 90.4064 35.0707C89.913 35.0707 89.5152 34.9011 89.213 34.5619V36.81L87.7513 36.9672V30.0011H89.0372L89.1112 30.5469C89.3024 30.3064 89.5214 30.1306 89.7681 30.0196C90.0148 29.9024 90.2676 29.8438 90.5267 29.8438ZM89.9623 33.9976C90.5483 33.9976 90.8412 33.4857 90.8412 32.4619C90.8412 31.8822 90.7765 31.4813 90.6469 31.2593C90.5174 31.0311 90.3231 30.917 90.0641 30.917C89.8976 30.917 89.7403 30.9663 89.5923 31.065C89.4505 31.1637 89.324 31.3055 89.213 31.4905V33.5628C89.4104 33.8527 89.6601 33.9976 89.9623 33.9976ZM98.7017 29.8438C99.0903 29.8438 99.4017 29.9764 99.6361 30.2416C99.8705 30.5007 99.9876 30.8615 99.9876 31.324V34.9135H98.526V31.5738C98.526 31.1359 98.3872 30.917 98.1096 30.917C97.9555 30.917 97.8198 30.9694 97.7026 31.0742C97.5854 31.1791 97.4713 31.3394 97.3603 31.5553V34.9135H95.8986V31.5738C95.8986 31.1359 95.7599 30.917 95.4823 30.917C95.3343 30.917 95.1986 30.9725 95.0753 31.0835C94.9581 31.1883 94.844 31.3456 94.733 31.5553V34.9135H93.2713V30.0011H94.548L94.6497 30.5747C94.8409 30.328 95.0506 30.146 95.2788 30.0289C95.5132 29.9055 95.7784 29.8438 96.0744 29.8438C96.3519 29.8438 96.5894 29.9117 96.7867 30.0474C96.9903 30.183 97.1383 30.3742 97.2308 30.6209C97.4281 30.3557 97.644 30.1615 97.8784 30.0381C98.1189 29.9086 98.3934 29.8438 98.7017 29.8438ZM105.369 32.3602C105.369 32.5637 105.36 32.7394 105.342 32.8875H102.298C102.347 33.3007 102.464 33.5906 102.649 33.7571C102.834 33.9236 103.09 34.0069 103.417 34.0069C103.615 34.0069 103.806 33.9729 103.991 33.9051C104.176 33.8311 104.376 33.7201 104.592 33.5721L105.193 34.3862C104.62 34.8425 103.982 35.0707 103.279 35.0707C102.483 35.0707 101.872 34.8364 101.447 34.3676C101.021 33.8989 100.808 33.2698 100.808 32.4804C100.808 31.9809 100.898 31.5337 101.077 31.139C101.256 30.7381 101.518 30.4236 101.863 30.1954C102.208 29.961 102.622 29.8438 103.103 29.8438C103.812 29.8438 104.367 30.0659 104.768 30.5099C105.169 30.954 105.369 31.5707 105.369 32.3602ZM103.935 31.9438C103.923 31.1914 103.658 30.8152 103.14 30.8152C102.887 30.8152 102.69 30.9077 102.548 31.0927C102.412 31.2778 102.329 31.5831 102.298 32.0086H103.935V31.9438ZM109.067 29.8438C109.493 29.8438 109.826 29.9734 110.067 30.2324C110.307 30.4914 110.427 30.8553 110.427 31.324V34.9135H108.966V31.5738C108.966 31.3271 108.926 31.1575 108.845 31.065C108.771 30.9663 108.657 30.917 108.503 30.917C108.207 30.917 107.923 31.1297 107.652 31.5553V34.9135H106.19V30.0011H107.467L107.569 30.5839C107.778 30.3372 108.004 30.1522 108.244 30.0289C108.491 29.9055 108.765 29.8438 109.067 29.8438ZM114.61 34.6822C114.431 34.8055 114.222 34.9011 113.981 34.969C113.747 35.0368 113.513 35.0707 113.278 35.0707C112.205 35.0646 111.668 34.4725 111.668 33.2945V31.0187H110.975V30.0011H111.668V28.9372L113.13 28.7707V30.0011H114.259L114.101 31.0187H113.13V33.276C113.13 33.5042 113.167 33.6676 113.241 33.7663C113.315 33.865 113.432 33.9143 113.593 33.9143C113.759 33.9143 113.935 33.8619 114.12 33.7571L114.61 34.6822ZM119.939 28.3452C120.34 28.3452 120.695 28.4037 121.003 28.5209C121.318 28.6381 121.614 28.8139 121.891 29.0482L121.17 29.9086C120.979 29.7606 120.79 29.6496 120.605 29.5756C120.42 29.5015 120.223 29.4645 120.013 29.4645C119.582 29.4645 119.239 29.6465 118.987 30.0104C118.74 30.3742 118.616 30.9355 118.616 31.6941C118.616 32.4403 118.74 32.9954 118.987 33.3593C119.239 33.717 119.588 33.8958 120.032 33.8958C120.266 33.8958 120.479 33.8527 120.67 33.7663C120.861 33.6738 121.068 33.5443 121.29 33.3778L121.965 34.2474C121.725 34.4879 121.432 34.6853 121.087 34.8395C120.747 34.9936 120.371 35.0707 119.958 35.0707C119.366 35.0707 118.851 34.9412 118.413 34.6822C117.975 34.4232 117.633 34.0408 117.386 33.535C117.146 33.0231 117.025 32.4095 117.025 31.6941C117.025 30.9971 117.149 30.3958 117.395 29.8901C117.648 29.3844 117.994 29.002 118.431 28.743C118.876 28.4778 119.378 28.3452 119.939 28.3452ZM125.402 29.8438C125.827 29.8438 126.16 29.9734 126.401 30.2324C126.641 30.4914 126.761 30.8553 126.761 31.324V34.9135H125.3V31.5738C125.3 31.3271 125.26 31.1575 125.18 31.065C125.099 30.9663 124.985 30.917 124.837 30.917C124.541 30.917 124.257 31.1267 123.986 31.546V34.9135H122.524V28.0491L123.986 27.9011V30.5284C124.19 30.3002 124.406 30.1306 124.634 30.0196C124.862 29.9024 125.118 29.8438 125.402 29.8438ZM132.147 32.3602C132.147 32.5637 132.138 32.7394 132.119 32.8875H129.076C129.125 33.3007 129.242 33.5906 129.427 33.7571C129.612 33.9236 129.868 34.0069 130.195 34.0069C130.392 34.0069 130.584 33.9729 130.769 33.9051C130.954 33.8311 131.154 33.7201 131.37 33.5721L131.971 34.3862C131.398 34.8425 130.759 35.0707 130.056 35.0707C129.261 35.0707 128.65 34.8364 128.225 34.3676C127.799 33.8989 127.586 33.2698 127.586 32.4804C127.586 31.9809 127.676 31.5337 127.854 31.139C128.033 30.7381 128.295 30.4236 128.641 30.1954C128.986 29.961 129.399 29.8438 129.88 29.8438C130.59 29.8438 131.145 30.0659 131.546 30.5099C131.947 30.954 132.147 31.5707 132.147 32.3602ZM130.713 31.9438C130.701 31.1914 130.436 30.8152 129.917 30.8152C129.665 30.8152 129.467 30.9077 129.325 31.0927C129.19 31.2778 129.106 31.5831 129.076 32.0086H130.713V31.9438ZM135.096 29.8438C135.435 29.8438 135.74 29.8932 136.012 29.9919C136.283 30.0905 136.539 30.2416 136.78 30.4452L136.151 31.3148C135.842 31.0804 135.531 30.9632 135.216 30.9632C134.889 30.9632 134.643 31.0835 134.476 31.324C134.31 31.5646 134.226 31.9531 134.226 32.4897C134.226 33.0077 134.31 33.3747 134.476 33.5906C134.643 33.8064 134.883 33.9143 135.198 33.9143C135.364 33.9143 135.515 33.8897 135.651 33.8403C135.787 33.7848 135.95 33.6985 136.141 33.5813L136.78 34.4879C136.292 34.8765 135.74 35.0707 135.124 35.0707C134.624 35.0707 134.192 34.9659 133.828 34.7562C133.465 34.5403 133.184 34.2412 132.987 33.8588C132.789 33.4703 132.691 33.017 132.691 32.4989C132.691 31.9809 132.789 31.5214 132.987 31.1205C133.184 30.7196 133.465 30.4082 133.828 30.1861C134.192 29.9579 134.615 29.8438 135.096 29.8438ZM138.857 27.8918V34.9135H137.395V28.0491L138.857 27.8918ZM141.891 30.0011L140.402 32.1566L142.011 34.9135H140.365L138.903 32.2306L140.402 30.0011H141.891ZM147.313 28.3452C148.226 28.3452 148.935 28.6381 149.441 29.224C149.952 29.8099 150.208 30.6364 150.208 31.7033C150.208 32.4002 150.091 33.0016 149.857 33.5073C149.629 34.013 149.296 34.4016 148.858 34.6729C148.426 34.9381 147.911 35.0707 147.313 35.0707C146.715 35.0707 146.2 34.9381 145.768 34.6729C145.336 34.4077 145.003 34.0254 144.769 33.5258C144.54 33.0201 144.426 32.4126 144.426 31.7033C144.426 31.0126 144.54 30.4143 144.769 29.9086C145.003 29.4029 145.336 29.0174 145.768 28.7522C146.2 28.4808 146.715 28.3452 147.313 28.3452ZM147.313 29.4553C146.875 29.4553 146.548 29.6341 146.332 29.9919C146.122 30.3434 146.018 30.9139 146.018 31.7033C146.018 32.4927 146.126 33.0663 146.341 33.424C146.557 33.7817 146.881 33.9606 147.313 33.9606C147.757 33.9606 148.084 33.7848 148.293 33.4333C148.509 33.0756 148.617 32.4989 148.617 31.7033C148.617 30.9077 148.509 30.3341 148.293 29.9826C148.078 29.6311 147.751 29.4553 147.313 29.4553ZM155.319 30.0011L153.774 34.9135H152.044L150.462 30.0011H152.053L152.923 33.8033L153.829 30.0011H155.319ZM160.045 32.3602C160.045 32.5637 160.036 32.7394 160.017 32.8875H156.974C157.023 33.3007 157.14 33.5906 157.325 33.7571C157.51 33.9236 157.766 34.0069 158.093 34.0069C158.29 34.0069 158.482 33.9729 158.667 33.9051C158.852 33.8311 159.052 33.7201 159.268 33.5721L159.869 34.3862C159.296 34.8425 158.657 35.0707 157.954 35.0707C157.159 35.0707 156.548 34.8364 156.123 34.3676C155.697 33.8989 155.484 33.2698 155.484 32.4804C155.484 31.9809 155.574 31.5337 155.752 31.139C155.931 30.7381 156.193 30.4236 156.539 30.1954C156.884 29.961 157.297 29.8438 157.778 29.8438C158.488 29.8438 159.043 30.0659 159.444 30.5099C159.845 30.954 160.045 31.5707 160.045 32.3602ZM158.611 31.9438C158.599 31.1914 158.334 30.8152 157.815 30.8152C157.563 30.8152 157.365 30.9077 157.223 31.0927C157.088 31.2778 157.004 31.5831 156.974 32.0086H158.611V31.9438ZM163.53 29.8623C163.709 29.8623 163.873 29.8839 164.021 29.9271L163.789 31.3425C163.604 31.2994 163.456 31.2778 163.345 31.2778C163.056 31.2778 162.834 31.3795 162.679 31.5831C162.531 31.7804 162.414 32.0795 162.328 32.4804V34.9135H160.866V30.0011H162.143L162.263 30.954C162.374 30.6148 162.541 30.3496 162.763 30.1584C162.991 29.961 163.247 29.8623 163.53 29.8623ZM168.807 30.0011L167.262 34.9135H165.532L163.95 30.0011H165.541L166.411 33.8033L167.318 30.0011H168.807ZM170.784 30.0011V34.9135H169.322V30.0011H170.784ZM170.044 27.4108C170.297 27.4108 170.503 27.491 170.664 27.6513C170.83 27.8055 170.913 28.0029 170.913 28.2434C170.913 28.4839 170.83 28.6844 170.664 28.8447C170.503 28.9989 170.297 29.076 170.044 29.076C169.791 29.076 169.584 28.9989 169.424 28.8447C169.264 28.6844 169.183 28.4839 169.183 28.2434C169.183 28.0029 169.264 27.8055 169.424 27.6513C169.584 27.491 169.791 27.4108 170.044 27.4108ZM176.216 32.3602C176.216 32.5637 176.207 32.7394 176.189 32.8875H173.145C173.194 33.3007 173.312 33.5906 173.497 33.7571C173.682 33.9236 173.938 34.0069 174.264 34.0069C174.462 34.0069 174.653 33.9729 174.838 33.9051C175.023 33.8311 175.224 33.7201 175.439 33.5721L176.041 34.3862C175.467 34.8425 174.829 35.0707 174.126 35.0707C173.33 35.0707 172.72 34.8364 172.294 34.3676C171.868 33.8989 171.656 33.2698 171.656 32.4804C171.656 31.9809 171.745 31.5337 171.924 31.139C172.103 30.7381 172.365 30.4236 172.71 30.1954C173.056 29.961 173.469 29.8438 173.95 29.8438C174.659 29.8438 175.214 30.0659 175.615 30.5099C176.016 30.954 176.216 31.5707 176.216 32.3602ZM174.783 31.9438C174.77 31.1914 174.505 30.8152 173.987 30.8152C173.734 30.8152 173.537 30.9077 173.395 31.0927C173.259 31.2778 173.176 31.5831 173.145 32.0086H174.783V31.9438ZM183.347 30.0011L182.329 34.9135H180.581L179.924 31.3055L179.276 34.9135H177.546L176.501 30.0011H177.981L178.49 33.8218L179.258 30.0011H180.683L181.358 33.8218L181.95 30.0011H183.347Z" fill="#2E2E30"/>
</g>
<defs>
<filter id="filter0_d_1081_5591" x="0.869083" y="0.803226" width="224.142" height="274.891" filterUnits="userSpaceOnUse" color-interpolation-filters="sRGB">
<feFlood flood-opacity="0" result="BackgroundImageFix"/>
<feColorMatrix in="SourceAlpha" type="matrix" values="0 0 0 0 0 0 0 0 0 0 0 0 0 0 0 0 0 0 127 0" result="hardAlpha"/>
<feOffset/>
<feGaussianBlur stdDeviation="1.32159"/>
<feComposite in2="hardAlpha" operator="out"/>
<feColorMatrix type="matrix" values="0 0 0 0 0 0 0 0 0 0 0 0 0 0 0 0 0 0 0.25 0"/>
<feBlend mode="normal" in2="BackgroundImageFix" result="effect1_dropShadow_1081_5591"/>
<feBlend mode="normal" in="SourceGraphic" in2="effect1_dropShadow_1081_5591" result="shape"/>
</filter>
</defs>
</svg>
