<svg width="235" height="243" viewBox="0 0 235 243" fill="none" xmlns="http://www.w3.org/2000/svg">
<rect x="0.804031" y="0.330398" width="233.261" height="241.851" rx="6.27757" fill="white" stroke="#E4E7EC" stroke-width="0.660796"/>
<mask id="path-2-outside-1_1195_3373" maskUnits="userSpaceOnUse" x="95.9502" y="15.5375" width="40" height="11" fill="black">
<rect fill="white" x="95.9502" y="15.5375" width="40" height="11"/>
<path d="M103.759 23.5375H102.566L102.399 20.864C102.344 19.908 102.316 19.1494 102.316 18.5882V18.2551L101.15 22.8437H99.9938L98.7542 18.2459C98.7665 18.6529 98.7727 18.9613 98.7727 19.171C98.7727 19.7322 98.7542 20.3089 98.7172 20.901L98.5599 23.5375H97.3757L97.8846 17.145H99.4573L100.595 21.6225L101.668 17.145H103.259L103.759 23.5375ZM108.516 22.2424C108.516 22.4336 108.544 22.5754 108.599 22.6679C108.661 22.7543 108.757 22.8221 108.886 22.8715L108.636 23.6578C108.359 23.6331 108.131 23.5653 107.952 23.4543C107.779 23.3433 107.647 23.1737 107.554 22.9455C107.388 23.1922 107.178 23.3772 106.925 23.5005C106.678 23.6177 106.401 23.6763 106.092 23.6763C105.605 23.6763 105.22 23.5375 104.936 23.26C104.652 22.9825 104.51 22.6186 104.51 22.1684C104.51 21.638 104.702 21.234 105.084 20.9565C105.473 20.6728 106.025 20.5309 106.74 20.5309H107.351V20.2534C107.351 19.9388 107.277 19.7199 107.129 19.5965C106.987 19.467 106.755 19.4023 106.435 19.4023C106.077 19.4023 105.645 19.4886 105.14 19.6613L104.862 18.8565C105.473 18.6221 106.065 18.5049 106.638 18.5049C107.89 18.5049 108.516 19.0661 108.516 20.1886V22.2424ZM106.407 22.8159C106.808 22.8159 107.122 22.6155 107.351 22.2146V21.2247H106.86C106.096 21.2247 105.713 21.5085 105.713 22.0759C105.713 22.3102 105.772 22.4922 105.889 22.6217C106.006 22.7512 106.179 22.8159 106.407 22.8159ZM112.182 23.556C111.985 24.1604 111.686 24.6292 111.285 24.9622C110.884 25.3014 110.335 25.4988 109.638 25.5543L109.518 24.6939C109.838 24.6446 110.094 24.5737 110.286 24.4812C110.483 24.3948 110.64 24.2776 110.757 24.1296C110.874 23.9816 110.982 23.7842 111.081 23.5375H110.674L109.12 18.6437H110.378L111.442 22.7512L112.552 18.6437H113.773L112.182 23.556ZM118.249 17.2005C118.669 17.2005 119.03 17.2776 119.332 17.4318C119.64 17.586 119.875 17.7957 120.035 18.0609C120.195 18.3261 120.275 18.6221 120.275 18.949C120.275 19.3005 120.198 19.6397 120.044 19.9666C119.896 20.2873 119.646 20.645 119.295 21.0397C118.943 21.4344 118.428 21.9556 117.75 22.6032H120.414L120.285 23.5375H116.408V22.6679C117.198 21.8662 117.762 21.2741 118.101 20.8917C118.447 20.5032 118.69 20.1732 118.832 19.9018C118.98 19.6243 119.054 19.3375 119.054 19.0415C119.054 18.7578 118.971 18.5357 118.805 18.3754C118.644 18.215 118.428 18.1349 118.157 18.1349C117.916 18.1349 117.704 18.1873 117.519 18.2921C117.34 18.3908 117.152 18.5573 116.954 18.7917L116.233 18.2181C116.757 17.5397 117.429 17.2005 118.249 17.2005ZM123.429 17.2005C124.156 17.2005 124.708 17.478 125.085 18.0331C125.467 18.5882 125.658 19.3869 125.658 20.4292C125.658 21.4776 125.467 22.2825 125.085 22.8437C124.708 23.3988 124.156 23.6763 123.429 23.6763C122.701 23.6763 122.146 23.3988 121.763 22.8437C121.387 22.2825 121.199 21.4776 121.199 20.4292C121.199 19.3869 121.387 18.5882 121.763 18.0331C122.146 17.478 122.701 17.2005 123.429 17.2005ZM123.429 18.0979C123.077 18.0979 122.821 18.2767 122.661 18.6344C122.5 18.986 122.42 19.5842 122.42 20.4292C122.42 21.2803 122.5 21.8847 122.661 22.2424C122.821 22.6001 123.077 22.7789 123.429 22.7789C123.78 22.7789 124.036 22.6032 124.196 22.2516C124.357 21.8939 124.437 21.2864 124.437 20.4292C124.437 19.578 124.357 18.9767 124.196 18.6252C124.036 18.2736 123.78 18.0979 123.429 18.0979ZM128.142 17.2005C128.561 17.2005 128.922 17.2776 129.224 17.4318C129.533 17.586 129.767 17.7957 129.928 18.0609C130.088 18.3261 130.168 18.6221 130.168 18.949C130.168 19.3005 130.091 19.6397 129.937 19.9666C129.789 20.2873 129.539 20.645 129.187 21.0397C128.836 21.4344 128.321 21.9556 127.642 22.6032H130.307L130.177 23.5375H126.301V22.6679C127.09 21.8662 127.655 21.2741 127.994 20.8917C128.339 20.5032 128.583 20.1732 128.725 19.9018C128.873 19.6243 128.947 19.3375 128.947 19.0415C128.947 18.7578 128.864 18.5357 128.697 18.3754C128.537 18.215 128.321 18.1349 128.05 18.1349C127.809 18.1349 127.596 18.1873 127.411 18.2921C127.232 18.3908 127.044 18.5573 126.847 18.7917L126.125 18.2181C126.65 17.5397 127.322 17.2005 128.142 17.2005ZM135.27 21.2062V22.1129H134.521V23.5375H133.364V22.1129H130.719V21.2988L132.532 17.1912L133.54 17.5705L131.949 21.2062H133.374L133.494 19.6428H134.521V21.2062H135.27Z"/>
</mask>
<path d="M103.759 23.5375H102.566L102.399 20.864C102.344 19.908 102.316 19.1494 102.316 18.5882V18.2551L101.15 22.8437H99.9938L98.7542 18.2459C98.7665 18.6529 98.7727 18.9613 98.7727 19.171C98.7727 19.7322 98.7542 20.3089 98.7172 20.901L98.5599 23.5375H97.3757L97.8846 17.145H99.4573L100.595 21.6225L101.668 17.145H103.259L103.759 23.5375ZM108.516 22.2424C108.516 22.4336 108.544 22.5754 108.599 22.6679C108.661 22.7543 108.757 22.8221 108.886 22.8715L108.636 23.6578C108.359 23.6331 108.131 23.5653 107.952 23.4543C107.779 23.3433 107.647 23.1737 107.554 22.9455C107.388 23.1922 107.178 23.3772 106.925 23.5005C106.678 23.6177 106.401 23.6763 106.092 23.6763C105.605 23.6763 105.22 23.5375 104.936 23.26C104.652 22.9825 104.51 22.6186 104.51 22.1684C104.51 21.638 104.702 21.234 105.084 20.9565C105.473 20.6728 106.025 20.5309 106.74 20.5309H107.351V20.2534C107.351 19.9388 107.277 19.7199 107.129 19.5965C106.987 19.467 106.755 19.4023 106.435 19.4023C106.077 19.4023 105.645 19.4886 105.14 19.6613L104.862 18.8565C105.473 18.6221 106.065 18.5049 106.638 18.5049C107.89 18.5049 108.516 19.0661 108.516 20.1886V22.2424ZM106.407 22.8159C106.808 22.8159 107.122 22.6155 107.351 22.2146V21.2247H106.86C106.096 21.2247 105.713 21.5085 105.713 22.0759C105.713 22.3102 105.772 22.4922 105.889 22.6217C106.006 22.7512 106.179 22.8159 106.407 22.8159ZM112.182 23.556C111.985 24.1604 111.686 24.6292 111.285 24.9622C110.884 25.3014 110.335 25.4988 109.638 25.5543L109.518 24.6939C109.838 24.6446 110.094 24.5737 110.286 24.4812C110.483 24.3948 110.64 24.2776 110.757 24.1296C110.874 23.9816 110.982 23.7842 111.081 23.5375H110.674L109.12 18.6437H110.378L111.442 22.7512L112.552 18.6437H113.773L112.182 23.556ZM118.249 17.2005C118.669 17.2005 119.03 17.2776 119.332 17.4318C119.64 17.586 119.875 17.7957 120.035 18.0609C120.195 18.3261 120.275 18.6221 120.275 18.949C120.275 19.3005 120.198 19.6397 120.044 19.9666C119.896 20.2873 119.646 20.645 119.295 21.0397C118.943 21.4344 118.428 21.9556 117.75 22.6032H120.414L120.285 23.5375H116.408V22.6679C117.198 21.8662 117.762 21.2741 118.101 20.8917C118.447 20.5032 118.69 20.1732 118.832 19.9018C118.98 19.6243 119.054 19.3375 119.054 19.0415C119.054 18.7578 118.971 18.5357 118.805 18.3754C118.644 18.215 118.428 18.1349 118.157 18.1349C117.916 18.1349 117.704 18.1873 117.519 18.2921C117.34 18.3908 117.152 18.5573 116.954 18.7917L116.233 18.2181C116.757 17.5397 117.429 17.2005 118.249 17.2005ZM123.429 17.2005C124.156 17.2005 124.708 17.478 125.085 18.0331C125.467 18.5882 125.658 19.3869 125.658 20.4292C125.658 21.4776 125.467 22.2825 125.085 22.8437C124.708 23.3988 124.156 23.6763 123.429 23.6763C122.701 23.6763 122.146 23.3988 121.763 22.8437C121.387 22.2825 121.199 21.4776 121.199 20.4292C121.199 19.3869 121.387 18.5882 121.763 18.0331C122.146 17.478 122.701 17.2005 123.429 17.2005ZM123.429 18.0979C123.077 18.0979 122.821 18.2767 122.661 18.6344C122.5 18.986 122.42 19.5842 122.42 20.4292C122.42 21.2803 122.5 21.8847 122.661 22.2424C122.821 22.6001 123.077 22.7789 123.429 22.7789C123.78 22.7789 124.036 22.6032 124.196 22.2516C124.357 21.8939 124.437 21.2864 124.437 20.4292C124.437 19.578 124.357 18.9767 124.196 18.6252C124.036 18.2736 123.78 18.0979 123.429 18.0979ZM128.142 17.2005C128.561 17.2005 128.922 17.2776 129.224 17.4318C129.533 17.586 129.767 17.7957 129.928 18.0609C130.088 18.3261 130.168 18.6221 130.168 18.949C130.168 19.3005 130.091 19.6397 129.937 19.9666C129.789 20.2873 129.539 20.645 129.187 21.0397C128.836 21.4344 128.321 21.9556 127.642 22.6032H130.307L130.177 23.5375H126.301V22.6679C127.09 21.8662 127.655 21.2741 127.994 20.8917C128.339 20.5032 128.583 20.1732 128.725 19.9018C128.873 19.6243 128.947 19.3375 128.947 19.0415C128.947 18.7578 128.864 18.5357 128.697 18.3754C128.537 18.215 128.321 18.1349 128.05 18.1349C127.809 18.1349 127.596 18.1873 127.411 18.2921C127.232 18.3908 127.044 18.5573 126.847 18.7917L126.125 18.2181C126.65 17.5397 127.322 17.2005 128.142 17.2005ZM135.27 21.2062V22.1129H134.521V23.5375H133.364V22.1129H130.719V21.2988L132.532 17.1912L133.54 17.5705L131.949 21.2062H133.374L133.494 19.6428H134.521V21.2062H135.27Z" fill="black"/>
<path d="M103.759 23.5375V24.1983H104.473L104.418 23.4861L103.759 23.5375ZM102.566 23.5375L101.906 23.5786L101.945 24.1983H102.566V23.5375ZM102.399 20.864L101.739 20.9023L101.74 20.905L102.399 20.864ZM102.316 18.2551H102.977L101.675 18.0924L102.316 18.2551ZM101.15 22.8437V23.5045H101.664L101.791 23.0064L101.15 22.8437ZM99.9938 22.8437L99.3558 23.0157L99.4876 23.5045H99.9938V22.8437ZM98.7542 18.2459L99.3922 18.0739L98.0937 18.2659L98.7542 18.2459ZM98.7172 20.901L98.0577 20.8597L98.0575 20.8616L98.7172 20.901ZM98.5599 23.5375V24.1983H99.1825L99.2195 23.5769L98.5599 23.5375ZM97.3757 23.5375L96.717 23.4851L96.6603 24.1983H97.3757V23.5375ZM97.8846 17.145V16.4842H97.2743L97.2258 17.0926L97.8846 17.145ZM99.4573 17.145L100.098 16.9822L99.9711 16.4842H99.4573V17.145ZM100.595 21.6225L99.9547 21.7853L101.238 21.7766L100.595 21.6225ZM101.668 17.145V16.4842H101.147L101.026 16.991L101.668 17.145ZM103.259 17.145L103.918 17.0935L103.871 16.4842H103.259V17.145ZM103.759 22.8767H102.566V24.1983H103.759V22.8767ZM103.225 23.4965L103.059 20.8229L101.74 20.905L101.906 23.5786L103.225 23.4965ZM103.059 20.8257C103.004 19.8749 102.977 19.1308 102.977 18.5882H101.655C101.655 19.168 101.684 19.9411 101.739 20.9023L103.059 20.8257ZM102.977 18.5882V18.2551H101.655V18.5882H102.977ZM101.675 18.0924L100.51 22.681L101.791 23.0064L102.956 18.4178L101.675 18.0924ZM101.15 22.1829H99.9938V23.5045H101.15V22.1829ZM100.632 22.6717L99.3922 18.0739L98.1162 18.4179L99.3558 23.0157L100.632 22.6717ZM98.0937 18.2659C98.106 18.6712 98.1119 18.9716 98.1119 19.171H99.4335C99.4335 18.951 99.427 18.6346 99.4147 18.2259L98.0937 18.2659ZM98.1119 19.171C98.1119 19.7177 98.0939 20.2806 98.0577 20.8597L99.3767 20.9422C99.4145 20.3372 99.4335 19.7467 99.4335 19.171H98.1119ZM98.0575 20.8616L97.9003 23.4982L99.2195 23.5769L99.3768 20.9403L98.0575 20.8616ZM98.5599 22.8767H97.3757V24.1983H98.5599V22.8767ZM98.0345 23.59L98.5433 17.1974L97.2258 17.0926L96.717 23.4851L98.0345 23.59ZM97.8846 17.8058H99.4573V16.4842H97.8846V17.8058ZM98.8168 17.3077L99.9547 21.7853L101.236 21.4598L100.098 16.9822L98.8168 17.3077ZM101.238 21.7766L102.311 17.299L101.026 16.991L99.9526 21.4685L101.238 21.7766ZM101.668 17.8058H103.259V16.4842H101.668V17.8058ZM102.601 17.1965L103.1 23.589L104.418 23.4861L103.918 17.0935L102.601 17.1965ZM108.599 22.6679L108.033 23.0079L108.046 23.0305L108.062 23.052L108.599 22.6679ZM108.886 22.8715L109.516 23.0715L109.705 22.4763L109.122 22.2539L108.886 22.8715ZM108.636 23.6578L108.578 24.316L109.106 24.3629L109.266 23.8579L108.636 23.6578ZM107.952 23.4543L107.595 24.0102L107.603 24.0157L107.952 23.4543ZM107.554 22.9455L108.166 22.6972L107.7 21.5476L107.006 22.5758L107.554 22.9455ZM106.925 23.5005L107.209 24.0974L107.215 24.0944L106.925 23.5005ZM104.936 23.26L104.474 23.7324L104.936 23.26ZM105.084 20.9565L105.472 21.4913L105.474 21.4901L105.084 20.9565ZM107.351 20.5309V21.1917H108.011V20.5309H107.351ZM107.129 19.5965L106.683 20.0845L106.694 20.0946L106.706 20.1042L107.129 19.5965ZM105.14 19.6613L104.515 19.8767L104.73 20.4995L105.353 20.2866L105.14 19.6613ZM104.862 18.8565L104.625 18.2395L104.029 18.4683L104.237 19.0719L104.862 18.8565ZM107.351 22.2146L107.925 22.5415L108.011 22.3895V22.2146H107.351ZM107.351 21.2247H108.011V20.564H107.351V21.2247ZM105.889 22.6217L106.379 22.1783L105.889 22.6217ZM107.855 22.2424C107.855 22.4732 107.885 22.7608 108.033 23.0079L109.166 22.328C109.189 22.3655 109.189 22.3849 109.186 22.3653C109.182 22.347 109.177 22.3081 109.177 22.2424H107.855ZM108.062 23.052C108.219 23.2723 108.437 23.4073 108.651 23.489L109.122 22.2539C109.1 22.2457 109.095 22.241 109.1 22.2447C109.106 22.2489 109.121 22.2612 109.137 22.2838L108.062 23.052ZM108.256 22.6714L108.007 23.4578L109.266 23.8579L109.516 23.0715L108.256 22.6714ZM108.695 22.9996C108.488 22.9812 108.368 22.9347 108.3 22.8928L107.603 24.0157C107.894 24.1959 108.229 24.285 108.578 24.316L108.695 22.9996ZM108.309 22.8984C108.273 22.8749 108.218 22.8247 108.166 22.6972L106.942 23.1937C107.075 23.5226 107.286 23.8116 107.595 24.0101L108.309 22.8984ZM107.006 22.5758C106.901 22.7322 106.778 22.8371 106.635 22.9066L107.215 24.0944C107.578 23.9173 107.874 23.6522 108.102 23.3152L107.006 22.5758ZM106.642 22.9036C106.494 22.9736 106.315 23.0155 106.092 23.0155V24.3371C106.486 24.3371 106.862 24.2618 107.209 24.0974L106.642 22.9036ZM106.092 23.0155C105.736 23.0155 105.531 22.9181 105.398 22.7876L104.474 23.7324C104.908 24.157 105.474 24.3371 106.092 24.3371V23.0155ZM105.398 22.7876C105.259 22.6516 105.171 22.4669 105.171 22.1684H103.85C103.85 22.7703 104.046 23.3134 104.474 23.7324L105.398 22.7876ZM105.171 22.1684C105.171 21.8197 105.284 21.6279 105.472 21.4912L104.696 20.4217C104.119 20.8401 103.85 21.4563 103.85 22.1684H105.171ZM105.474 21.4901C105.706 21.3205 106.1 21.1917 106.74 21.1917V19.8701C105.949 19.8701 105.239 20.025 104.694 20.4228L105.474 21.4901ZM106.74 21.1917H107.351V19.8701H106.74V21.1917ZM108.011 20.5309V20.2534H106.69V20.5309H108.011ZM108.011 20.2534C108.011 19.8646 107.924 19.3991 107.552 19.0889L106.706 20.1042C106.669 20.0735 106.663 20.0477 106.669 20.0649C106.676 20.0865 106.69 20.1439 106.69 20.2534H108.011ZM107.574 19.1086C107.251 18.8139 106.817 18.7415 106.435 18.7415V20.0631C106.554 20.0631 106.629 20.0754 106.671 20.0872C106.711 20.0985 106.705 20.1047 106.683 20.0845L107.574 19.1086ZM106.435 18.7415C105.978 18.7415 105.47 18.8502 104.926 19.036L105.353 20.2866C105.821 20.127 106.176 20.0631 106.435 20.0631V18.7415ZM105.764 19.4459L105.487 18.641L104.237 19.0719L104.515 19.8767L105.764 19.4459ZM105.099 19.4734C105.644 19.264 106.156 19.1657 106.638 19.1657V17.8441C105.973 17.8441 105.301 17.9802 104.625 18.2395L105.099 19.4734ZM106.638 19.1657C107.179 19.1657 107.461 19.2885 107.606 19.4178C107.736 19.5349 107.855 19.749 107.855 20.1886H109.177C109.177 19.5057 108.983 18.878 108.488 18.4338C108.006 18.0019 107.349 17.8441 106.638 17.8441V19.1657ZM107.855 20.1886V22.2424H109.177V20.1886H107.855ZM106.407 23.4767C107.085 23.4767 107.6 23.1115 107.925 22.5415L106.776 21.8877C106.644 22.1195 106.53 22.1552 106.407 22.1552V23.4767ZM108.011 22.2146V21.2247H106.69V22.2146H108.011ZM107.351 20.564H106.86V21.8855H107.351V20.564ZM106.86 20.564C106.415 20.564 105.962 20.643 105.606 20.9068C105.214 21.1981 105.052 21.6282 105.052 22.0759H106.374C106.374 22.0076 106.385 21.9792 106.388 21.9743C106.388 21.9732 106.387 21.9733 106.394 21.9682C106.42 21.9483 106.54 21.8855 106.86 21.8855V20.564ZM105.052 22.0759C105.052 22.4172 105.139 22.7776 105.399 23.065L106.379 22.1783C106.389 22.1894 106.389 22.1958 106.386 22.1855C106.382 22.1729 106.374 22.1392 106.374 22.0759H105.052ZM105.399 23.065C105.677 23.3723 106.053 23.4767 106.407 23.4767V22.1552C106.354 22.1552 106.335 22.1475 106.338 22.1487C106.34 22.1494 106.347 22.152 106.355 22.1578C106.364 22.1636 106.372 22.1707 106.379 22.1783L105.399 23.065ZM112.182 23.556L112.81 23.7612L112.811 23.7597L112.182 23.556ZM111.285 24.9622L110.862 24.4539L110.858 24.4578L111.285 24.9622ZM109.638 25.5543L108.983 25.6458L109.07 26.2624L109.69 26.213L109.638 25.5543ZM109.518 24.6939L109.417 24.0408L108.773 24.1399L108.863 24.7854L109.518 24.6939ZM110.286 24.4812L110.021 23.8758L110.009 23.8808L109.998 23.8863L110.286 24.4812ZM110.757 24.1296L110.239 23.7195L110.757 24.1296ZM111.081 23.5375L111.695 23.783L112.057 22.8767H111.081V23.5375ZM110.674 23.5375L110.044 23.7375L110.191 24.1983H110.674V23.5375ZM109.12 18.6437V17.9829H108.217L108.49 18.8437L109.12 18.6437ZM110.378 18.6437L111.018 18.478L110.889 17.9829H110.378V18.6437ZM111.442 22.7512L110.802 22.9169L111.428 25.3341L112.08 22.9236L111.442 22.7512ZM112.552 18.6437V17.9829H112.046L111.914 18.4713L112.552 18.6437ZM113.773 18.6437L114.402 18.8473L114.682 17.9829H113.773V18.6437ZM111.554 23.3509C111.387 23.863 111.148 24.2164 110.862 24.4539L111.707 25.4705C112.223 25.0419 112.583 24.4579 112.81 23.7612L111.554 23.3509ZM110.858 24.4578C110.592 24.6823 110.19 24.8475 109.585 24.8956L109.69 26.213C110.48 26.1501 111.175 25.9206 111.711 25.4667L110.858 24.4578ZM110.292 25.4628L110.172 24.6025L108.863 24.7854L108.983 25.6458L110.292 25.4628ZM109.618 25.347C109.973 25.2924 110.3 25.208 110.573 25.076L109.998 23.8863C109.888 23.9393 109.703 23.9968 109.417 24.0408L109.618 25.347ZM110.55 25.0865C110.833 24.963 111.082 24.7839 111.275 24.5398L110.239 23.7195C110.198 23.7713 110.133 23.8266 110.021 23.8758L110.55 25.0865ZM111.275 24.5398C111.445 24.326 111.581 24.0668 111.695 23.783L110.468 23.2921C110.384 23.5017 110.304 23.6372 110.239 23.7195L111.275 24.5398ZM111.081 22.8767H110.674V24.1983H111.081V22.8767ZM111.304 23.3375L109.75 18.4437L108.49 18.8437L110.044 23.7375L111.304 23.3375ZM109.12 19.3045H110.378V17.9829H109.12V19.3045ZM109.738 18.8094L110.802 22.9169L112.082 22.5855L111.018 18.478L109.738 18.8094ZM112.08 22.9236L113.19 18.8161L111.914 18.4713L110.804 22.5788L112.08 22.9236ZM112.552 19.3045H113.773V17.9829H112.552V19.3045ZM113.145 18.4401L111.553 23.3524L112.811 23.7597L114.402 18.8473L113.145 18.4401ZM119.332 17.4318L119.032 18.0204L119.036 18.0228L119.332 17.4318ZM120.035 18.0609L119.469 18.4028L120.035 18.0609ZM120.044 19.9666L119.447 19.6847L119.444 19.6897L120.044 19.9666ZM119.295 21.0397L119.788 21.4792L119.295 21.0397ZM117.75 22.6032L117.294 22.1252L116.101 23.264H117.75V22.6032ZM120.414 22.6032L121.069 22.6939L121.173 21.9424H120.414V22.6032ZM120.285 23.5375V24.1983H120.86L120.939 23.6283L120.285 23.5375ZM116.408 23.5375H115.748V24.1983H116.408V23.5375ZM116.408 22.6679L115.938 22.2043L115.748 22.3972V22.6679H116.408ZM118.101 20.8917L117.608 20.4527L117.607 20.4532L118.101 20.8917ZM118.832 19.9018L118.249 19.5909L118.247 19.5957L118.832 19.9018ZM118.805 18.3754L118.337 18.8427L118.346 18.8514L118.805 18.3754ZM117.519 18.2921L117.838 18.8708L117.844 18.867L117.519 18.2921ZM116.954 18.7917L116.543 19.309L117.046 19.7087L117.46 19.2173L116.954 18.7917ZM116.233 18.2181L115.71 17.8141L115.311 18.3298L115.822 18.7354L116.233 18.2181ZM118.249 17.8613C118.589 17.8613 118.842 17.9235 119.032 18.0204L119.632 16.8432C119.218 16.6316 118.749 16.5397 118.249 16.5397V17.8613ZM119.036 18.0228C119.246 18.1276 119.381 18.2562 119.469 18.4028L120.6 17.7189C120.368 17.3351 120.034 17.0443 119.627 16.8407L119.036 18.0228ZM119.469 18.4028C119.564 18.5591 119.615 18.7357 119.615 18.949H120.936C120.936 18.5084 120.827 18.093 120.6 17.7189L119.469 18.4028ZM119.615 18.949C119.615 19.2003 119.56 19.4434 119.447 19.6847L120.642 20.2485C120.836 19.836 120.936 19.4008 120.936 18.949H119.615ZM119.444 19.6897C119.333 19.9297 119.129 20.2326 118.801 20.6002L119.788 21.4792C120.164 21.0575 120.459 20.6449 120.644 20.2435L119.444 19.6897ZM118.801 20.6002C118.467 20.9752 117.967 21.4821 117.294 22.1252L118.206 23.0812C118.889 22.4291 119.419 21.8937 119.788 21.4792L118.801 20.6002ZM117.75 23.264H120.414V21.9424H117.75V23.264ZM119.76 22.5124L119.63 23.4468L120.939 23.6283L121.069 22.6939L119.76 22.5124ZM120.285 22.8767H116.408V24.1983H120.285V22.8767ZM117.069 23.5375V22.6679H115.748V23.5375H117.069ZM116.879 23.1315C117.67 22.3289 118.244 21.7264 118.596 21.3302L117.607 20.4532C117.28 20.8218 116.726 21.4034 115.938 22.2043L116.879 23.1315ZM118.595 21.3307C118.955 20.9256 119.24 20.549 119.418 20.208L118.247 19.5957C118.141 19.7974 117.938 20.0807 117.608 20.4527L118.595 21.3307ZM119.415 20.2128C119.611 19.8457 119.715 19.4528 119.715 19.0415H118.394C118.394 19.2223 118.349 19.4029 118.249 19.5909L119.415 20.2128ZM119.715 19.0415C119.715 18.6218 119.587 18.2116 119.263 17.8994L118.346 18.8514C118.355 18.8599 118.394 18.8937 118.394 19.0415H119.715ZM119.272 17.9081C118.964 17.6 118.567 17.4741 118.157 17.4741V18.7957C118.29 18.7957 118.325 18.8301 118.337 18.8426L119.272 17.9081ZM118.157 17.4741C117.817 17.4741 117.49 17.549 117.193 17.7172L117.844 18.867C117.918 18.8256 118.015 18.7957 118.157 18.7957V17.4741ZM117.199 17.7136C116.923 17.8658 116.675 18.0977 116.449 18.3661L117.46 19.2173C117.628 19.017 117.756 18.9158 117.838 18.8707L117.199 17.7136ZM117.365 18.2744L116.644 17.7008L115.822 18.7354L116.543 19.309L117.365 18.2744ZM116.756 18.6222C117.161 18.0972 117.644 17.8613 118.249 17.8613V16.5397C117.214 16.5397 116.353 16.9823 115.71 17.8141L116.756 18.6222ZM125.085 18.0331L124.538 18.4039L124.54 18.408L125.085 18.0331ZM125.085 22.8437L124.538 22.4716L124.538 22.473L125.085 22.8437ZM121.763 22.8437L121.214 23.2117L121.219 23.2186L121.763 22.8437ZM121.763 18.0331L121.219 17.6582L121.216 17.6624L121.763 18.0331ZM122.661 18.6344L123.262 18.9087L123.264 18.9047L122.661 18.6344ZM122.661 22.2424L122.058 22.5127H122.058L122.661 22.2424ZM124.196 22.2516L124.798 22.5259L124.799 22.5219L124.196 22.2516ZM123.429 17.8613C123.959 17.8613 124.296 18.0477 124.538 18.4038L125.632 17.6624C125.12 16.9083 124.353 16.5397 123.429 16.5397V17.8613ZM124.54 18.408C124.816 18.8076 124.997 19.4527 124.997 20.4292H126.319C126.319 19.321 126.118 18.3687 125.629 17.6582L124.54 18.408ZM124.997 20.4292C124.997 21.412 124.816 22.0648 124.538 22.4716L125.631 23.2158C126.118 22.5001 126.319 21.5432 126.319 20.4292H124.997ZM124.538 22.473C124.296 22.8291 123.959 23.0155 123.429 23.0155V24.3371C124.353 24.3371 125.12 23.9685 125.632 23.2144L124.538 22.473ZM123.429 23.0155C122.898 23.0155 122.555 22.8287 122.308 22.4688L121.219 23.2186C121.736 23.9688 122.504 24.3371 123.429 24.3371V23.0155ZM122.312 22.4758C122.039 22.0681 121.86 21.4135 121.86 20.4292H120.538C120.538 21.5417 120.735 22.4968 121.214 23.2116L122.312 22.4758ZM121.86 20.4292C121.86 19.4511 122.039 18.8043 122.31 18.4038L121.216 17.6624C120.735 18.3721 120.538 19.3226 120.538 20.4292H121.86ZM122.308 18.408C122.555 18.0481 122.898 17.8613 123.429 17.8613V16.5397C122.504 16.5397 121.736 16.908 121.219 17.6582L122.308 18.408ZM123.429 17.4371C123.135 17.4371 122.847 17.5138 122.594 17.6904C122.346 17.8637 122.174 18.1038 122.058 18.3641L123.264 18.9047C123.307 18.8074 123.344 18.7791 123.351 18.7737C123.355 18.7713 123.37 18.7587 123.429 18.7587V17.4371ZM122.06 18.3602C121.835 18.8517 121.759 19.5758 121.759 20.4292H123.081C123.081 19.5926 123.165 19.1202 123.262 18.9087L122.06 18.3602ZM121.759 20.4292C121.759 21.2894 121.836 22.0171 122.058 22.5127L123.264 21.9721C123.165 21.7522 123.081 21.2711 123.081 20.4292H121.759ZM122.058 22.5127C122.174 22.773 122.346 23.0131 122.594 23.1865C122.847 23.363 123.135 23.4397 123.429 23.4397V22.1181C123.37 22.1181 123.355 22.1055 123.351 22.1031C123.344 22.0977 123.307 22.0694 123.264 21.9721L122.058 22.5127ZM123.429 23.4397C123.72 23.4397 124.006 23.3651 124.258 23.1918C124.507 23.0213 124.68 22.7842 124.798 22.5259L123.595 21.9774C123.553 22.0705 123.518 22.0972 123.51 22.1024C123.506 22.1049 123.489 22.1181 123.429 22.1181V23.4397ZM124.799 22.5219C125.022 22.0261 125.098 21.2947 125.098 20.4292H123.776C123.776 21.2781 123.692 21.7618 123.593 21.9813L124.799 22.5219ZM125.098 20.4292C125.098 19.5705 125.022 18.8428 124.798 18.3509L123.595 18.8994C123.692 19.1107 123.776 19.5856 123.776 20.4292H125.098ZM124.798 18.3509C124.68 18.0926 124.507 17.8555 124.258 17.685C124.006 17.5117 123.72 17.4371 123.429 17.4371V18.7587C123.489 18.7587 123.506 18.7719 123.51 18.7744C123.518 18.7796 123.553 18.8063 123.595 18.8994L124.798 18.3509ZM129.224 17.4318L128.924 18.0204L128.929 18.0228L129.224 17.4318ZM129.928 18.0609L129.362 18.4028L129.928 18.0609ZM129.937 19.9666L129.339 19.6847L129.337 19.6897L129.937 19.9666ZM129.187 21.0397L129.681 21.4792L129.187 21.0397ZM127.642 22.6032L127.186 22.1252L125.993 23.264H127.642V22.6032ZM130.307 22.6032L130.961 22.6939L131.066 21.9424H130.307V22.6032ZM130.177 23.5375V24.1983H130.753L130.832 23.6283L130.177 23.5375ZM126.301 23.5375H125.64V24.1983H126.301V23.5375ZM126.301 22.6679L125.83 22.2043L125.64 22.3972V22.6679H126.301ZM127.994 20.8917L127.5 20.4527L127.5 20.4532L127.994 20.8917ZM128.725 19.9018L128.142 19.5909L128.139 19.5957L128.725 19.9018ZM128.697 18.3754L128.23 18.8427L128.239 18.8514L128.697 18.3754ZM127.411 18.2921L127.73 18.8708L127.737 18.867L127.411 18.2921ZM126.847 18.7917L126.436 19.309L126.939 19.7087L127.352 19.2173L126.847 18.7917ZM126.125 18.2181L125.602 17.8141L125.204 18.3298L125.714 18.7354L126.125 18.2181ZM128.142 17.8613C128.481 17.8613 128.734 17.9235 128.924 18.0204L129.525 16.8432C129.11 16.6316 128.642 16.5397 128.142 16.5397V17.8613ZM128.929 18.0228C129.139 18.1276 129.273 18.2562 129.362 18.4028L130.493 17.7189C130.261 17.3351 129.927 17.0443 129.52 16.8407L128.929 18.0228ZM129.362 18.4028C129.457 18.5591 129.507 18.7357 129.507 18.949H130.829C130.829 18.5084 130.719 18.093 130.493 17.7189L129.362 18.4028ZM129.507 18.949C129.507 19.2003 129.453 19.4434 129.339 19.6847L130.534 20.2485C130.729 19.836 130.829 19.4008 130.829 18.949H129.507ZM129.337 19.6897C129.226 19.9297 129.021 20.2326 128.694 20.6002L129.681 21.4792C130.056 21.0575 130.351 20.6449 130.537 20.2435L129.337 19.6897ZM128.694 20.6002C128.36 20.9752 127.86 21.4821 127.186 22.1252L128.099 23.0812C128.782 22.4291 129.312 21.8937 129.681 21.4792L128.694 20.6002ZM127.642 23.264H130.307V21.9424H127.642V23.264ZM129.652 22.5124L129.523 23.4468L130.832 23.6283L130.961 22.6939L129.652 22.5124ZM130.177 22.8767H126.301V24.1983H130.177V22.8767ZM126.962 23.5375V22.6679H125.64V23.5375H126.962ZM126.772 23.1315C127.562 22.3289 128.137 21.7264 128.488 21.3302L127.5 20.4532C127.173 20.8218 126.619 21.4034 125.83 22.2043L126.772 23.1315ZM128.488 21.3307C128.848 20.9256 129.132 20.549 129.31 20.208L128.139 19.5957C128.034 19.7974 127.831 20.0807 127.5 20.4527L128.488 21.3307ZM129.308 20.2128C129.504 19.8457 129.608 19.4528 129.608 19.0415H128.286C128.286 19.2223 128.242 19.4029 128.142 19.5909L129.308 20.2128ZM129.608 19.0415C129.608 18.6218 129.48 18.2116 129.155 17.8994L128.239 18.8514C128.248 18.8599 128.286 18.8937 128.286 19.0415H129.608ZM129.164 17.9081C128.856 17.6 128.459 17.4741 128.05 17.4741V18.7957C128.183 18.7957 128.217 18.8301 128.23 18.8426L129.164 17.9081ZM128.05 17.4741C127.71 17.4741 127.382 17.549 127.085 17.7172L127.737 18.867C127.81 18.8256 127.908 18.7957 128.05 18.7957V17.4741ZM127.092 17.7136C126.816 17.8658 126.567 18.0977 126.341 18.3661L127.352 19.2173C127.521 19.017 127.649 18.9158 127.73 18.8707L127.092 17.7136ZM127.258 18.2744L126.536 17.7008L125.714 18.7354L126.436 19.309L127.258 18.2744ZM126.648 18.6222C127.054 18.0972 127.537 17.8613 128.142 17.8613V16.5397C127.107 16.5397 126.245 16.9823 125.602 17.8141L126.648 18.6222ZM135.27 21.2062H135.931V20.5455H135.27V21.2062ZM135.27 22.1129V22.7737H135.931V22.1129H135.27ZM134.521 22.1129V21.4521H133.86V22.1129H134.521ZM134.521 23.5375V24.1983H135.182V23.5375H134.521ZM133.364 23.5375H132.704V24.1983H133.364V23.5375ZM133.364 22.1129H134.025V21.4521H133.364V22.1129ZM130.719 22.1129H130.058V22.7737H130.719V22.1129ZM130.719 21.2988L130.114 21.0319L130.058 21.1594V21.2988H130.719ZM132.532 17.1912L132.764 16.5728L132.18 16.3528L131.927 16.9244L132.532 17.1912ZM133.54 17.5705L134.146 17.8355L134.425 17.1973L133.773 16.9521L133.54 17.5705ZM131.949 21.2062L131.344 20.9413L130.939 21.867H131.949V21.2062ZM133.374 21.2062V21.867H133.986L134.033 21.2569L133.374 21.2062ZM133.494 19.6428V18.982H132.882L132.835 19.5921L133.494 19.6428ZM134.521 19.6428H135.182V18.982H134.521V19.6428ZM134.521 21.2062H133.86V21.867H134.521V21.2062ZM134.609 21.2062V22.1129H135.931V21.2062H134.609ZM135.27 21.4521H134.521V22.7737H135.27V21.4521ZM133.86 22.1129V23.5375H135.182V22.1129H133.86ZM134.521 22.8767H133.364V24.1983H134.521V22.8767ZM134.025 23.5375V22.1129H132.704V23.5375H134.025ZM133.364 21.4521H130.719V22.7737H133.364V21.4521ZM131.379 22.1129V21.2988H130.058V22.1129H131.379ZM131.323 21.5656L133.136 17.4581L131.927 16.9244L130.114 21.0319L131.323 21.5656ZM132.299 17.8097L133.308 18.189L133.773 16.9521L132.764 16.5728L132.299 17.8097ZM132.935 17.3056L131.344 20.9413L132.554 21.4712L134.146 17.8355L132.935 17.3056ZM131.949 21.867H133.374V20.5455H131.949V21.867ZM134.033 21.2569L134.153 19.6935L132.835 19.5921L132.715 21.1556L134.033 21.2569ZM133.494 20.3036H134.521V18.982H133.494V20.3036ZM133.86 19.6428V21.2062H135.182V19.6428H133.86ZM134.521 21.867H135.27V20.5455H134.521V21.867Z" fill="#E4E7EC" mask="url(#path-2-outside-1_1195_3373)"/>
<rect x="10.7161" y="55.8373" width="213.437" height="181.058" stroke="#E4E7EC" stroke-width="0.660796"/>
<g clip-path="url(#clip0_1195_3373)">
<g clip-path="url(#clip1_1195_3373)">
<rect width="214.098" height="33.7006" transform="translate(10.4315 56.8285)" fill="white"/>
<rect width="30.4759" height="33.7006" transform="translate(36.2023 56.8285)" fill="white"/>
<path d="M52.5065 69.2382V78.0797H51.2907V70.5334L49.229 71.7889L48.7003 70.9298L51.436 69.2382H52.5065Z" fill="black"/>
<rect width="30.4759" height="33.7006" transform="translate(66.5989 56.8285)" fill="white"/>
<path d="M85.6998 69.1061C86.2284 69.1061 86.691 69.2118 87.0874 69.4232C87.4927 69.6347 87.8055 69.9254 88.0258 70.2955C88.246 70.6567 88.3562 71.0664 88.3562 71.5246C88.3562 72.062 88.2328 72.5774 87.9861 73.0708C87.7482 73.5642 87.3782 74.0973 86.876 74.67C86.3738 75.2426 85.6117 76.04 84.5896 77.062H88.5676L88.4222 78.0797H83.202V77.1149C84.3826 75.8902 85.2196 74.9959 85.713 74.4321C86.2064 73.8594 86.5588 73.3616 86.7703 72.9387C86.9817 72.5158 87.0874 72.062 87.0874 71.5774C87.0874 71.1193 86.9553 70.7624 86.691 70.5069C86.4266 70.2426 86.0742 70.1105 85.6337 70.1105C85.2725 70.1105 84.9553 70.1854 84.6821 70.3351C84.409 70.4849 84.1183 70.7316 83.8099 71.0752L83.0169 70.4409C83.3782 69.9915 83.7791 69.6567 84.2196 69.4364C84.6601 69.2162 85.1535 69.1061 85.6998 69.1061Z" fill="black"/>
<rect width="30.3966" height="33.7006" transform="translate(98.3173 56.8285)" fill="white"/>
<path d="M117.353 69.1061C117.899 69.1061 118.366 69.2074 118.753 69.41C119.15 69.6127 119.449 69.8858 119.652 70.2294C119.864 70.573 119.969 70.9475 119.969 71.3528C119.969 71.8902 119.811 72.3351 119.493 72.6876C119.185 73.0312 118.771 73.2647 118.251 73.388C118.842 73.4409 119.322 73.6523 119.692 74.0224C120.062 74.3924 120.247 74.8946 120.247 75.529C120.247 76.04 120.123 76.5026 119.877 76.9167C119.63 77.3308 119.278 77.6568 118.819 77.8946C118.361 78.1237 117.833 78.2383 117.234 78.2383C116.696 78.2383 116.203 78.1413 115.753 77.9475C115.304 77.7449 114.912 77.4453 114.577 77.0488L115.304 76.3748C115.595 76.6744 115.89 76.8946 116.19 77.0356C116.498 77.1766 116.833 77.2471 117.194 77.2471C117.749 77.2471 118.185 77.0929 118.502 76.7845C118.819 76.4673 118.978 76.0444 118.978 75.5158C118.978 74.9343 118.828 74.5246 118.529 74.2867C118.229 74.0488 117.793 73.9299 117.22 73.9299H116.56L116.705 72.9915H117.154C117.612 72.9915 117.991 72.855 118.291 72.5818C118.599 72.3087 118.753 71.9254 118.753 71.4321C118.753 71.018 118.621 70.692 118.357 70.4541C118.093 70.2074 117.736 70.084 117.286 70.084C116.943 70.084 116.626 70.1457 116.335 70.2691C116.053 70.3924 115.762 70.595 115.463 70.877L114.828 70.1501C115.577 69.4541 116.419 69.1061 117.353 69.1061Z" fill="black"/>
<g clip-path="url(#clip2_1195_3373)">
<rect width="37.0046" height="33.7006" transform="translate(127.392 56.8285)" fill="white"/>
<circle cx="149.86" cy="74.0092" r="14.5375" fill="#4A1FB8"/>
<path d="M153.012 74.9343V75.899H151.863V78.0797H150.686V75.899H146.907V75.0268L149.563 69.1061L150.581 69.529L148.188 74.9343H150.7L150.805 72.5554H151.863V74.9343H153.012Z" fill="white"/>
</g>
<rect width="30.3966" height="33.7006" transform="translate(167.701 56.8285)" fill="white"/>
<path d="M184.675 70.1898H181.226V72.7933C181.675 72.5642 182.146 72.4497 182.64 72.4497C183.397 72.4497 184.005 72.7008 184.463 73.203C184.922 73.6964 185.151 74.3792 185.151 75.2515C185.151 75.833 185.023 76.3528 184.767 76.8109C184.512 77.2603 184.151 77.6127 183.684 77.8682C183.226 78.1149 182.693 78.2383 182.085 78.2383C181.547 78.2383 181.067 78.1457 180.644 77.9607C180.221 77.7669 179.829 77.4849 179.468 77.1149L180.182 76.4145C180.463 76.6964 180.754 76.9079 181.054 77.0488C181.353 77.181 181.693 77.2471 182.071 77.2471C182.635 77.2471 183.076 77.0709 183.393 76.7184C183.719 76.366 183.882 75.8682 183.882 75.225C183.882 74.5819 183.737 74.1149 183.446 73.8241C183.155 73.5334 182.763 73.388 182.27 73.388C182.041 73.388 181.829 73.4144 181.635 73.4673C181.441 73.5114 181.234 73.5863 181.014 73.692H180.063V69.2382H184.847L184.675 70.1898Z" fill="black"/>
<rect width="30.3966" height="33.7006" transform="translate(194.133 56.8285)" fill="white"/>
<path d="M217.182 72.2647C217.631 72.2647 218.041 72.3704 218.411 72.5818C218.781 72.7933 219.076 73.1105 219.297 73.5334C219.517 73.9563 219.627 74.4717 219.627 75.0797C219.627 75.7052 219.499 76.2603 219.244 76.7449C218.997 77.2206 218.658 77.5907 218.226 77.855C217.803 78.1105 217.332 78.2383 216.812 78.2383C215.781 78.2383 215.028 77.8594 214.552 77.1017C214.076 76.3352 213.838 75.2779 213.838 73.9299C213.838 72.9695 213.971 72.1281 214.235 71.4056C214.508 70.6743 214.896 70.1105 215.398 69.714C215.9 69.3087 216.495 69.1061 217.182 69.1061C217.852 69.1061 218.46 69.2867 219.006 69.6479L218.53 70.4541C218.116 70.1986 217.662 70.0708 217.169 70.0708C216.534 70.0708 216.032 70.3748 215.662 70.9827C215.292 71.5906 215.09 72.4056 215.054 73.4277C215.601 72.6523 216.31 72.2647 217.182 72.2647ZM216.812 77.2735C217.323 77.2735 217.715 77.0797 217.988 76.692C218.261 76.3043 218.398 75.7801 218.398 75.1193C218.398 73.8594 217.922 73.2294 216.971 73.2294C216.583 73.2294 216.226 73.3396 215.9 73.5598C215.574 73.7713 215.297 74.0664 215.068 74.4453C215.094 75.4145 215.244 76.1281 215.517 76.5863C215.799 77.0444 216.231 77.2735 216.812 77.2735Z" fill="black"/>
</g>
<g clip-path="url(#clip3_1195_3373)">
<rect width="214.098" height="33.7006" transform="translate(10.4313 93.8331)" fill="white"/>
<rect width="30.4759" height="33.7006" transform="translate(36.2021 93.8331)" fill="white"/>
<path d="M51.9591 110.34C53.2014 110.842 53.8226 111.635 53.8226 112.719C53.8226 113.203 53.6904 113.639 53.4261 114.027C53.1706 114.406 52.8093 114.705 52.3424 114.926C51.8754 115.137 51.3468 115.243 50.7565 115.243C50.1573 115.243 49.6287 115.137 49.1706 114.926C48.7124 114.714 48.3556 114.419 48.1001 114.04C47.8534 113.661 47.73 113.23 47.73 112.745C47.73 112.199 47.8754 111.741 48.1661 111.371C48.4657 111 48.9018 110.692 49.4745 110.445C49.0076 110.208 48.6595 109.921 48.4305 109.586C48.2102 109.243 48.1001 108.842 48.1001 108.384C48.1001 107.908 48.2234 107.498 48.4701 107.155C48.7256 106.811 49.056 106.551 49.4613 106.375C49.8754 106.199 50.3159 106.111 50.7829 106.111C51.241 106.111 51.6728 106.194 52.0781 106.362C52.4922 106.529 52.827 106.785 53.0825 107.128C53.338 107.463 53.4657 107.868 53.4657 108.344C53.4657 108.785 53.3424 109.163 53.0957 109.481C52.849 109.798 52.4701 110.084 51.9591 110.34ZM50.7829 107.022C50.3247 107.022 49.9591 107.141 49.686 107.379C49.4217 107.617 49.2895 107.956 49.2895 108.397C49.2895 108.82 49.4172 109.141 49.6728 109.362C49.9371 109.582 50.3556 109.785 50.9283 109.97L51.1529 110.049C51.5494 109.82 51.8358 109.578 52.012 109.322C52.1882 109.067 52.2763 108.754 52.2763 108.384C52.2763 107.97 52.1441 107.639 51.8798 107.393C51.6243 107.146 51.2587 107.022 50.7829 107.022ZM50.7697 114.278C51.3159 114.278 51.7477 114.137 52.0648 113.855C52.3908 113.573 52.5538 113.199 52.5538 112.732C52.5538 112.415 52.4922 112.15 52.3688 111.939C52.2455 111.719 52.0472 111.529 51.7741 111.371C51.501 111.203 51.1177 111.036 50.6243 110.868L50.2939 110.749C49.8534 110.961 49.5274 111.23 49.3159 111.556C49.1045 111.873 48.9987 112.269 48.9987 112.745C48.9987 113.23 49.1573 113.608 49.4745 113.882C49.7917 114.146 50.2234 114.278 50.7697 114.278Z" fill="black"/>
<rect width="30.4759" height="33.7006" transform="translate(66.5989 93.8331)" fill="white"/>
<path d="M85.9094 106.111C86.8433 106.111 87.5526 106.419 88.0372 107.036C88.5218 107.644 88.7641 108.481 88.7641 109.547C88.7641 110.754 88.6011 111.727 88.2751 112.467C87.9491 113.199 87.4513 113.785 86.7817 114.225C86.1121 114.657 85.2046 115.04 84.0592 115.375L83.7817 114.463C84.9623 114.128 85.8654 113.675 86.4909 113.102C87.1253 112.529 87.4645 111.767 87.5085 110.815C87.3059 111.133 87.0328 111.388 86.6892 111.582C86.3455 111.776 85.9579 111.873 85.5262 111.873C85.068 111.873 84.6539 111.758 84.2839 111.529C83.9138 111.291 83.6187 110.961 83.3984 110.538C83.1869 110.106 83.0812 109.604 83.0812 109.031C83.0812 108.432 83.209 107.912 83.4645 107.472C83.72 107.031 84.0592 106.697 84.4821 106.467C84.9138 106.23 85.3896 106.111 85.9094 106.111ZM85.7773 110.921C86.4733 110.921 87.0592 110.556 87.535 109.824C87.5526 108.846 87.4292 108.146 87.1649 107.723C86.9094 107.291 86.4997 107.075 85.9358 107.075C85.416 107.075 85.0151 107.247 84.7332 107.591C84.4513 107.934 84.3103 108.423 84.3103 109.058C84.3103 109.674 84.4424 110.141 84.7068 110.459C84.9711 110.767 85.3279 110.921 85.7773 110.921Z" fill="black"/>
<rect width="30.3966" height="33.7006" transform="translate(98.3173 93.8331)" fill="white"/>
<path d="M115.598 106.243V115.084H114.382V107.538L112.32 108.793L111.792 107.934L114.527 106.243H115.598ZM120.734 106.111C121.712 106.111 122.447 106.503 122.941 107.287C123.443 108.062 123.694 109.19 123.694 110.67C123.694 112.15 123.443 113.282 122.941 114.067C122.447 114.851 121.712 115.243 120.734 115.243C119.756 115.243 119.016 114.851 118.513 114.067C118.02 113.282 117.773 112.15 117.773 110.67C117.773 109.19 118.02 108.062 118.513 107.287C119.016 106.503 119.756 106.111 120.734 106.111ZM120.734 107.075C120.161 107.075 119.734 107.357 119.452 107.921C119.179 108.485 119.042 109.401 119.042 110.67C119.042 111.939 119.179 112.86 119.452 113.432C119.734 113.996 120.161 114.278 120.734 114.278C121.298 114.278 121.72 113.996 122.002 113.432C122.284 112.86 122.425 111.939 122.425 110.67C122.425 109.41 122.284 108.498 122.002 107.934C121.72 107.362 121.298 107.075 120.734 107.075Z" fill="black"/>
<rect width="30.3966" height="33.7006" transform="translate(127.392 93.8331)" fill="white"/>
<path d="M147.893 106.243V115.084H146.677V107.538L144.616 108.793L144.087 107.934L146.823 106.243H147.893ZM153.43 106.243V115.084H152.214V107.538L150.152 108.793L149.624 107.934L152.359 106.243H153.43Z" fill="black"/>
<rect width="30.3966" height="33.7006" transform="translate(167.701 93.8331)" fill="white"/>
<path d="M180.93 106.243V115.084H179.714V107.538L177.652 108.793L177.124 107.934L179.859 106.243H180.93ZM185.392 106.111C185.92 106.111 186.383 106.216 186.779 106.428C187.185 106.639 187.497 106.93 187.718 107.3C187.938 107.661 188.048 108.071 188.048 108.529C188.048 109.067 187.925 109.582 187.678 110.075C187.44 110.569 187.07 111.102 186.568 111.675C186.066 112.247 185.304 113.045 184.281 114.067H188.259L188.114 115.084H182.894V114.119C184.074 112.895 184.911 112 185.405 111.437C185.898 110.864 186.251 110.366 186.462 109.943C186.674 109.52 186.779 109.067 186.779 108.582C186.779 108.124 186.647 107.767 186.383 107.511C186.118 107.247 185.766 107.115 185.326 107.115C184.964 107.115 184.647 107.19 184.374 107.34C184.101 107.489 183.81 107.736 183.502 108.08L182.709 107.445C183.07 106.996 183.471 106.661 183.911 106.441C184.352 106.221 184.845 106.111 185.392 106.111Z" fill="black"/>
<rect width="30.3966" height="33.7006" transform="translate(194.133 93.8331)" fill="white"/>
<path d="M214.604 106.243V115.084H213.388V107.538L211.327 108.793L210.798 107.934L213.534 106.243H214.604ZM219.026 106.111C219.573 106.111 220.04 106.212 220.427 106.415C220.824 106.617 221.123 106.89 221.326 107.234C221.537 107.578 221.643 107.952 221.643 108.357C221.643 108.895 221.485 109.34 221.167 109.692C220.859 110.036 220.445 110.269 219.925 110.393C220.515 110.445 220.996 110.657 221.366 111.027C221.736 111.397 221.921 111.899 221.921 112.534C221.921 113.045 221.797 113.507 221.551 113.921C221.304 114.335 220.952 114.661 220.493 114.899C220.035 115.128 219.507 115.243 218.907 115.243C218.37 115.243 217.877 115.146 217.427 114.952C216.978 114.749 216.586 114.45 216.251 114.053L216.978 113.379C217.269 113.679 217.564 113.899 217.863 114.04C218.172 114.181 218.507 114.252 218.868 114.252C219.423 114.252 219.859 114.097 220.176 113.789C220.493 113.472 220.652 113.049 220.652 112.52C220.652 111.939 220.502 111.529 220.203 111.291C219.903 111.053 219.467 110.934 218.894 110.934H218.233L218.379 109.996H218.828C219.286 109.996 219.665 109.86 219.965 109.586C220.273 109.313 220.427 108.93 220.427 108.437C220.427 108.023 220.295 107.697 220.031 107.459C219.767 107.212 219.41 107.089 218.96 107.089C218.617 107.089 218.3 107.15 218.009 107.274C217.727 107.397 217.436 107.6 217.137 107.882L216.502 107.155C217.251 106.459 218.092 106.111 219.026 106.111Z" fill="black"/>
<rect width="30.4759" height="33.7006" transform="translate(4.48419 93.8331)" fill="white"/>
<path d="M21.9138 106.243V107.155L18.6099 115.216L17.4997 114.846L20.6848 107.234H16.7728V106.243H21.9138Z" fill="black"/>
</g>
<g clip-path="url(#clip4_1195_3373)">
<rect width="214.098" height="33.7006" transform="translate(10.4313 127.534)" fill="white"/>
<rect width="30.4759" height="33.7006" transform="translate(36.2021 127.534)" fill="white"/>
<path d="M49.3923 139.943V148.785H48.1765V141.239L46.1148 142.494L45.5861 141.635L48.3218 139.943H49.3923ZM56.3917 140.895H52.9423V143.498C53.3917 143.269 53.8631 143.155 54.3564 143.155C55.1142 143.155 55.7221 143.406 56.1802 143.908C56.6384 144.402 56.8675 145.084 56.8675 145.957C56.8675 146.538 56.7397 147.058 56.4842 147.516C56.2287 147.965 55.8675 148.318 55.4005 148.573C54.9424 148.82 54.4093 148.943 53.8014 148.943C53.2639 148.943 52.7837 148.851 52.3608 148.666C51.9379 148.472 51.5459 148.19 51.1846 147.82L51.8983 147.12C52.1802 147.402 52.471 147.613 52.7705 147.754C53.0701 147.886 53.4093 147.952 53.7882 147.952C54.352 147.952 54.7926 147.776 55.1098 147.424C55.4357 147.071 55.5987 146.573 55.5987 145.93C55.5987 145.287 55.4534 144.82 55.1626 144.529C54.8719 144.239 54.4798 144.093 53.9864 144.093C53.7573 144.093 53.5459 144.12 53.352 144.172C53.1582 144.217 52.9512 144.291 52.7309 144.397H51.7793V139.943H56.5635L56.3917 140.895Z" fill="black"/>
<rect width="30.4759" height="33.7006" transform="translate(66.5987 127.534)" fill="white"/>
<path d="M83.5407 139.943V148.785H82.3248V141.239L80.2631 142.494L79.7345 141.635L82.4702 139.943H83.5407ZM89.0599 142.97C89.5092 142.97 89.9189 143.076 90.289 143.287C90.659 143.498 90.9542 143.816 91.1744 144.239C91.3947 144.661 91.5048 145.177 91.5048 145.785C91.5048 146.41 91.3771 146.965 91.1216 147.45C90.8749 147.926 90.5357 148.296 90.1039 148.56C89.681 148.816 89.2097 148.943 88.6898 148.943C87.659 148.943 86.9057 148.565 86.4299 147.807C85.9541 147.04 85.7163 145.983 85.7163 144.635C85.7163 143.675 85.8484 142.833 86.1127 142.111C86.3859 141.38 86.7735 140.816 87.2757 140.419C87.7779 140.014 88.3727 139.811 89.0599 139.811C89.7295 139.811 90.3374 139.992 90.8837 140.353L90.4079 141.159C89.9938 140.904 89.5401 140.776 89.0467 140.776C88.4123 140.776 87.9101 141.08 87.5401 141.688C87.17 142.296 86.9674 143.111 86.9321 144.133C87.4784 143.358 88.1876 142.97 89.0599 142.97ZM88.6898 147.979C89.2009 147.979 89.5929 147.785 89.8661 147.397C90.1392 147.01 90.2758 146.485 90.2758 145.824C90.2758 144.565 89.8 143.935 88.8484 143.935C88.4608 143.935 88.1039 144.045 87.7779 144.265C87.452 144.476 87.1744 144.772 86.9453 145.15C86.9718 146.12 87.1216 146.833 87.3947 147.291C87.6766 147.75 88.1083 147.979 88.6898 147.979Z" fill="black"/>
<rect width="30.3966" height="33.7006" transform="translate(98.3171 127.534)" fill="white"/>
<path d="M116.007 139.943V148.785H114.791V141.239L112.73 142.494L112.201 141.635L114.937 139.943H116.007ZM122.927 139.943V140.855L119.623 148.917L118.513 148.547L121.698 140.935H117.786V139.943H122.927Z" fill="black"/>
<rect width="30.3966" height="33.7006" transform="translate(127.392 127.534)" fill="white"/>
<path d="M146.861 139.943V148.785H145.645V141.239L143.584 142.494L143.055 141.635L145.791 139.943H146.861ZM153.134 144.04C154.376 144.543 154.997 145.335 154.997 146.419C154.997 146.904 154.865 147.34 154.601 147.728C154.345 148.106 153.984 148.406 153.517 148.626C153.05 148.838 152.521 148.943 151.931 148.943C151.332 148.943 150.803 148.838 150.345 148.626C149.887 148.415 149.53 148.12 149.275 147.741C149.028 147.362 148.904 146.93 148.904 146.446C148.904 145.899 149.05 145.441 149.341 145.071C149.64 144.701 150.076 144.393 150.649 144.146C150.182 143.908 149.834 143.622 149.605 143.287C149.385 142.943 149.275 142.543 149.275 142.084C149.275 141.609 149.398 141.199 149.645 140.855C149.9 140.512 150.23 140.252 150.636 140.076C151.05 139.899 151.49 139.811 151.957 139.811C152.416 139.811 152.847 139.895 153.253 140.062C153.667 140.23 154.001 140.485 154.257 140.829C154.512 141.164 154.64 141.569 154.64 142.045C154.64 142.485 154.517 142.864 154.27 143.181C154.023 143.498 153.645 143.785 153.134 144.04ZM151.957 140.723C151.499 140.723 151.134 140.842 150.86 141.08C150.596 141.318 150.464 141.657 150.464 142.098C150.464 142.521 150.592 142.842 150.847 143.062C151.112 143.283 151.53 143.485 152.103 143.67L152.327 143.75C152.724 143.521 153.01 143.278 153.186 143.023C153.363 142.767 153.451 142.454 153.451 142.084C153.451 141.67 153.319 141.34 153.054 141.093C152.799 140.846 152.433 140.723 151.957 140.723ZM151.944 147.979C152.49 147.979 152.922 147.838 153.239 147.556C153.565 147.274 153.728 146.899 153.728 146.432C153.728 146.115 153.667 145.851 153.543 145.639C153.42 145.419 153.222 145.23 152.949 145.071C152.675 144.904 152.292 144.736 151.799 144.569L151.468 144.45C151.028 144.661 150.702 144.93 150.49 145.256C150.279 145.573 150.173 145.97 150.173 146.446C150.173 146.93 150.332 147.309 150.649 147.582C150.966 147.847 151.398 147.979 151.944 147.979Z" fill="black"/>
<rect width="30.3966" height="33.7006" transform="translate(167.701 127.534)" fill="white"/>
<path d="M180.069 139.943V148.785H178.853V141.239L176.791 142.494L176.263 141.635L178.998 139.943H180.069ZM184.94 139.811C185.874 139.811 186.584 140.12 187.068 140.736C187.553 141.344 187.795 142.181 187.795 143.247C187.795 144.454 187.632 145.428 187.306 146.168C186.98 146.899 186.482 147.485 185.813 147.926C185.143 148.358 184.236 148.741 183.09 149.076L182.813 148.164C183.993 147.829 184.896 147.375 185.522 146.802C186.156 146.23 186.495 145.468 186.54 144.516C186.337 144.833 186.064 145.089 185.72 145.283C185.377 145.476 184.989 145.573 184.557 145.573C184.099 145.573 183.685 145.459 183.315 145.23C182.945 144.992 182.65 144.661 182.429 144.239C182.218 143.807 182.112 143.305 182.112 142.732C182.112 142.133 182.24 141.613 182.495 141.172C182.751 140.732 183.09 140.397 183.513 140.168C183.945 139.93 184.421 139.811 184.94 139.811ZM184.808 144.622C185.504 144.622 186.09 144.256 186.566 143.525C186.584 142.547 186.46 141.846 186.196 141.424C185.94 140.992 185.531 140.776 184.967 140.776C184.447 140.776 184.046 140.948 183.764 141.291C183.482 141.635 183.341 142.124 183.341 142.758C183.341 143.375 183.473 143.842 183.738 144.159C184.002 144.468 184.359 144.622 184.808 144.622Z" fill="black"/>
<rect width="30.3966" height="33.7006" transform="translate(194.133 127.534)" fill="white"/>
<path d="M211.727 139.811C212.255 139.811 212.718 139.917 213.114 140.128C213.52 140.34 213.833 140.631 214.053 141.001C214.273 141.362 214.383 141.772 214.383 142.23C214.383 142.767 214.26 143.283 214.013 143.776C213.775 144.269 213.405 144.802 212.903 145.375C212.401 145.948 211.639 146.745 210.617 147.767H214.595L214.449 148.785H209.229V147.82C210.41 146.595 211.247 145.701 211.74 145.137C212.233 144.565 212.586 144.067 212.797 143.644C213.009 143.221 213.114 142.767 213.114 142.283C213.114 141.824 212.982 141.468 212.718 141.212C212.454 140.948 212.101 140.816 211.661 140.816C211.299 140.816 210.982 140.891 210.709 141.04C210.436 141.19 210.145 141.437 209.837 141.78L209.044 141.146C209.405 140.697 209.806 140.362 210.247 140.142C210.687 139.921 211.181 139.811 211.727 139.811ZM218.944 139.811C219.922 139.811 220.658 140.203 221.151 140.987C221.653 141.763 221.905 142.891 221.905 144.371C221.905 145.851 221.653 146.983 221.151 147.767C220.658 148.551 219.922 148.943 218.944 148.943C217.966 148.943 217.226 148.551 216.724 147.767C216.231 146.983 215.984 145.851 215.984 144.371C215.984 142.891 216.231 141.763 216.724 140.987C217.226 140.203 217.966 139.811 218.944 139.811ZM218.944 140.776C218.372 140.776 217.944 141.058 217.662 141.622C217.389 142.186 217.253 143.102 217.253 144.371C217.253 145.639 217.389 146.56 217.662 147.133C217.944 147.697 218.372 147.979 218.944 147.979C219.508 147.979 219.931 147.697 220.213 147.133C220.495 146.56 220.636 145.639 220.636 144.371C220.636 143.111 220.495 142.199 220.213 141.635C219.931 141.062 219.508 140.776 218.944 140.776Z" fill="black"/>
<rect width="30.4759" height="33.7006" transform="translate(4.48419 127.534)" fill="white"/>
<path d="M16.807 139.943V148.785H15.5911V141.239L13.5294 142.494L13.0008 141.635L15.7365 139.943H16.807ZM24.8901 145.639V146.604H23.7403V148.785H22.5641V146.604H18.7843V145.732L21.4407 139.811L22.4583 140.234L20.0662 145.639H22.5773L22.683 143.261H23.7403V145.639H24.8901Z" fill="black"/>
</g>
<g clip-path="url(#clip5_1195_3373)">
<rect width="214.098" height="33.7006" transform="translate(10.4313 161.234)" fill="white"/>
<rect width="30.4759" height="33.7006" transform="translate(36.2021 161.234)" fill="white"/>
<path d="M47.6013 173.512C48.13 173.512 48.5925 173.618 48.989 173.829C49.3943 174.041 49.7071 174.331 49.9273 174.701C50.1476 175.063 50.2577 175.472 50.2577 175.93C50.2577 176.468 50.1344 176.983 49.8877 177.477C49.6498 177.97 49.2798 178.503 48.7775 179.076C48.2753 179.648 47.5132 180.446 46.4912 181.468H50.4692L50.3238 182.485H45.1035V181.521C46.2841 180.296 47.1212 179.402 47.6145 178.838C48.1079 178.265 48.4604 177.767 48.6718 177.344C48.8833 176.922 48.989 176.468 48.989 175.983C48.989 175.525 48.8568 175.168 48.5925 174.913C48.3282 174.648 47.9758 174.516 47.5353 174.516C47.174 174.516 46.8568 174.591 46.5837 174.741C46.3106 174.891 46.0198 175.137 45.7115 175.481L44.9185 174.847C45.2797 174.397 45.6806 174.063 46.1211 173.842C46.5617 173.622 47.0551 173.512 47.6013 173.512ZM54.1448 173.512C54.6734 173.512 55.136 173.618 55.5324 173.829C55.9377 174.041 56.2505 174.331 56.4708 174.701C56.691 175.063 56.8012 175.472 56.8012 175.93C56.8012 176.468 56.6778 176.983 56.4311 177.477C56.1932 177.97 55.8232 178.503 55.321 179.076C54.8188 179.648 54.0567 180.446 53.0346 181.468H57.0126L56.8672 182.485H51.647V181.521C52.8276 180.296 53.6646 179.402 54.158 178.838C54.6514 178.265 55.0038 177.767 55.2153 177.344C55.4267 176.922 55.5324 176.468 55.5324 175.983C55.5324 175.525 55.4003 175.168 55.136 174.913C54.8716 174.648 54.5192 174.516 54.0787 174.516C53.7174 174.516 53.4003 174.591 53.1271 174.741C52.854 174.891 52.5633 175.137 52.2549 175.481L51.4619 174.847C51.8232 174.397 52.224 174.063 52.6646 173.842C53.1051 173.622 53.5985 173.512 54.1448 173.512Z" fill="#4A1FB8"/>
<rect width="30.4759" height="33.7006" transform="translate(66.5987 161.234)" fill="white"/>
<path d="M82.6303 173.512C83.1589 173.512 83.6215 173.618 84.018 173.829C84.4233 174.041 84.736 174.331 84.9563 174.701C85.1766 175.063 85.2867 175.472 85.2867 175.93C85.2867 176.468 85.1634 176.983 84.9167 177.477C84.6788 177.97 84.3087 178.503 83.8065 179.076C83.3043 179.648 82.5422 180.446 81.5202 181.468H85.4982L85.3528 182.485H80.1325V181.521C81.3131 180.296 82.1501 179.402 82.6435 178.838C83.1369 178.265 83.4893 177.767 83.7008 177.344C83.9122 176.922 84.018 176.468 84.018 175.983C84.018 175.525 83.8858 175.168 83.6215 174.913C83.3572 174.648 83.0048 174.516 82.5642 174.516C82.203 174.516 81.8858 174.591 81.6127 174.741C81.3395 174.891 81.0488 175.137 80.7404 175.481L79.9475 174.847C80.3087 174.397 80.7096 174.063 81.1501 173.842C81.5907 173.622 82.084 173.512 82.6303 173.512ZM89.0696 173.512C89.6158 173.512 90.0828 173.613 90.4704 173.816C90.8669 174.018 91.1665 174.292 91.3691 174.635C91.5806 174.979 91.6863 175.353 91.6863 175.759C91.6863 176.296 91.5277 176.741 91.2105 177.093C90.9022 177.437 90.4881 177.67 89.9682 177.794C90.5586 177.847 91.0387 178.058 91.4088 178.428C91.7788 178.798 91.9638 179.3 91.9638 179.935C91.9638 180.446 91.8405 180.908 91.5938 181.322C91.3471 181.737 90.9947 182.063 90.5365 182.3C90.0784 182.53 89.5497 182.644 88.9506 182.644C88.4132 182.644 87.9198 182.547 87.4704 182.353C87.0211 182.151 86.629 181.851 86.2942 181.455L87.0211 180.781C87.3118 181.08 87.607 181.3 87.9066 181.441C88.2149 181.582 88.5497 181.653 88.911 181.653C89.466 181.653 89.9022 181.499 90.2193 181.19C90.5365 180.873 90.6951 180.45 90.6951 179.922C90.6951 179.34 90.5453 178.93 90.2458 178.693C89.9462 178.455 89.5101 178.336 88.9374 178.336H88.2766L88.422 177.397H88.8713C89.3295 177.397 89.7083 177.261 90.0079 176.988C90.3163 176.715 90.4704 176.331 90.4704 175.838C90.4704 175.424 90.3383 175.098 90.074 174.86C89.8097 174.613 89.4528 174.49 89.0035 174.49C88.6599 174.49 88.3427 174.552 88.0519 174.675C87.77 174.798 87.4792 175.001 87.1797 175.283L86.5453 174.556C87.2942 173.86 88.1356 173.512 89.0696 173.512Z" fill="black"/>
<rect width="30.3966" height="33.7006" transform="translate(98.3171 161.234)" fill="white"/>
<path d="M114.277 173.512C114.806 173.512 115.269 173.618 115.665 173.829C116.07 174.041 116.383 174.331 116.603 174.701C116.824 175.063 116.934 175.472 116.934 175.93C116.934 176.468 116.811 176.983 116.564 177.477C116.326 177.97 115.956 178.503 115.454 179.076C114.951 179.648 114.189 180.446 113.167 181.468H117.145L117 182.485H111.78V181.521C112.96 180.296 113.797 179.402 114.291 178.838C114.784 178.265 115.136 177.767 115.348 177.344C115.559 176.922 115.665 176.468 115.665 175.983C115.665 175.525 115.533 175.168 115.269 174.913C115.004 174.648 114.652 174.516 114.211 174.516C113.85 174.516 113.533 174.591 113.26 174.741C112.987 174.891 112.696 175.137 112.388 175.481L111.595 174.847C111.956 174.397 112.357 174.063 112.797 173.842C113.238 173.622 113.731 173.512 114.277 173.512ZM124.081 179.34V180.305H122.931V182.485H121.755V180.305H117.975V179.433L120.631 173.512L121.649 173.935L119.257 179.34H121.768L121.874 176.961H122.931V179.34H124.081Z" fill="black"/>
<rect width="30.3966" height="33.7006" transform="translate(127.392 161.234)" fill="white"/>
<path d="M146.022 173.512C146.55 173.512 147.013 173.618 147.409 173.829C147.815 174.041 148.127 174.331 148.348 174.701C148.568 175.063 148.678 175.472 148.678 175.93C148.678 176.468 148.555 176.983 148.308 177.477C148.07 177.97 147.7 178.503 147.198 179.076C146.696 179.648 145.934 180.446 144.912 181.468H148.89L148.744 182.485H143.524V181.521C144.704 180.296 145.541 179.402 146.035 178.838C146.528 178.265 146.881 177.767 147.092 177.344C147.304 176.922 147.409 176.468 147.409 175.983C147.409 175.525 147.277 175.168 147.013 174.913C146.749 174.648 146.396 174.516 145.956 174.516C145.594 174.516 145.277 174.591 145.004 174.741C144.731 174.891 144.44 175.137 144.132 175.481L143.339 174.847C143.7 174.397 144.101 174.063 144.541 173.842C144.982 173.622 145.475 173.512 146.022 173.512ZM155.103 174.596H151.653V177.199C152.103 176.97 152.574 176.856 153.067 176.856C153.825 176.856 154.433 177.107 154.891 177.609C155.349 178.102 155.578 178.785 155.578 179.657C155.578 180.239 155.451 180.759 155.195 181.217C154.94 181.666 154.578 182.019 154.111 182.274C153.653 182.521 153.12 182.644 152.512 182.644C151.975 182.644 151.495 182.552 151.072 182.367C150.649 182.173 150.257 181.891 149.895 181.521L150.609 180.82C150.891 181.102 151.182 181.314 151.481 181.455C151.781 181.587 152.12 181.653 152.499 181.653C153.063 181.653 153.503 181.477 153.821 181.124C154.147 180.772 154.31 180.274 154.31 179.631C154.31 178.988 154.164 178.521 153.873 178.23C153.583 177.939 153.191 177.794 152.697 177.794C152.468 177.794 152.257 177.82 152.063 177.873C151.869 177.917 151.662 177.992 151.442 178.098H150.49V173.644H155.274L155.103 174.596Z" fill="black"/>
<rect width="30.3966" height="33.7006" transform="translate(167.701 161.234)" fill="white"/>
<path d="M178.849 173.512C179.377 173.512 179.84 173.618 180.236 173.829C180.642 174.041 180.954 174.331 181.175 174.701C181.395 175.063 181.505 175.472 181.505 175.93C181.505 176.468 181.382 176.983 181.135 177.477C180.897 177.97 180.527 178.503 180.025 179.076C179.523 179.648 178.761 180.446 177.738 181.468H181.716L181.571 182.485H176.351V181.521C177.531 180.296 178.368 179.402 178.862 178.838C179.355 178.265 179.708 177.767 179.919 177.344C180.131 176.922 180.236 176.468 180.236 175.983C180.236 175.525 180.104 175.168 179.84 174.913C179.575 174.648 179.223 174.516 178.783 174.516C178.421 174.516 178.104 174.591 177.831 174.741C177.558 174.891 177.267 175.137 176.959 175.481L176.166 174.847C176.527 174.397 176.928 174.063 177.368 173.842C177.809 173.622 178.302 173.512 178.849 173.512ZM186.449 176.67C186.899 176.67 187.308 176.776 187.678 176.988C188.048 177.199 188.344 177.516 188.564 177.939C188.784 178.362 188.894 178.878 188.894 179.485C188.894 180.111 188.767 180.666 188.511 181.151C188.264 181.626 187.925 181.996 187.493 182.261C187.07 182.516 186.599 182.644 186.079 182.644C185.048 182.644 184.295 182.265 183.819 181.508C183.344 180.741 183.106 179.684 183.106 178.336C183.106 177.375 183.238 176.534 183.502 175.811C183.775 175.08 184.163 174.516 184.665 174.12C185.167 173.715 185.762 173.512 186.449 173.512C187.119 173.512 187.727 173.692 188.273 174.054L187.797 174.86C187.383 174.604 186.93 174.477 186.436 174.477C185.802 174.477 185.3 174.781 184.929 175.389C184.559 175.996 184.357 176.811 184.322 177.833C184.868 177.058 185.577 176.67 186.449 176.67ZM186.079 181.679C186.59 181.679 186.982 181.485 187.255 181.098C187.529 180.71 187.665 180.186 187.665 179.525C187.665 178.265 187.189 177.635 186.238 177.635C185.85 177.635 185.493 177.745 185.167 177.966C184.841 178.177 184.564 178.472 184.335 178.851C184.361 179.82 184.511 180.534 184.784 180.992C185.066 181.45 185.498 181.679 186.079 181.679Z" fill="black"/>
<rect width="30.3966" height="33.7006" transform="translate(194.133 161.234)" fill="white"/>
<path d="M213.361 173.512C213.89 173.512 214.353 173.618 214.749 173.829C215.154 174.041 215.467 174.331 215.687 174.701C215.908 175.063 216.018 175.472 216.018 175.93C216.018 176.468 215.894 176.983 215.648 177.477C215.41 177.97 215.04 178.503 214.538 179.076C214.035 179.648 213.273 180.446 212.251 181.468H216.229L216.084 182.485H210.864V181.521C212.044 180.296 212.881 179.402 213.375 178.838C213.868 178.265 214.22 177.767 214.432 177.344C214.643 176.922 214.749 176.468 214.749 175.983C214.749 175.525 214.617 175.168 214.353 174.913C214.088 174.648 213.736 174.516 213.295 174.516C212.934 174.516 212.617 174.591 212.344 174.741C212.071 174.891 211.78 175.137 211.471 175.481L210.679 174.847C211.04 174.397 211.441 174.063 211.881 173.842C212.322 173.622 212.815 173.512 213.361 173.512ZM222.234 173.644V174.556L218.93 182.618L217.82 182.248L221.005 174.635H217.093V173.644H222.234Z" fill="black"/>
<rect width="30.4759" height="33.7006" transform="translate(5.8056 161.234)" fill="white"/>
<path d="M17.4462 173.512C17.9748 173.512 18.4374 173.618 18.8339 173.829C19.2392 174.041 19.5519 174.331 19.7722 174.701C19.9925 175.063 20.1026 175.472 20.1026 175.93C20.1026 176.468 19.9793 176.983 19.7326 177.477C19.4947 177.97 19.1246 178.503 18.6224 179.076C18.1202 179.648 17.3581 180.446 16.3361 181.468H20.3141L20.1687 182.485H14.9484V181.521C16.129 180.296 16.966 179.402 17.4594 178.838C17.9528 178.265 18.3052 177.767 18.5167 177.344C18.7282 176.922 18.8339 176.468 18.8339 175.983C18.8339 175.525 18.7017 175.168 18.4374 174.913C18.1731 174.648 17.8207 174.516 17.3801 174.516C17.0189 174.516 16.7017 174.591 16.4286 174.741C16.1555 174.891 15.8647 175.137 15.5563 175.481L14.7634 174.847C15.1246 174.397 15.5255 174.063 15.966 173.842C16.4066 173.622 16.8999 173.512 17.4462 173.512ZM24.9096 173.644V182.485H23.6937V174.939L21.632 176.195L21.1034 175.336L23.8391 173.644H24.9096Z" fill="black"/>
</g>
<g clip-path="url(#clip6_1195_3373)">
<rect width="214.098" height="33.7006" transform="translate(10.4313 194.935)" fill="white"/>
<rect width="30.4759" height="33.7006" transform="translate(36.2021 194.935)" fill="white"/>
<path d="M47.4658 207.212C47.9945 207.212 48.457 207.318 48.8535 207.53C49.2588 207.741 49.5716 208.032 49.7918 208.402C50.0121 208.763 50.1222 209.173 50.1222 209.631C50.1222 210.168 49.9989 210.684 49.7522 211.177C49.5143 211.671 49.1442 212.204 48.642 212.776C48.1398 213.349 47.3777 214.146 46.3557 215.168H50.3337L50.1883 216.186H44.968V215.221C46.1486 213.997 46.9856 213.102 47.479 212.538C47.9724 211.966 48.3248 211.468 48.5363 211.045C48.7478 210.622 48.8535 210.168 48.8535 209.684C48.8535 209.226 48.7213 208.869 48.457 208.613C48.1927 208.349 47.8403 208.217 47.3997 208.217C47.0385 208.217 46.7213 208.292 46.4482 208.442C46.1751 208.591 45.8843 208.838 45.5759 209.182L44.783 208.547C45.1442 208.098 45.5451 207.763 45.9856 207.543C46.4262 207.323 46.9196 207.212 47.4658 207.212ZM54.2899 207.212C55.2238 207.212 55.9331 207.521 56.4176 208.138C56.9022 208.745 57.1445 209.582 57.1445 210.649C57.1445 211.856 56.9815 212.829 56.6555 213.569C56.3295 214.301 55.8317 214.886 55.1621 215.327C54.4925 215.759 53.585 216.142 52.4396 216.477L52.1621 215.565C53.3427 215.23 54.2458 214.776 54.8714 214.204C55.5057 213.631 55.845 212.869 55.889 211.917C55.6864 212.234 55.4132 212.49 55.0696 212.684C54.726 212.878 54.3383 212.975 53.9066 212.975C53.4485 212.975 53.0344 212.86 52.6643 212.631C52.2943 212.393 51.9991 212.063 51.7789 211.64C51.5674 211.208 51.4617 210.706 51.4617 210.133C51.4617 209.534 51.5894 209.014 51.8449 208.574C52.1004 208.133 52.4396 207.798 52.8626 207.569C53.2943 207.331 53.7701 207.212 54.2899 207.212ZM54.1577 212.023C54.8538 212.023 55.4397 211.657 55.9154 210.926C55.9331 209.948 55.8097 209.248 55.5454 208.825C55.2899 208.393 54.8802 208.177 54.3163 208.177C53.7965 208.177 53.3956 208.349 53.1137 208.693C52.8317 209.036 52.6908 209.525 52.6908 210.16C52.6908 210.776 52.8229 211.243 53.0872 211.56C53.3515 211.869 53.7084 212.023 54.1577 212.023Z" fill="black"/>
<rect width="30.4759" height="33.7006" transform="translate(66.5987 194.935)" fill="white"/>
<path d="M81.4847 207.212C82.0309 207.212 82.4979 207.314 82.8856 207.516C83.2821 207.719 83.5816 207.992 83.7843 208.336C83.9957 208.679 84.1014 209.054 84.1014 209.459C84.1014 209.997 83.9429 210.442 83.6257 210.794C83.3173 211.138 82.9032 211.371 82.3834 211.494C82.9737 211.547 83.4539 211.759 83.8239 212.129C84.194 212.499 84.379 213.001 84.379 213.635C84.379 214.146 84.2556 214.609 84.0089 215.023C83.7622 215.437 83.4098 215.763 82.9517 216.001C82.4935 216.23 81.9649 216.345 81.3657 216.345C80.8283 216.345 80.3349 216.248 79.8856 216.054C79.4362 215.851 79.0441 215.552 78.7093 215.155L79.4362 214.481C79.727 214.781 80.0221 215.001 80.3217 215.142C80.6301 215.283 80.9649 215.353 81.3261 215.353C81.8812 215.353 82.3173 215.199 82.6345 214.891C82.9517 214.574 83.1102 214.151 83.1102 213.622C83.1102 213.041 82.9605 212.631 82.6609 212.393C82.3613 212.155 81.9252 212.036 81.3525 212.036H80.6917L80.8371 211.098H81.2864C81.7446 211.098 82.1235 210.961 82.423 210.688C82.7314 210.415 82.8856 210.032 82.8856 209.538C82.8856 209.124 82.7534 208.798 82.4891 208.56C82.2248 208.314 81.868 208.19 81.4186 208.19C81.075 208.19 80.7578 208.252 80.4671 208.375C80.1851 208.499 79.8944 208.701 79.5948 208.983L78.9604 208.257C79.7093 207.56 80.5508 207.212 81.4847 207.212ZM88.7934 207.212C89.7714 207.212 90.5071 207.605 91.0005 208.389C91.5027 209.164 91.7538 210.292 91.7538 211.772C91.7538 213.252 91.5027 214.384 91.0005 215.168C90.5071 215.953 89.7714 216.345 88.7934 216.345C87.8154 216.345 87.0753 215.953 86.5731 215.168C86.0797 214.384 85.833 213.252 85.833 211.772C85.833 210.292 86.0797 209.164 86.5731 208.389C87.0753 207.605 87.8154 207.212 88.7934 207.212ZM88.7934 208.177C88.2207 208.177 87.7934 208.459 87.5115 209.023C87.2383 209.587 87.1018 210.503 87.1018 211.772C87.1018 213.041 87.2383 213.961 87.5115 214.534C87.7934 215.098 88.2207 215.38 88.7934 215.38C89.3573 215.38 89.7802 215.098 90.0621 214.534C90.3441 213.961 90.485 213.041 90.485 211.772C90.485 210.512 90.3441 209.6 90.0621 209.036C89.7802 208.464 89.3573 208.177 88.7934 208.177Z" fill="black"/>
<rect width="30.3966" height="33.7006" transform="translate(98.3171 194.935)" fill="white"/>
<rect width="30.3966" height="33.7006" transform="translate(127.392 194.935)" fill="white"/>
<rect width="30.3966" height="33.7006" transform="translate(167.701 194.935)" fill="white"/>
<rect width="30.3966" height="33.7006" transform="translate(194.133 194.935)" fill="white"/>
<rect width="30.4759" height="33.7006" transform="translate(5.1449 194.935)" fill="white"/>
<path d="M16.1761 207.212C16.7048 207.212 17.1673 207.318 17.5638 207.53C17.9691 207.741 18.2819 208.032 18.5021 208.402C18.7224 208.763 18.8325 209.173 18.8325 209.631C18.8325 210.168 18.7092 210.684 18.4625 211.177C18.2246 211.671 17.8546 212.204 17.3523 212.776C16.8501 213.349 16.088 214.146 15.066 215.168H19.044L18.8986 216.186H13.6783V215.221C14.8589 213.997 15.696 213.102 16.1893 212.538C16.6827 211.966 17.0352 211.468 17.2466 211.045C17.4581 210.622 17.5638 210.168 17.5638 209.684C17.5638 209.226 17.4316 208.869 17.1673 208.613C16.903 208.349 16.5506 208.217 16.1101 208.217C15.7488 208.217 15.4316 208.292 15.1585 208.442C14.8854 208.591 14.5946 208.838 14.2863 209.182L13.4933 208.547C13.8545 208.098 14.2554 207.763 14.6959 207.543C15.1365 207.323 15.6299 207.212 16.1761 207.212ZM24.5301 211.442C25.7724 211.944 26.3936 212.737 26.3936 213.82C26.3936 214.305 26.2614 214.741 25.9971 215.129C25.7416 215.508 25.3804 215.807 24.9134 216.027C24.4464 216.239 23.9178 216.345 23.3275 216.345C22.7284 216.345 22.1997 216.239 21.7416 216.027C21.2834 215.816 20.9266 215.521 20.6711 215.142C20.4244 214.763 20.301 214.331 20.301 213.847C20.301 213.301 20.4464 212.842 20.7372 212.472C21.0367 212.102 21.4729 211.794 22.0456 211.547C21.5786 211.309 21.2306 211.023 21.0015 210.688C20.7812 210.345 20.6711 209.944 20.6711 209.486C20.6711 209.01 20.7944 208.6 21.0411 208.257C21.2966 207.913 21.627 207.653 22.0323 207.477C22.4464 207.301 22.887 207.212 23.3539 207.212C23.8121 207.212 24.2438 207.296 24.6491 207.464C25.0632 207.631 25.398 207.886 25.6535 208.23C25.909 208.565 26.0368 208.97 26.0368 209.446C26.0368 209.886 25.9134 210.265 25.6667 210.583C25.42 210.9 25.0412 211.186 24.5301 211.442ZM23.3539 208.124C22.8958 208.124 22.5301 208.243 22.257 208.481C21.9927 208.719 21.8605 209.058 21.8605 209.499C21.8605 209.922 21.9883 210.243 22.2438 210.464C22.5081 210.684 22.9266 210.886 23.4993 211.071L23.724 211.151C24.1205 210.922 24.4068 210.679 24.583 210.424C24.7592 210.168 24.8473 209.856 24.8473 209.486C24.8473 209.071 24.7152 208.741 24.4508 208.494C24.1953 208.248 23.8297 208.124 23.3539 208.124ZM23.3407 215.38C23.887 215.38 24.3187 215.239 24.6359 214.957C24.9619 214.675 25.1249 214.301 25.1249 213.834C25.1249 213.516 25.0632 213.252 24.9398 213.041C24.8165 212.82 24.6183 212.631 24.3451 212.472C24.072 212.305 23.6887 212.138 23.1953 211.97L22.8649 211.851C22.4244 212.063 22.0984 212.331 21.887 212.657C21.6755 212.975 21.5698 213.371 21.5698 213.847C21.5698 214.331 21.7284 214.71 22.0456 214.983C22.3627 215.248 22.7945 215.38 23.3407 215.38Z" fill="black"/>
</g>
</g>
<path d="M13.2134 45.8698C13.6429 45.8698 14.0152 45.9328 14.3301 46.0588C14.6508 46.1791 14.9458 46.3652 15.2149 46.6172L14.6136 47.313C14.4017 47.1412 14.1898 47.0152 13.9779 46.935C13.766 46.8548 13.5398 46.8148 13.2993 46.8148C13.0359 46.8148 12.824 46.872 12.6636 46.9866C12.509 47.0954 12.4317 47.2529 12.4317 47.459C12.4317 47.6022 12.4632 47.7196 12.5262 47.8112C12.5949 47.9029 12.7123 47.9888 12.8784 48.0689C13.0444 48.1491 13.2936 48.2407 13.6257 48.3438C14.2156 48.5328 14.6566 48.7676 14.9486 49.0482C15.2407 49.3231 15.3867 49.7183 15.3867 50.2337C15.3867 50.6002 15.2951 50.9238 15.1119 51.2044C14.9286 51.4793 14.6623 51.6969 14.313 51.8573C13.9636 52.0119 13.5541 52.0892 13.0845 52.0892C12.6149 52.0892 12.1969 52.0148 11.8303 51.8659C11.4638 51.717 11.1488 51.5137 10.8854 51.256L11.5297 50.543C11.7588 50.7377 11.9964 50.8866 12.2427 50.9897C12.4889 51.087 12.7581 51.1357 13.0502 51.1357C13.3594 51.1357 13.6057 51.0641 13.7889 50.9209C13.9779 50.7778 14.0724 50.5773 14.0724 50.3196C14.0724 50.1593 14.0381 50.0275 13.9693 49.9245C13.9063 49.8156 13.7947 49.7183 13.6343 49.6324C13.474 49.5465 13.242 49.4577 12.9385 49.3661C12.2914 49.1656 11.8275 48.9251 11.5469 48.6445C11.272 48.3639 11.1345 47.9974 11.1345 47.5449C11.1345 47.2128 11.2233 46.9207 11.4008 46.6687C11.5784 46.411 11.8246 46.2134 12.1396 46.076C12.4546 45.9385 12.8125 45.8698 13.2134 45.8698ZM20.6993 49.9932C20.6993 50.3998 20.6134 50.7606 20.4416 51.0756C20.2698 51.3905 20.0121 51.6397 19.6684 51.8229C19.3305 52.0005 18.9182 52.0892 18.4314 52.0892C17.6984 52.0892 17.1371 51.9002 16.7477 51.5223C16.364 51.1386 16.1722 50.6289 16.1722 49.9932V46.0073H17.4349V49.933C17.4349 50.3339 17.5151 50.6346 17.6755 50.835C17.8358 51.0298 18.0878 51.1271 18.4314 51.1271C18.775 51.1271 19.027 51.0298 19.1874 50.835C19.3535 50.6346 19.4365 50.3339 19.4365 49.933V46.0073H20.6993V49.9932ZM26.3629 51.9518H24.7393L22.8494 47.2357C22.901 47.6423 22.941 48.026 22.9697 48.3868C23.004 48.7419 23.0212 49.1599 23.0212 49.641V51.9518H21.8787V46.0073H23.4679L25.3922 50.732C25.2776 49.9645 25.2204 49.2601 25.2204 48.6187V46.0073H26.3629V51.9518Z" fill="#98A2B3"/>
<rect width="30.2078" height="12" transform="translate(36.6288 42.9518)" fill="white"/>
<path d="M48.9589 51.9518H47.7219L47.5931 49.5379C47.553 48.8163 47.533 48.2035 47.533 47.6995C47.533 47.4304 47.5358 47.2356 47.5415 47.1154L46.5365 51.3161H45.3424L44.2686 47.1068C44.2915 47.4561 44.303 47.8484 44.303 48.2837C44.303 48.7476 44.2915 49.1742 44.2686 49.5636L44.1398 51.9518H42.9113L43.3752 46.0072H44.9816L45.9609 50.1048L46.8801 46.0072H48.5037L48.9589 51.9518ZM52.1925 45.8698C52.7365 45.8698 53.2061 45.9929 53.6013 46.2392C53.9965 46.4797 54.3 46.8319 54.5119 47.2958C54.7238 47.7597 54.8297 48.3209 54.8297 48.9795C54.8297 49.6266 54.7238 50.185 54.5119 50.6546C54.3 51.1185 53.9965 51.4736 53.6013 51.7198C53.2061 51.9661 52.7365 52.0892 52.1925 52.0892C51.6484 52.0892 51.176 51.9689 50.7751 51.7284C50.3799 51.4821 50.0764 51.1271 49.8645 50.6632C49.6526 50.1936 49.5467 49.6324 49.5467 48.9795C49.5467 48.3381 49.6526 47.7854 49.8645 47.3216C50.0821 46.8519 50.3885 46.494 50.7837 46.2478C51.1845 45.9958 51.6541 45.8698 52.1925 45.8698ZM52.1925 46.8147C51.7572 46.8147 51.4279 46.9865 51.2046 47.3301C50.987 47.6738 50.8782 48.2235 50.8782 48.9795C50.8782 49.7354 50.9898 50.2852 51.2132 50.6288C51.4365 50.9725 51.763 51.1443 52.1925 51.1443C52.6277 51.1443 52.9542 50.9753 53.1718 50.6374C53.3894 50.2938 53.4982 49.7412 53.4982 48.9795C53.4982 48.2178 53.3894 47.668 53.1718 47.3301C52.9542 46.9865 52.6277 46.8147 52.1925 46.8147ZM60.2709 51.9518H58.6473L56.7574 47.2356C56.809 47.6423 56.8491 48.026 56.8777 48.3868C56.9121 48.7418 56.9293 49.1599 56.9293 49.6409V51.9518H55.7867V46.0072H57.376L59.3002 50.7319C59.1857 49.9645 59.1284 49.2601 59.1284 48.6187V46.0072H60.2709V51.9518Z" fill="#98A2B3"/>
<rect width="30.2078" height="12" transform="translate(69.4799 42.9518)" fill="white"/>
<path d="M81.78 46.0072L81.6425 46.9951H80.1392V51.9518H78.8764V46.9951H77.2958V46.0072H81.78ZM86.867 49.9932C86.867 50.3998 86.7811 50.7606 86.6093 51.0755C86.4375 51.3905 86.1798 51.6396 85.8362 51.8229C85.4983 52.0004 85.086 52.0892 84.5992 52.0892C83.8661 52.0892 83.3049 51.9002 82.9155 51.5222C82.5318 51.1385 82.3399 50.6288 82.3399 49.9932V46.0072H83.6027V49.933C83.6027 50.3339 83.6829 50.6346 83.8432 50.835C84.0036 51.0297 84.2556 51.1271 84.5992 51.1271C84.9428 51.1271 85.1948 51.0297 85.3551 50.835C85.5212 50.6346 85.6042 50.3339 85.6042 49.933V46.0072H86.867V49.9932ZM91.5943 46.0072L91.4568 46.9264H89.3092V48.4727H91.1819V49.3832H89.3092V51.024H91.6114V51.9518H88.0464V46.0072H91.5943Z" fill="#98A2B3"/>
<rect width="30.2078" height="12" transform="translate(102.331 42.9518)" fill="white"/>
<path d="M115.869 46.0072L114.83 51.9518H113.189L112.364 47.3044L111.497 51.9518H109.899L108.868 46.0072H110.131L110.81 50.9725L111.712 46.0072H113.043L113.911 50.9725L114.675 46.0072H115.869ZM120.163 46.0072L120.025 46.9264H117.878V48.4727H119.75V49.3832H117.878V51.024H120.18V51.9518H116.615V46.0072H120.163ZM122.708 46.0072C123.636 46.0072 124.378 46.2191 124.933 46.6429C125.494 47.061 125.775 47.8312 125.775 48.9537C125.775 50.0533 125.5 50.8293 124.95 51.2817C124.406 51.7284 123.708 51.9518 122.854 51.9518H121.153V46.0072H122.708ZM122.416 46.935V51.024H122.932C123.418 51.024 123.793 50.8751 124.057 50.5773C124.326 50.2738 124.461 49.7326 124.461 48.9537C124.461 48.4154 124.392 47.9973 124.255 47.6995C124.123 47.4017 123.945 47.2013 123.722 47.0982C123.499 46.9894 123.227 46.935 122.906 46.935H122.416Z" fill="#98A2B3"/>
<rect width="30.2078" height="12" transform="translate(135.182 42.9518)" fill="white"/>
<path d="M146.878 46.0072L146.74 46.9951H145.237V51.9518H143.974V46.9951H142.394V46.0072H146.878ZM150.753 51.9518V49.3489H148.786V51.9518H147.524V46.0072H148.786V48.3524H150.753V46.0072H152.016V51.9518H150.753ZM157.711 49.9932C157.711 50.3998 157.625 50.7606 157.453 51.0755C157.282 51.3905 157.024 51.6396 156.68 51.8229C156.342 52.0004 155.93 52.0892 155.443 52.0892C154.71 52.0892 154.149 51.9002 153.76 51.5222C153.376 51.1385 153.184 50.6288 153.184 49.9932V46.0072H154.447V49.933C154.447 50.3339 154.527 50.6346 154.687 50.835C154.848 51.0297 155.1 51.1271 155.443 51.1271C155.787 51.1271 156.039 51.0297 156.199 50.835C156.365 50.6346 156.448 50.3339 156.448 49.933V46.0072H157.711V49.9932Z" fill="#98A2B3"/>
<rect width="30.2078" height="12" transform="translate(168.033 42.9518)" fill="white"/>
<path d="M177.766 51.9518V46.0072H181.219L181.081 46.9264H179.028V48.6101H180.815V49.5293H179.028V51.9518H177.766ZM183.867 49.6238H183.223V51.9518H181.96V46.0072H183.816C184.612 46.0072 185.21 46.1561 185.611 46.4539C186.012 46.746 186.212 47.1898 186.212 47.7854C186.212 48.1749 186.115 48.4956 185.92 48.7476C185.731 48.9995 185.436 49.2143 185.035 49.3918L186.573 51.9518H185.139L183.867 49.6238ZM183.223 48.7304H183.884C184.222 48.7304 184.477 48.6559 184.649 48.507C184.821 48.3524 184.907 48.1119 184.907 47.7854C184.907 47.4819 184.815 47.2614 184.632 47.124C184.454 46.9808 184.174 46.9092 183.79 46.9092H183.223V48.7304ZM188.5 46.0072V51.9518H187.237V46.0072H188.5Z" fill="#98A2B3"/>
<rect width="30.2078" height="12" transform="translate(200.884 42.9518)" fill="white"/>
<path d="M211.423 45.8698C211.852 45.8698 212.224 45.9328 212.539 46.0588C212.86 46.179 213.155 46.3652 213.424 46.6171L212.823 47.313C212.611 47.1412 212.399 47.0152 212.187 46.935C211.975 46.8548 211.749 46.8147 211.508 46.8147C211.245 46.8147 211.033 46.872 210.873 46.9865C210.718 47.0953 210.641 47.2528 210.641 47.459C210.641 47.6022 210.672 47.7196 210.735 47.8112C210.804 47.9028 210.921 47.9887 211.088 48.0689C211.254 48.1491 211.503 48.2407 211.835 48.3438C212.425 48.5328 212.866 48.7676 213.158 49.0482C213.45 49.3231 213.596 49.7183 213.596 50.2337C213.596 50.6002 213.504 50.9238 213.321 51.2044C213.138 51.4793 212.871 51.6969 212.522 51.8573C212.173 52.0119 211.763 52.0892 211.294 52.0892C210.824 52.0892 210.406 52.0147 210.04 51.8658C209.673 51.7169 209.358 51.5136 209.095 51.2559L209.739 50.5429C209.968 50.7376 210.206 50.8865 210.452 50.9896C210.698 51.087 210.967 51.1357 211.259 51.1357C211.569 51.1357 211.815 51.0641 211.998 50.9209C212.187 50.7777 212.282 50.5773 212.282 50.3196C212.282 50.1592 212.247 50.0275 212.179 49.9244C212.116 49.8156 212.004 49.7183 211.843 49.6324C211.683 49.5465 211.451 49.4577 211.148 49.3661C210.501 49.1656 210.037 48.9251 209.756 48.6445C209.481 48.3638 209.344 47.9973 209.344 47.5449C209.344 47.2127 209.432 46.9207 209.61 46.6687C209.788 46.411 210.034 46.2134 210.349 46.076C210.664 45.9385 211.022 45.8698 211.423 45.8698ZM217.569 51.9518L217.234 50.6202H215.37L215.035 51.9518H213.721L215.551 46.0072H217.088L218.909 51.9518H217.569ZM215.611 49.6839H216.994L216.298 46.9436L215.611 49.6839ZM222.974 46.0072L222.836 46.9951H221.333V51.9518H220.07V46.9951H218.49V46.0072H222.974Z" fill="#98A2B3"/>
<defs>
<clipPath id="clip0_1195_3373">
<rect width="214.098" height="181.719" fill="white" transform="translate(10.4315 56.8285)"/>
</clipPath>
<clipPath id="clip1_1195_3373">
<rect width="214.098" height="33.7006" fill="white" transform="translate(10.4315 56.8285)"/>
</clipPath>
<clipPath id="clip2_1195_3373">
<rect width="37.0046" height="33.7006" fill="white" transform="translate(127.392 56.8285)"/>
</clipPath>
<clipPath id="clip3_1195_3373">
<rect width="214.098" height="33.7006" fill="white" transform="translate(10.4313 93.8331)"/>
</clipPath>
<clipPath id="clip4_1195_3373">
<rect width="214.098" height="33.7006" fill="white" transform="translate(10.4313 127.534)"/>
</clipPath>
<clipPath id="clip5_1195_3373">
<rect width="214.098" height="33.7006" fill="white" transform="translate(10.4313 161.234)"/>
</clipPath>
<clipPath id="clip6_1195_3373">
<rect width="214.098" height="33.7006" fill="white" transform="translate(10.4313 194.935)"/>
</clipPath>
</defs>
</svg>
