<svg width="230" height="266" viewBox="0 0 230 266" fill="none" xmlns="http://www.w3.org/2000/svg">
<g filter="url(#filter0_i_395_1269)">
<path d="M229.151 176.559V47.5043C229.151 21.428 208.011 0.28894 181.935 0.28894H115.047H48.1583C22.0819 0.28894 0.942871 21.4279 0.942871 47.5043V176.559C0.942871 194.025 10.5852 210.064 26.0106 218.257L92.8991 253.784C106.748 261.14 123.345 261.14 137.194 253.784L204.083 218.257C219.508 210.064 229.151 194.025 229.151 176.559Z" fill="#6938EF"/>
</g>
<path d="M151.427 214.81C145.306 218.332 137.667 213.914 137.667 206.852V139.721C137.667 134.651 133.556 130.54 128.486 130.54H101.514C96.4434 130.54 92.333 134.651 92.333 139.721V206.852C92.333 213.914 84.6935 218.332 78.5729 214.81L51.3544 199.146C48.5076 197.507 46.7529 194.473 46.7529 191.188V39.6912C46.7529 34.6208 50.8633 30.5104 55.9337 30.5104H83.1522C88.2226 30.5104 92.333 34.6208 92.333 39.6912V86.1273C92.333 91.1977 96.4434 95.308 101.514 95.308H128.486C133.556 95.308 137.667 91.1977 137.667 86.1273V39.6912C137.667 34.6208 141.777 30.5104 146.847 30.5104H174.066C179.136 30.5104 183.247 34.6208 183.247 39.6912V191.188C183.247 194.473 181.492 197.507 178.645 199.146L151.427 214.81Z" fill="white"/>
<defs>
<filter id="filter0_i_395_1269" x="0.942871" y="-4.95721" width="228.208" height="264.258" filterUnits="userSpaceOnUse" color-interpolation-filters="sRGB">
<feFlood flood-opacity="0" result="BackgroundImageFix"/>
<feBlend mode="normal" in="SourceGraphic" in2="BackgroundImageFix" result="shape"/>
<feColorMatrix in="SourceAlpha" type="matrix" values="0 0 0 0 0 0 0 0 0 0 0 0 0 0 0 0 0 0 127 0" result="hardAlpha"/>
<feOffset dy="-5.24615"/>
<feGaussianBlur stdDeviation="3.93462"/>
<feComposite in2="hardAlpha" operator="arithmetic" k2="-1" k3="1"/>
<feColorMatrix type="matrix" values="0 0 0 0 0.290196 0 0 0 0 0.121569 0 0 0 0 0.721569 0 0 0 0.3 0"/>
<feBlend mode="normal" in2="shape" result="effect1_innerShadow_395_1269"/>
</filter>
</defs>
</svg>
