<svg width="20" height="20" viewBox="0 0 20 20" fill="none" xmlns="http://www.w3.org/2000/svg">
<g clip-path="url(#clip0_937_8663)">
<path d="M7.76076 2.70077C7.84454 2.19623 8.28206 1.82574 8.79404 1.82574H11.2078C11.7198 1.82574 12.1573 2.19623 12.2411 2.70077L12.4394 3.89323C12.498 4.24138 12.7307 4.53181 13.0398 4.70309C13.1087 4.74033 13.1766 4.78036 13.2446 4.82132C13.5471 5.00377 13.9148 5.06055 14.2453 4.93675L15.3782 4.51226C15.6103 4.42495 15.8659 4.42288 16.0995 4.50641C16.333 4.58994 16.5293 4.75365 16.6535 4.96839L17.8599 7.06008C17.9837 7.27484 18.0274 7.52658 17.9831 7.7705C17.9388 8.01442 17.8093 8.23471 17.6179 8.39217L16.6842 9.16201C16.4114 9.38635 16.2765 9.73264 16.2839 10.0854C16.2852 10.1646 16.2852 10.2437 16.2839 10.3228C16.2765 10.6747 16.4114 11.021 16.6842 11.2453L17.6188 12.0152C18.0135 12.341 18.1159 12.9041 17.8608 13.3463L16.6525 15.438C16.5286 15.6527 16.3325 15.8165 16.0991 15.9002C15.8658 15.9838 15.6103 15.982 15.3782 15.8951L14.2453 15.4706C13.9148 15.3468 13.5471 15.4036 13.2436 15.586C13.1762 15.6271 13.1079 15.6668 13.0389 15.7052C12.7307 15.8755 12.498 16.1659 12.4394 16.5141L12.2411 17.7066C12.1573 18.212 11.7198 18.5816 11.2078 18.5816H8.79311C8.28113 18.5816 7.84454 18.2111 7.75983 17.7066L7.56156 16.5141C7.50384 16.1659 7.27112 15.8755 6.96207 15.7042C6.89304 15.6662 6.82477 15.6267 6.75728 15.586C6.45474 15.4036 6.08704 15.3468 5.75565 15.4706L4.62277 15.8951C4.39073 15.9821 4.13533 15.9841 3.90199 15.9005C3.66865 15.817 3.47249 15.6535 3.34839 15.4389L2.14104 13.3472C2.01718 13.1325 1.97353 12.8808 2.01785 12.6368C2.06217 12.3929 2.19158 12.1726 2.38307 12.0152L3.31768 11.2453C3.58949 11.0219 3.72447 10.6747 3.71795 10.3228C3.7165 10.2437 3.7165 10.1646 3.71795 10.0854C3.72447 9.73171 3.58949 9.38635 3.31768 9.16201L2.38307 8.39217C2.19181 8.23475 2.06255 8.01464 2.01823 7.77092C1.97392 7.52721 2.01744 7.27568 2.14104 7.06101L3.34839 4.96933C3.47238 4.75442 3.66863 4.59051 3.90219 4.50681C4.13574 4.4231 4.39144 4.42503 4.6237 4.51226L5.75565 4.93675C6.08704 5.06055 6.45474 5.00377 6.75728 4.82132C6.8243 4.78036 6.89318 4.74126 6.96207 4.70216C7.27112 4.53181 7.50384 4.24138 7.56156 3.89323L7.76076 2.70077Z" stroke="#667085" stroke-width="1.67" stroke-linecap="round" stroke-linejoin="round"/>
<path d="M12.7923 10.2037C12.7923 10.9443 12.4981 11.6546 11.9744 12.1783C11.4506 12.7021 10.7403 12.9963 9.99967 12.9963C9.25902 12.9963 8.5487 12.7021 8.02498 12.1783C7.50125 11.6546 7.20703 10.9443 7.20703 10.2037C7.20703 9.463 7.50125 8.75268 8.02498 8.22896C8.5487 7.70523 9.25902 7.41101 9.99967 7.41101C10.7403 7.41101 11.4506 7.70523 11.9744 8.22896C12.4981 8.75268 12.7923 9.463 12.7923 10.2037Z" stroke="#667085" stroke-width="1.67" stroke-linecap="round" stroke-linejoin="round"/>
</g>
<defs>
<clipPath id="clip0_937_8663">
<rect width="20" height="20" fill="white"/>
</clipPath>
</defs>
</svg>
