<svg width="167" height="50" viewBox="0 0 167 50" fill="none" xmlns="http://www.w3.org/2000/svg">
<path d="M63.054 26.5611C63.054 26.713 63.016 27.4722 62.9401 28.8387H50.5653C50.7425 30.3824 51.1727 31.4453 51.8559 32.0273C52.5645 32.584 53.5641 32.8624 54.8547 32.8624C55.6139 32.8624 56.3605 32.7232 57.0944 32.4449C57.8535 32.1412 58.676 31.6857 59.5617 31.0783L62.2948 34.7983C61.2319 35.6841 60.0172 36.3926 58.6507 36.9241C57.2842 37.4302 55.8037 37.6833 54.2094 37.6833C50.7678 37.6833 48.1486 36.7216 46.3518 34.7983C44.5804 32.8498 43.6947 30.2432 43.6947 26.9787C43.6947 24.9289 44.0616 23.0815 44.7955 21.4366C45.5547 19.7917 46.6681 18.4884 48.1359 17.5268C49.6037 16.5651 51.3751 16.0843 53.4502 16.0843C56.4111 16.0843 58.7519 17.008 60.4728 18.8554C62.1936 20.6774 63.054 23.246 63.054 26.5611ZM56.4111 24.6632C56.3858 23.3219 56.158 22.2844 55.7278 21.5505C55.2976 20.8166 54.5764 20.4497 53.5641 20.4497C52.6278 20.4497 51.9192 20.7786 51.4384 21.4366C50.9576 22.0946 50.6539 23.246 50.5274 24.8909H56.4111V24.6632ZM71.5451 37.6833C69.6471 37.6833 68.1793 37.1518 67.1418 36.089C66.1042 35.0261 65.5854 33.4951 65.5854 31.4959V8.79609L72.3422 8.11282V31.2681C72.3422 32.002 72.6712 32.3689 73.3292 32.3689C73.6075 32.3689 73.8986 32.3183 74.2022 32.2171L75.4549 37C74.4173 37.4555 73.1141 37.6833 71.5451 37.6833ZM89.1517 16.0843C91.6824 16.0843 93.5804 17.0333 94.8457 18.9313C96.111 20.8039 96.7436 23.4358 96.7436 26.8269C96.7436 28.902 96.4147 30.762 95.7567 32.4069C95.0987 34.0518 94.1497 35.3424 92.9097 36.2788C91.695 37.2151 90.2905 37.6833 88.6962 37.6833C86.697 37.6833 85.0901 37 83.8754 35.6335V44.8197L77.1186 45.5029V16.7676H83.1162L83.4199 18.8933C84.2044 17.9064 85.0901 17.1978 86.077 16.7676C87.0893 16.3121 88.1142 16.0843 89.1517 16.0843ZM86.5325 32.8245C88.6836 32.8245 89.7591 30.8506 89.7591 26.9028C89.7591 24.5999 89.5187 23.0436 89.0379 22.2338C88.5824 21.3986 87.8864 20.9811 86.9501 20.9811C85.7354 20.9811 84.7105 21.6897 83.8754 23.1068V31.2302C84.255 31.7869 84.6472 32.1918 85.0521 32.4449C85.4823 32.6979 85.9758 32.8245 86.5325 32.8245ZM122.733 16.0843C124.302 16.0843 125.567 16.6284 126.529 17.7166C127.49 18.7794 127.971 20.2599 127.971 22.1578V37H121.214V23.3725C121.214 21.8035 120.759 21.0191 119.848 21.0191C118.912 21.0191 118.051 21.7909 117.267 23.3346V37H110.51V23.3725C110.51 21.8035 110.054 21.0191 109.143 21.0191C108.207 21.0191 107.347 21.7909 106.562 23.3346V37H99.8053V16.7676H105.689L106.183 19.0072C106.967 18.0203 107.827 17.2864 108.764 16.8055C109.725 16.3247 110.826 16.0843 112.066 16.0843C113.129 16.0843 114.065 16.35 114.875 16.8815C115.685 17.3876 116.292 18.1341 116.697 19.1211C117.532 18.0835 118.431 17.3243 119.392 16.8435C120.354 16.3374 121.468 16.0843 122.733 16.0843ZM150.057 26.5611C150.057 26.713 150.019 27.4722 149.943 28.8387H137.568C137.745 30.3824 138.176 31.4453 138.859 32.0273C139.567 32.584 140.567 32.8624 141.858 32.8624C142.617 32.8624 143.363 32.7232 144.097 32.4449C144.856 32.1412 145.679 31.6857 146.565 31.0783L149.298 34.7983C148.235 35.6841 147.02 36.3926 145.654 36.9241C144.287 37.4302 142.807 37.6833 141.212 37.6833C137.771 37.6833 135.151 36.7216 133.355 34.7983C131.583 32.8498 130.698 30.2432 130.698 26.9787C130.698 24.9289 131.064 23.0815 131.798 21.4366C132.558 19.7917 133.671 18.4884 135.139 17.5268C136.607 16.5651 138.378 16.0843 140.453 16.0843C143.414 16.0843 145.755 17.008 147.476 18.8554C149.196 20.6774 150.057 23.246 150.057 26.5611ZM143.414 24.6632C143.389 23.3219 143.161 22.2844 142.731 21.5505C142.3 20.8166 141.579 20.4497 140.567 20.4497C139.631 20.4497 138.922 20.7786 138.441 21.4366C137.96 22.0946 137.657 23.246 137.53 24.8909H143.414V24.6632ZM166.216 36.0131C165.431 36.5698 164.52 36.9873 163.483 37.2657C162.445 37.5441 161.433 37.6833 160.446 37.6833C155.764 37.6833 153.423 35.102 153.423 29.9395V21.3986H150.804V16.7676H153.423V12.4782L160.18 11.681V16.7676H164.773L164.09 21.3986H160.18V29.8636C160.18 30.7746 160.319 31.42 160.598 31.7995C160.901 32.1791 161.344 32.3689 161.926 32.3689C162.635 32.3689 163.318 32.1791 163.976 31.7995L166.216 36.0131Z" fill="black"/>
<g filter="url(#filter0_i_411_1641)">
<path d="M40.8648 33.4722V10.3627C40.8648 5.69323 37.0794 1.9079 32.41 1.9079H20.4324H8.45478C3.78533 1.9079 0 5.69323 0 10.3627V33.4722C0 36.5999 1.72663 39.472 4.48884 40.9391L16.4664 47.3009C18.9464 48.618 21.9184 48.618 24.3983 47.3009L36.3759 40.9391C39.1381 39.472 40.8648 36.5999 40.8648 33.4722Z" fill="#6938EF"/>
</g>
<path d="M26.9469 38.5624C25.8509 39.1932 24.4829 38.4021 24.4829 37.1376V25.2318H16.3651V37.1376C16.3651 38.4021 14.9971 39.1932 13.9011 38.5624L9.02711 35.7575C8.51733 35.4641 8.20312 34.9208 8.20312 34.3326V10.723C8.20312 9.81502 8.93916 9.07898 9.84711 9.07898H14.7211C15.629 9.07898 16.3651 9.81502 16.3651 10.723V18.9228H24.4829V10.723C24.4829 9.81501 25.2189 9.07898 26.1269 9.07898H31.0009C31.9088 9.07898 32.6448 9.81502 32.6448 10.723V34.3326C32.6448 34.9208 32.3306 35.4641 31.8209 35.7575L26.9469 38.5624Z" fill="white"/>
<defs>
<filter id="filter0_i_411_1641" x="0" y="0.968478" width="40.8647" height="47.3203" filterUnits="userSpaceOnUse" color-interpolation-filters="sRGB">
<feFlood flood-opacity="0" result="BackgroundImageFix"/>
<feBlend mode="normal" in="SourceGraphic" in2="BackgroundImageFix" result="shape"/>
<feColorMatrix in="SourceAlpha" type="matrix" values="0 0 0 0 0 0 0 0 0 0 0 0 0 0 0 0 0 0 127 0" result="hardAlpha"/>
<feOffset dy="-0.93942"/>
<feGaussianBlur stdDeviation="0.704565"/>
<feComposite in2="hardAlpha" operator="arithmetic" k2="-1" k3="1"/>
<feColorMatrix type="matrix" values="0 0 0 0 0.290196 0 0 0 0 0.121569 0 0 0 0 0.721569 0 0 0 0.3 0"/>
<feBlend mode="normal" in2="shape" result="effect1_innerShadow_411_1641"/>
</filter>
</defs>
</svg>
