<svg width="20" height="20" viewBox="0 0 20 20" fill="none" xmlns="http://www.w3.org/2000/svg">
<path d="M1.33333 18.5V16.8333C1.33333 15.9493 1.68452 15.1014 2.30964 14.4763C2.93476 13.8512 3.78261 13.5 4.66666 13.5H11.3333C12.2174 13.5 13.0652 13.8512 13.6904 14.4763C14.3155 15.1014 14.6667 15.9493 14.6667 16.8333V18.5M4.66666 6.83333C4.66666 8.67428 6.15905 10.1667 8 10.1667C9.84095 10.1667 11.3333 8.67428 11.3333 6.83333C11.3333 4.99238 9.84095 3.5 8 3.5C6.15905 3.5 4.66666 4.99238 4.66666 6.83333Z" stroke="#FFFFFF" stroke-width="1.66667" stroke-linecap="round" stroke-linejoin="round"/>
<path d="M16.5 7V12M14 9.5H19" stroke="#FFFFFF" stroke-width="1.67" stroke-linecap="round" stroke-linejoin="round"/>
</svg>
